<?xml version="1.0" encoding="UTF-8" standalone="no"?>
<svg
   id="Ebene_1"
   data-name="Ebene 1"
   viewBox="0 0 122 55.000002"
   version="1.1"
   sodipodi:docname="bab.svg"
   width="122"
   height="55"
   inkscape:version="1.2.1 (9c6d41e410, 2022-07-14)"
   xmlns:inkscape="http://www.inkscape.org/namespaces/inkscape"
   xmlns:sodipodi="http://sodipodi.sourceforge.net/DTD/sodipodi-0.dtd"
   xmlns="http://www.w3.org/2000/svg"
   xmlns:svg="http://www.w3.org/2000/svg">
  <defs
     id="defs1160" />
  <sodipodi:namedview
     id="namedview1158"
     pagecolor="#505050"
     bordercolor="#eeeeee"
     borderopacity="1"
     inkscape:showpageshadow="0"
     inkscape:pageopacity="0"
     inkscape:pagecheckerboard="0"
     inkscape:deskcolor="#505050"
     showgrid="false"
     inkscape:zoom="14.360167"
     inkscape:cx="64.936572"
     inkscape:cy="27.924467"
     inkscape:window-width="3840"
     inkscape:window-height="2050"
     inkscape:window-x="-12"
     inkscape:window-y="-12"
     inkscape:window-maximized="1"
     inkscape:current-layer="Ebene_1" />
  <g
     id="g95"
     transform="matrix(0.97749729,0,0,0.97749729,0.0696371,0)">
    <path
       id="path59"
       d="M 65.33,33.2 A 1.54,1.54 0 0 1 63.56,32 L 51.73,0 H 46.11 L 34.28,32 c -0.32,1 -0.8,1.18 -1.77,1.18 h -0.75 v 4.6 h 2.94 c 2.68,0 3.53,-0.64 4.44,-3.11 L 42,26.93 h 13.9 l 2.84,7.76 c 0.86,2.46 1.71,3.11 4.39,3.11 h 3 V 33.2 Z M 43.27,22.44 47.39,10.93 c 0.7,-2 1.45,-5.3 1.45,-5.3 H 49 c 0,0 0.8,3.32 1.5,5.3 l 4.12,11.51 z"
       style="fill:#e30613" />
    <path
       id="path61"
       d="M 22.43,17.89 V 17.78 A 8.73,8.73 0 0 0 27.14,9.64 C 27.14,3.54 22.54,0 16.14,0 H 0 v 4.6 h 3.48 v 29.76 c 0,2.41 1,3.43 3.43,3.43 h 9.58 c 6.69,0 12.15,-3.64 12.15,-10.76 0,-4.22 -2.19,-7.97 -6.21,-9.14 z M 8.84,4.61 h 7.28 a 5.18,5.18 0 0 1 5.57,5.57 c 0,3.32 -2.14,5.73 -5.46,5.73 H 8.84 Z M 16.76,33.2 H 10 A 1.07,1.07 0 0 1 8.83,32 V 20.29 h 7.92 c 3.85,0 6.37,2.62 6.37,6.48 0,3.86 -2.35,6.43 -6.36,6.43 z"
       style="fill:#e30613" />
    <path
       id="path63"
       d="M 91.62,17.89 V 17.78 A 8.73,8.73 0 0 0 96.33,9.64 C 96.33,3.54 91.73,0 85.33,0 H 69.19 v 4.6 h 3.48 v 29.76 c 0,2.41 1,3.43 3.43,3.43 h 9.58 c 6.69,0 12.15,-3.64 12.15,-10.76 0,-4.22 -2.19,-7.97 -6.21,-9.14 z M 78,4.61 h 7.3 a 5.18,5.18 0 0 1 5.57,5.57 c 0,3.32 -2.14,5.73 -5.46,5.73 H 78 Z M 86,33.2 H 79.2 A 1.07,1.07 0 0 1 78,32 V 20.29 h 7.92 c 3.85,0 6.37,2.62 6.37,6.48 0,3.86 -2.29,6.43 -6.29,6.43 z"
       style="fill:#e30613" />
    <rect
       id="rect65"
       x="116.22"
       y="18.780001"
       width="8.5"
       height="8.5"
       style="fill:#e30613" />
    <g
       id="g93">
      <path
         id="path67"
         d="m 32.57,47.37 h -0.85 v -1.13 h 3.75 a 4.32,4.32 0 0 1 4.69,4.62 4.33,4.33 0 0 1 -4.69,4.65 h -2.06 c -0.59,0 -0.84,-0.25 -0.84,-0.84 z m 1.6,7 h 1.21 a 3.18,3.18 0 0 0 3.41,-3.52 3.17,3.17 0 0 0 -3.41,-3.49 h -1.5 v 6.72 a 0.27,0.27 0 0 0 0.29,0.3 z"
         style="fill:#e30613" />
      <path
         id="path69"
         d="m 41.88,50.25 a 0.25,0.25 0 0 0 -0.29,-0.29 h -0.54 v -1.09 h 1.25 c 0.59,0 0.84,0.25 0.84,0.84 v 4.42 a 0.25,0.25 0 0 0 0.29,0.29 H 44 v 1.09 h -1.28 c -0.59,0 -0.84,-0.25 -0.84,-0.84 z m 0,-4 H 43 v 1.33 h -1.1 z"
         style="fill:#e30613" />
      <path
         id="path71"
         d="M 48.11,48.71 A 2.82,2.82 0 0 1 51,51.82 c 0,0.17 0,0.52 0,0.52 h -4.91 a 2.22,2.22 0 0 0 2.28,2.22 3.06,3.06 0 0 0 1.94,-0.77 l 0.55,0.91 a 3.88,3.88 0 0 1 -2.56,1 3.39,3.39 0 0 1 -3.53,-3.48 3.27,3.27 0 0 1 3.34,-3.51 z m 1.55,2.7 a 1.57,1.57 0 0 0 -1.56,-1.69 1.92,1.92 0 0 0 -2,1.69 z"
         style="fill:#e30613" />
      <path
         id="path73"
         d="m 56.43,47.37 h -0.85 v -1.13 h 5.1 c 0.59,0 0.84,0.25 0.84,0.84 v 1.17 h -1.19 v -0.59 a 0.25,0.25 0 0 0 -0.29,-0.29 h -2.3 v 3 h 3.16 v 1.13 h -3.16 v 4 h -1.31 z"
         style="fill:#e30613" />
      <path
         id="path75"
         d="m 65.79,48.71 a 3.48,3.48 0 1 1 -3.57,3.46 3.46,3.46 0 0 1 3.57,-3.46 z m 0,5.85 a 2.38,2.38 0 1 0 -2.27,-2.39 2.29,2.29 0 0 0 2.27,2.39 z m -1.55,-8.32 h 1 v 1.33 h -1 z m 2.17,0 h 1 v 1.33 h -1 z"
         style="fill:#e30613" />
      <path
         id="path77"
         d="m 71,50.25 a 0.25,0.25 0 0 0 -0.29,-0.29 h -0.54 v -1.09 h 1.21 c 0.58,0 0.85,0.24 0.85,0.77 v 0.42 a 3.44,3.44 0 0 1 0,0.46 v 0 a 2.28,2.28 0 0 1 2.1,-1.73 2.24,2.24 0 0 1 0.34,0 v 1.26 a 1.85,1.85 0 0 0 -0.38,0 2,2 0 0 0 -1.86,1.56 4,4 0 0 0 -0.16,1.19 v 2.72 H 71 Z"
         style="fill:#e30613" />
      <path
         id="path79"
         d="m 78.15,48.71 a 2.22,2.22 0 0 1 2,1 v 0 a 3.38,3.38 0 0 1 0,-0.45 v -1.65 a 0.25,0.25 0 0 0 -0.29,-0.29 h -0.54 v -1.09 h 1.26 c 0.59,0 0.84,0.25 0.84,0.84 v 7 a 0.25,0.25 0 0 0 0.29,0.29 h 0.54 v 1.14 h -1.17 c -0.58,0 -0.81,-0.26 -0.81,-0.71 0,-0.2 0,-0.34 0,-0.34 v 0 a 2.35,2.35 0 0 1 -2.18,1.21 c -1.8,0 -2.93,-1.42 -2.93,-3.48 0,-2.06 1.23,-3.47 2.99,-3.47 z m 2.09,3.46 c 0,-1.18 -0.62,-2.36 -1.89,-2.36 -1,0 -1.9,0.87 -1.9,2.38 0,1.51 0.77,2.38 1.88,2.38 1.11,0 1.91,-0.7 1.91,-2.4 z"
         style="fill:#e30613" />
      <path
         id="path81"
         d="m 86.41,48.71 a 2.82,2.82 0 0 1 2.86,3.11 c 0,0.17 0,0.52 0,0.52 h -4.88 a 2.22,2.22 0 0 0 2.28,2.22 3.06,3.06 0 0 0 1.94,-0.77 l 0.55,0.91 a 3.88,3.88 0 0 1 -2.56,1 3.39,3.39 0 0 1 -3.53,-3.48 3.27,3.27 0 0 1 3.34,-3.51 z m 1.59,2.7 a 1.57,1.57 0 0 0 -1.56,-1.69 1.92,1.92 0 0 0 -2,1.69 z"
         style="fill:#e30613" />
      <path
         id="path83"
         d="m 91,50.25 a 0.25,0.25 0 0 0 -0.29,-0.29 h -0.54 v -1.09 h 1.21 c 0.58,0 0.85,0.24 0.85,0.77 v 0.42 a 3.44,3.44 0 0 1 0,0.46 v 0 a 2.28,2.28 0 0 1 2.1,-1.73 2.24,2.24 0 0 1 0.34,0 v 1.26 a 1.85,1.85 0 0 0 -0.38,0 2,2 0 0 0 -1.86,1.56 4,4 0 0 0 -0.16,1.19 v 2.72 H 91 Z"
         style="fill:#e30613" />
      <path
         id="path85"
         d="M 95.86,47.62 A 0.25,0.25 0 0 0 95.57,47.33 H 95 v -1.09 h 1.26 c 0.59,0 0.84,0.25 0.84,0.84 v 2.17 a 4.93,4.93 0 0 1 0,0.55 v 0 a 2.39,2.39 0 0 1 2.14,-1.09 c 1.78,0 2.91,1.42 2.91,3.48 0,2.06 -1.27,3.48 -3,3.48 a 2.41,2.41 0 0 1 -2.09,-1.12 v 0 a 3.92,3.92 0 0 1 0,0.5 v 0.46 h -1.21 v -7.89 z m 3.12,7 c 1,0 1.92,-0.87 1.92,-2.38 0,-1.51 -0.77,-2.38 -1.89,-2.38 -1.12,0 -1.9,0.7 -1.9,2.39 -0.01,1.14 0.61,2.33 1.89,2.33 z"
         style="fill:#e30613" />
      <path
         id="path87"
         d="m 107.09,51.37 h 0.29 V 51.3 c 0,-1.17 -0.43,-1.59 -1.47,-1.59 -0.31,0 -1.09,0.08 -1.09,0.51 v 0.38 h -1.19 v -0.66 c 0,-1.09 1.65,-1.25 2.3,-1.25 2.15,0 2.73,1.13 2.73,2.6 v 2.82 a 0.25,0.25 0 0 0 0.29,0.29 h 0.54 v 1.09 h -1.19 c -0.59,0 -0.83,-0.29 -0.83,-0.76 a 2.49,2.49 0 0 1 0,-0.39 v 0 a 2.26,2.26 0 0 1 -2.11,1.31 2.08,2.08 0 0 1 -2.26,-2 c -0.01,-2.15 2.9,-2.28 3.99,-2.28 z m -1.47,3.27 a 2,2 0 0 0 1.77,-2.11 v -0.22 h -0.33 c -1,0 -2.69,0 -2.69,1.27 a 1.11,1.11 0 0 0 1.25,1.06 z"
         style="fill:#e30613" />
      <path
         id="path89"
         d="m 110.86,50.25 a 0.25,0.25 0 0 0 -0.29,-0.29 H 110 v -1.09 h 1.22 c 0.56,0 0.84,0.25 0.84,0.73 v 0.25 a 2.44,2.44 0 0 1 0,0.38 v 0 a 2.69,2.69 0 0 1 2.49,-1.52 c 1.57,0 2.28,0.85 2.28,2.55 v 2.87 a 0.25,0.25 0 0 0 0.29,0.29 h 0.54 v 1.09 h -1.26 c -0.59,0 -0.84,-0.25 -0.84,-0.84 v -3.12 c 0,-0.93 -0.18,-1.67 -1.25,-1.67 a 2.15,2.15 0 0 0 -2.1,1.63 2.74,2.74 0 0 0 -0.12,0.89 v 3.11 h -1.27 v -5.26 z"
         style="fill:#e30613" />
      <path
         id="path91"
         d="m 119,47.62 a 0.25,0.25 0 0 0 -0.29,-0.29 h -0.54 v -1.09 h 1.26 c 0.59,0 0.84,0.17 0.84,0.76 v 4.3 h 0.59 a 0.89,0.89 0 0 0 0.7,-0.29 l 1.54,-2.15 h 1.46 l -1.8,2.47 a 1.56,1.56 0 0 1 -0.5,0.5 v 0 c 0,0 0.22,0.08 0.45,0.5 l 1,1.8 c 0.1,0.21 0.24,0.26 0.56,0.26 h 0.41 v 1.09 h -0.92 a 1,1 0 0 1 -1.1,-0.62 l -1.21,-2.23 a 0.71,0.71 0 0 0 -0.66,-0.28 h -0.5 V 55.5 H 119 Z"
         style="fill:#e30613" />
    </g>
  </g>
</svg>
