<?xml version="1.0" encoding="UTF-8" standalone="no"?>
<svg
   width="190"
   height="92"
   version="1.1"
   xml:space="preserve"
   style="clip-rule:evenodd;fill-rule:evenodd;stroke-linejoin:round;stroke-miterlimit:2"
   id="svg19"
   sodipodi:docname="bmi.svg"
   inkscape:version="1.2.1 (9c6d41e410, 2022-07-14)"
   xmlns:inkscape="http://www.inkscape.org/namespaces/inkscape"
   xmlns:sodipodi="http://sodipodi.sourceforge.net/DTD/sodipodi-0.dtd"
   xmlns="http://www.w3.org/2000/svg"
   xmlns:svg="http://www.w3.org/2000/svg"><defs
   id="defs23">
        
        
        
        
        
        
        
    </defs><sodipodi:namedview
   id="namedview21"
   pagecolor="#505050"
   bordercolor="#eeeeee"
   borderopacity="1"
   inkscape:showpageshadow="0"
   inkscape:pageopacity="0"
   inkscape:pagecheckerboard="0"
   inkscape:deskcolor="#505050"
   showgrid="false"
   inkscape:zoom="6.2842105"
   inkscape:cx="142.65913"
   inkscape:cy="50.046064"
   inkscape:window-width="3840"
   inkscape:window-height="2050"
   inkscape:window-x="-12"
   inkscape:window-y="-12"
   inkscape:window-maximized="1"
   inkscape:current-layer="svg19" />
    <rect
   id="BMI_2018_DTP_Spot_de"
   x="0"
   y="0"
   width="285"
   height="100"
   style="fill:none" />
    <rect
   id="ArtBoard1"
   x="0"
   y="-4"
   width="185"
   height="100"
   style="fill:none" /><path
   d="m 23.532,12.953 c 0.04,-0.332 0.064,-0.675 0.064,-1.025 0,-0.191 0.001,-0.413 -0.022,-0.665 2.955,-0.042 5.547,-2.171 5.547,-4.62 0,-1.245 -0.812,-2.186 -1.271,-2.748 0.103,-0.022 0.207,-0.046 0.312,-0.071 0.433,0.377 1.661,1.715 1.661,3.404 0,2.937 -2.936,5.664 -6.291,5.725 M 20.555,2.722 C 20.5,2.395 20.375,2.098 20.185,1.843 c 0.011,-0.299 0.134,-0.586 0.616,-0.35 -0.261,0.267 -0.06,0.74 -0.06,0.74 0,0 0.534,-0.248 0.423,-0.6 0.792,0.189 0.222,1.253 -0.609,1.089 M 19.868,4.231 C 19.763,3.792 19.537,3.341 19.251,3.001 18.99,2.693 18.559,2.327 17.977,2.327 c -0.265,0 -0.71,0.124 -0.993,0.244 -0.106,-0.193 -0.312,-0.657 -0.312,-0.866 0,-0.215 0.364,-0.433 1.059,-0.433 1.53,0 2.444,0.691 2.444,1.851 0,0.408 -0.162,0.778 -0.307,1.108 m 3.93,19.722 c 0.178,0 0.264,0.028 0.367,0.067 0.441,1.198 2.139,3.46 2.21,3.556 l 0.015,0.021 0.025,-0.006 c 0.417,-0.067 1.48,-0.227 2.37,-0.227 h 0.02 c 0.097,0 0.207,0 0.276,0.068 0.058,0.058 0.086,0.159 0.086,0.303 0,0.221 -0.093,0.599 -0.206,0.76 -0.311,-0.339 -0.817,-0.492 -1.627,-0.492 -0.243,0 -0.531,0.073 -0.686,0.114 l -0.064,0.014 -0.073,0.019 0.467,0.467 c 0.721,0.721 1.344,1.342 1.344,1.756 0,0.249 -0.243,0.574 -0.466,0.718 -0.049,-0.758 -0.814,-1.773 -1.56,-2.341 l -0.063,-0.047 -0.012,0.267 c -0.011,0.181 -0.027,0.452 -0.027,0.743 0,1.443 -0.147,1.662 -0.647,1.662 -0.077,0 -0.194,-0.022 -0.266,-0.049 0.281,-0.348 0.393,-0.808 0.393,-1.615 L 25.669,29.339 25.665,29.04 c 0,-0.331 0.034,-0.576 0.06,-0.773 l 0.015,-0.111 -0.078,-0.011 c -0.235,-0.032 -0.669,-0.091 -1.001,-0.091 -0.714,0 -1.197,0.065 -1.547,0.394 -0.231,-0.187 -0.469,-0.509 -0.469,-0.712 0,-0.301 0.187,-0.325 0.433,-0.325 0.125,0 0.241,0.018 0.401,0.037 0.307,0.046 0.768,0.115 1.718,0.115 h 0.06 l -0.019,-0.058 c -0.241,-0.69 -0.902,-1.692 -1.962,-2.981 0.095,-0.345 0.188,-0.571 0.522,-0.571 m -9.156,3.552 -0.019,0.058 h 0.059 c 0.949,0 1.412,-0.069 1.719,-0.115 0.16,-0.019 0.276,-0.037 0.4,-0.037 0.245,0 0.433,0.024 0.433,0.325 0,0.203 -0.237,0.525 -0.467,0.712 -0.351,-0.329 -0.835,-0.394 -1.547,-0.394 -0.333,0 -0.769,0.059 -1.002,0.091 l -0.037,0.005 -0.042,0.006 0.014,0.111 c 0.028,0.197 0.062,0.442 0.062,0.773 l -0.004,0.299 -0.005,0.372 c 0,0.807 0.111,1.267 0.395,1.615 -0.075,0.027 -0.192,0.049 -0.269,0.049 -0.501,0 -0.646,-0.219 -0.646,-1.662 0,-0.291 -0.015,-0.562 -0.026,-0.743 l -0.014,-0.268 -0.063,0.048 c -0.744,0.568 -1.512,1.583 -1.558,2.341 -0.224,-0.144 -0.467,-0.469 -0.467,-0.718 0,-0.414 0.623,-1.035 1.343,-1.756 l 0.467,-0.467 -0.136,-0.033 c -0.156,-0.041 -0.443,-0.114 -0.688,-0.114 -0.808,0 -1.313,0.153 -1.625,0.492 -0.113,-0.161 -0.207,-0.539 -0.207,-0.76 0,-0.144 0.029,-0.245 0.086,-0.303 0.07,-0.068 0.18,-0.068 0.276,-0.068 h 0.021 c 0.89,0 1.955,0.16 2.37,0.227 l 0.025,0.006 0.015,-0.021 c 0.072,-0.096 1.769,-2.358 2.211,-3.556 0.101,-0.039 0.188,-0.067 0.366,-0.067 0.334,0 0.427,0.226 0.524,0.571 -1.062,1.289 -1.724,2.291 -1.964,2.981 M 10.057,7.228 c 0,-1.689 1.229,-3.027 1.662,-3.404 0.104,0.025 0.208,0.049 0.312,0.071 -0.46,0.562 -1.273,1.503 -1.273,2.748 0,2.474 2.643,4.621 5.635,4.621 -0.019,0.212 -0.029,0.435 -0.029,0.664 0,0.365 0.021,0.705 0.056,1.025 -3.384,-0.021 -6.363,-2.767 -6.363,-5.725 m 22.697,5.209 c 1.519,2.401 2.707,2.361 4.501,2.361 -1.484,-1.138 -2.466,-2.595 -2.935,-3.34 L 31.547,7.021 c -0.27,-1.37 -0.978,-2.651 -2.04,-3.605 0.357,-0.134 0.654,-0.277 0.832,-0.412 -1.811,0 -3.605,-0.919 -4.593,-0.919 -0.635,0 -1.042,0.379 -1.042,0.881 0.04,0.559 0.615,1.127 1.678,1.127 0.241,0 0.549,-0.031 0.887,-0.088 0.575,0.802 1.04,1.528 1.04,2.563 0,1.942 -2.323,3.456 -4.667,3.456 -0.134,0 -0.26,-0.006 -0.392,-0.015 -0.212,-0.481 -0.919,-1.29 -0.919,-2.209 0,-1.544 1.007,-2.804 1.007,-4.333 0,-0.951 -0.463,-1.539 -0.641,-1.784 0.288,-0.267 0.602,-0.595 0.677,-0.82 -0.168,0.073 -0.367,0.081 -0.656,0.081 -1.124,0 -2.04,-0.292 -2.933,-0.292 -0.51,0 -0.647,0.158 -0.647,0.307 0,0.055 0.008,0.112 0.023,0.138 C 18.971,1.023 18.793,0.974 18.581,0.936 18.317,0.885 18.034,0.86 17.731,0.86 c -1.085,0 -1.471,0.455 -1.471,0.845 0,0.329 0.26,0.931 0.555,1.391 0.422,-0.213 0.931,-0.357 1.162,-0.357 0.577,0 1.089,0.548 1.36,1.198 -0.387,0.047 -0.461,0.064 -0.853,0.064 -1.057,0 -1.776,-0.378 -1.924,-0.378 -0.014,0 -0.042,0.007 -0.042,0.031 0,0.148 0.3,0.54 0.89,0.755 0.778,0.284 1.944,0.403 2.138,0.436 0,0.034 -0.197,0.401 -0.418,0.473 -0.046,0.014 -0.083,0.016 -0.138,0.004 -0.813,-0.16 -1.039,-0.228 -2.07,-0.62 -0.031,-0.012 -0.051,0.008 -0.051,0.04 0,0.408 1.056,1.308 2.002,1.654 -0.79,1.008 -1.776,2.04 -2.242,3.613 -0.132,0.009 -0.259,0.015 -0.391,0.015 -2.345,0 -4.667,-1.514 -4.667,-3.456 0,-1.035 0.464,-1.761 1.04,-2.563 0.338,0.057 0.645,0.088 0.886,0.088 1.064,0 1.639,-0.568 1.68,-1.127 0,-0.502 -0.407,-0.881 -1.043,-0.881 -0.988,0 -2.781,0.919 -4.595,0.919 0.18,0.135 0.476,0.278 0.832,0.412 C 9.311,4.37 8.602,5.651 8.332,7.021 l -2.773,4.437 c -0.467,0.745 -1.451,2.202 -2.936,3.34 1.794,0 2.984,0.04 4.502,-2.361 l 1.422,-2.275 c 0.106,0.295 0.235,0.583 0.387,0.865 l -2.827,4.524 c -0.471,0.75 -1.446,2.195 -2.937,3.34 1.795,0 2.984,0.041 4.502,-2.358 l 2.434,-3.897 c 0.182,0.194 0.374,0.384 0.575,0.565 l -3.434,5.498 c -0.472,0.752 -1.442,2.194 -2.935,3.337 1.795,0 2.984,0.043 4.501,-2.358 l 3.348,-5.361 c 0.221,0.14 0.447,0.275 0.681,0.402 L 8.754,21.26 c -0.472,0.752 -1.442,2.189 -2.935,3.337 1.794,0 2.983,0.041 4.502,-2.358 l 4.208,-6.737 c 0.25,0.095 0.502,0.187 0.758,0.269 l -4.755,7.611 c -0.465,0.742 -1.457,2.205 -2.934,3.337 1.793,0 2.984,0.041 4.501,-2.358 l 5.069,-8.111 c 0.051,0.008 0.102,0.016 0.152,0.026 0.138,0.439 0.235,0.848 0.235,1.256 0,2.549 -1.673,4.8 -3.681,6.538 0.129,0.057 0.353,0.076 0.559,0.076 0.415,0 0.682,-0.022 0.871,-0.055 -0.466,1.057 -1.466,2.423 -1.97,3.129 -0.657,-0.119 -1.613,-0.21 -2.239,-0.21 -0.655,0 -0.73,0.382 -0.73,0.725 0,0.594 0.279,1.067 0.603,1.331 0.121,-0.304 0.366,-0.71 1.576,-0.71 0.024,0 0.065,0.003 0.121,0.007 -0.352,0.393 -1.46,1.289 -1.46,2.01 0,0.477 0.523,1.194 1.213,1.194 -0.04,-0.155 -0.036,-0.296 -0.036,-0.402 0,-0.585 0.518,-1.268 0.955,-1.746 -0.013,0.143 -0.006,0.128 -0.006,0.294 0,1.38 0.125,2.015 1.001,2.015 0.43,0 0.727,-0.236 0.829,-0.307 -0.569,-0.523 -0.599,-0.936 -0.599,-1.71 0.002,-0.201 0.003,-0.398 0.006,-0.67 0.001,-0.178 -10e-4,-0.412 -0.03,-0.581 0.313,-0.043 0.441,-0.043 0.682,-0.043 0,0 1.245,-0.1 1.546,0.549 0.338,-0.31 0.829,-0.748 0.829,-1.23 0,-0.319 -0.152,-0.679 -0.794,-0.679 -0.243,0 -1.007,0.148 -1.646,0.148 0.172,-0.381 0.936,-1.499 1.599,-2.31 0.101,0.314 0.256,0.654 0.603,0.933 0.049,-0.522 0.355,-2.173 1.17,-3.138 0.095,0.652 0.223,1.321 0.223,2.731 0,3.432 -0.825,5.966 -2.576,6.45 0.228,0.395 0.71,0.753 1.21,0.753 0.641,0 0.989,-0.725 1.345,-1.409 0.185,0.504 0.697,1.741 1.21,1.741 0.513,0 1.026,-1.237 1.212,-1.741 0.354,0.684 0.704,1.409 1.345,1.409 0.499,0 0.981,-0.358 1.21,-0.753 -1.752,-0.484 -2.578,-3.018 -2.578,-6.45 0,-1.41 0.128,-2.079 0.223,-2.731 0.817,0.965 1.124,2.616 1.17,3.138 0.348,-0.279 0.506,-0.619 0.605,-0.933 0.661,0.811 1.426,1.929 1.598,2.31 -0.639,0 -1.404,-0.148 -1.646,-0.148 -0.64,0 -0.791,0.36 -0.791,0.679 0,0.482 0.49,0.92 0.828,1.23 0.299,-0.649 1.546,-0.549 1.546,-0.549 0.24,0 0.367,0 0.682,0.043 -0.03,0.169 -0.031,0.403 -0.03,0.581 0.003,0.272 0.003,0.469 0.005,0.67 0,0.774 -0.03,1.187 -0.599,1.71 0.102,0.071 0.398,0.307 0.828,0.307 0.877,0 1.003,-0.635 1.003,-2.015 0,-0.166 0.004,-0.151 -0.008,-0.294 0.438,0.478 0.955,1.161 0.955,1.746 0,0.106 0.006,0.247 -0.037,0.402 0.691,0 1.216,-0.717 1.216,-1.194 0,-0.721 -1.107,-1.617 -1.463,-2.01 0.058,-0.004 0.099,-0.007 0.121,-0.007 1.212,0 1.457,0.406 1.578,0.71 0.323,-0.264 0.602,-0.737 0.602,-1.331 0,-0.343 -0.074,-0.725 -0.729,-0.725 -0.626,0 -1.581,0.091 -2.24,0.21 -0.505,-0.706 -1.502,-2.072 -1.969,-3.129 0.188,0.033 0.457,0.055 0.871,0.055 0.207,0 0.43,-0.019 0.559,-0.076 -2.008,-1.738 -3.681,-3.989 -3.681,-6.538 0,-0.408 0.096,-0.817 0.234,-1.256 0.049,-0.01 0.103,-0.018 0.153,-0.026 l 5.069,8.111 c 1.517,2.399 2.708,2.358 4.5,2.358 -1.477,-1.132 -2.469,-2.595 -2.933,-3.337 l -4.757,-7.611 c 0.258,-0.082 0.512,-0.174 0.761,-0.269 l 4.207,6.737 c 1.518,2.399 2.708,2.358 4.502,2.358 -1.493,-1.148 -2.463,-2.585 -2.935,-3.337 l -4.087,-6.541 c 0.232,-0.127 0.458,-0.262 0.678,-0.402 l 3.35,5.361 c 1.518,2.401 2.706,2.358 4.5,2.358 -1.493,-1.143 -2.461,-2.585 -2.934,-3.337 L 29.198,13.201 C 29.4,13.02 29.593,12.83 29.772,12.636 l 2.437,3.897 c 1.517,2.399 2.706,2.358 4.5,2.358 -1.492,-1.145 -2.464,-2.59 -2.936,-3.34 l -2.826,-4.524 c 0.151,-0.282 0.28,-0.57 0.387,-0.865 z"
   style="fill-rule:nonzero"
   id="path5" /><rect
   x="46.261002"
   y="2.0700002"
   width="5.1900001"
   height="29.658001"
   style="fill-rule:nonzero"
   id="rect7" /><rect
   x="46.261002"
   y="31.728001"
   width="5.1900001"
   height="29.658001"
   style="fill:#ff0000;fill-rule:nonzero"
   id="rect9" /><rect
   x="46.261002"
   y="61.386002"
   width="5.1900001"
   height="29.658001"
   style="fill:#ffcc00;fill-rule:nonzero"
   id="rect11" /><g
   transform="matrix(1.47694,0,0,-1.47694,-30.9354,123.433)"
   id="g15">
            <path
   d="m 67.748,80.117 c 0,-0.286 -0.036,-0.536 -0.107,-0.75 -0.072,-0.214 -0.169,-0.399 -0.292,-0.553 -0.123,-0.155 -0.265,-0.28 -0.428,-0.375 -0.163,-0.095 -0.331,-0.167 -0.506,-0.214 v -0.024 c 0.214,-0.04 0.415,-0.115 0.601,-0.226 0.187,-0.111 0.349,-0.25 0.488,-0.417 0.139,-0.167 0.25,-0.363 0.333,-0.589 0.084,-0.226 0.125,-0.474 0.125,-0.744 0,-0.325 -0.055,-0.622 -0.166,-0.892 -0.112,-0.27 -0.284,-0.504 -0.518,-0.702 -0.234,-0.199 -0.53,-0.353 -0.887,-0.464 C 66.034,74.056 65.61,74 65.118,74 H 63.44 v 8.211 h 1.583 c 0.484,0 0.898,-0.05 1.243,-0.149 0.346,-0.099 0.629,-0.24 0.851,-0.422 0.222,-0.183 0.383,-0.403 0.482,-0.661 0.099,-0.257 0.149,-0.545 0.149,-0.862 z m -1.047,-0.036 c 0,0.381 -0.135,0.694 -0.405,0.94 -0.27,0.246 -0.694,0.369 -1.273,0.369 h -0.548 v -2.832 h 0.536 c 0.555,0 0.976,0.135 1.261,0.404 0.286,0.27 0.429,0.643 0.429,1.119 z m 0.154,-3.784 c 0,0.444 -0.144,0.795 -0.434,1.053 -0.289,0.258 -0.704,0.387 -1.244,0.387 h -0.702 v -2.88 h 0.643 c 0.611,0 1.053,0.121 1.327,0.363 0.274,0.242 0.41,0.601 0.41,1.077 z M 73.234,74 h -0.881 v 0.643 h -0.024 c -0.023,-0.048 -0.075,-0.117 -0.154,-0.209 -0.08,-0.091 -0.181,-0.178 -0.304,-0.261 -0.123,-0.084 -0.271,-0.157 -0.446,-0.221 -0.174,-0.063 -0.369,-0.095 -0.583,-0.095 -0.254,0 -0.482,0.038 -0.684,0.113 -0.203,0.076 -0.375,0.197 -0.518,0.363 -0.143,0.167 -0.252,0.383 -0.327,0.649 -0.076,0.266 -0.113,0.593 -0.113,0.982 v 3.748 h 0.964 v -3.677 c 0,-0.476 0.077,-0.815 0.232,-1.018 0.154,-0.202 0.394,-0.303 0.72,-0.303 0.277,0 0.511,0.069 0.702,0.208 0.19,0.139 0.341,0.276 0.452,0.411 v 4.379 h 0.964 z m 4.593,0 v 3.677 c 0,0.484 -0.081,0.831 -0.244,1.041 -0.162,0.211 -0.41,0.316 -0.743,0.316 -0.286,0 -0.524,-0.072 -0.714,-0.214 -0.191,-0.143 -0.342,-0.282 -0.453,-0.417 V 74 h -0.964 v 5.712 h 0.881 v -0.643 h 0.024 c 0.024,0.048 0.075,0.117 0.155,0.209 0.079,0.091 0.182,0.178 0.309,0.262 0.127,0.083 0.278,0.156 0.452,0.22 0.175,0.063 0.373,0.095 0.595,0.095 0.254,0 0.484,-0.038 0.69,-0.113 0.207,-0.076 0.381,-0.197 0.524,-0.363 0.143,-0.167 0.254,-0.383 0.333,-0.649 0.079,-0.265 0.119,-0.593 0.119,-0.981 V 74 Z m 2.142,2.773 c 0,0.579 0.076,1.063 0.226,1.452 0.151,0.388 0.345,0.702 0.583,0.94 0.238,0.238 0.508,0.406 0.81,0.505 0.301,0.099 0.603,0.149 0.904,0.149 0.183,0 0.341,-0.014 0.476,-0.042 0.135,-0.027 0.246,-0.061 0.333,-0.101 v 2.737 l 0.964,0.107 V 74 h -0.88 v 0.607 h -0.024 c -0.024,-0.048 -0.068,-0.113 -0.131,-0.196 -0.064,-0.084 -0.151,-0.167 -0.262,-0.25 -0.111,-0.084 -0.25,-0.155 -0.416,-0.215 -0.167,-0.059 -0.361,-0.089 -0.584,-0.089 -0.269,0 -0.525,0.054 -0.767,0.161 -0.242,0.107 -0.454,0.278 -0.637,0.512 -0.182,0.234 -0.327,0.535 -0.434,0.904 -0.107,0.369 -0.161,0.815 -0.161,1.339 z m 2.261,-2.059 c 0.151,0 0.286,0.02 0.405,0.06 0.119,0.039 0.222,0.089 0.309,0.148 0.087,0.06 0.161,0.121 0.22,0.185 0.06,0.063 0.105,0.119 0.137,0.166 v 3.523 c -0.087,0.055 -0.188,0.103 -0.303,0.143 -0.115,0.039 -0.26,0.059 -0.435,0.059 -0.222,0 -0.43,-0.038 -0.624,-0.113 -0.195,-0.075 -0.363,-0.2 -0.506,-0.375 -0.143,-0.174 -0.256,-0.4 -0.339,-0.678 -0.084,-0.278 -0.125,-0.619 -0.125,-1.024 0,-0.396 0.034,-0.727 0.101,-0.993 0.067,-0.266 0.161,-0.48 0.28,-0.643 0.119,-0.162 0.254,-0.279 0.404,-0.351 0.151,-0.071 0.31,-0.107 0.476,-0.107 z m 7.176,3.07 c 0,-0.246 -0.008,-0.458 -0.024,-0.636 -0.016,-0.179 -0.032,-0.336 -0.047,-0.47 h -2.916 c 0.032,-0.675 0.177,-1.171 0.434,-1.488 0.258,-0.317 0.629,-0.476 1.113,-0.476 0.167,0 0.317,0.02 0.452,0.06 0.135,0.039 0.252,0.087 0.351,0.142 0.099,0.056 0.183,0.111 0.25,0.167 0.068,0.055 0.117,0.099 0.149,0.131 l 0.357,-0.678 c -0.04,-0.04 -0.099,-0.098 -0.179,-0.173 -0.079,-0.075 -0.186,-0.151 -0.321,-0.226 -0.135,-0.075 -0.301,-0.141 -0.5,-0.196 -0.198,-0.056 -0.432,-0.084 -0.702,-0.084 -0.357,0 -0.68,0.06 -0.97,0.179 -0.289,0.119 -0.535,0.303 -0.737,0.553 -0.203,0.25 -0.359,0.567 -0.47,0.952 -0.112,0.385 -0.167,0.847 -0.167,1.386 0,0.508 0.057,0.947 0.173,1.315 0.114,0.369 0.271,0.673 0.47,0.911 0.198,0.238 0.428,0.414 0.69,0.529 0.262,0.115 0.543,0.173 0.845,0.173 0.547,0 0.975,-0.173 1.285,-0.518 0.309,-0.345 0.464,-0.863 0.464,-1.553 z m -1.809,1.285 c -0.341,0 -0.615,-0.142 -0.821,-0.428 -0.206,-0.286 -0.325,-0.698 -0.357,-1.238 h 2.082 c 0.008,0.04 0.014,0.098 0.018,0.173 0.004,0.075 0.006,0.157 0.006,0.244 0,0.397 -0.079,0.704 -0.238,0.922 -0.158,0.218 -0.388,0.327 -0.69,0.327 z m 5.557,-0.511 c -0.063,0.071 -0.178,0.168 -0.345,0.291 -0.166,0.123 -0.384,0.185 -0.654,0.185 -0.254,0 -0.448,-0.06 -0.583,-0.179 -0.135,-0.119 -0.203,-0.262 -0.203,-0.428 0,-0.214 0.062,-0.391 0.185,-0.53 0.123,-0.139 0.311,-0.287 0.565,-0.446 l 0.357,-0.214 c 0.389,-0.23 0.694,-0.478 0.916,-0.744 0.223,-0.266 0.334,-0.609 0.334,-1.029 0,-0.452 -0.157,-0.833 -0.47,-1.143 -0.314,-0.309 -0.764,-0.464 -1.351,-0.464 -0.23,0 -0.432,0.024 -0.607,0.072 -0.174,0.047 -0.327,0.103 -0.458,0.166 -0.131,0.064 -0.24,0.133 -0.327,0.208 -0.088,0.076 -0.159,0.145 -0.215,0.209 l 0.465,0.761 c 0.047,-0.047 0.105,-0.103 0.172,-0.166 0.068,-0.064 0.149,-0.125 0.244,-0.185 0.095,-0.059 0.202,-0.109 0.321,-0.148 0.119,-0.04 0.258,-0.06 0.417,-0.06 0.285,0 0.504,0.064 0.654,0.19 0.151,0.127 0.226,0.282 0.226,0.465 0,0.134 -0.017,0.251 -0.053,0.351 -0.036,0.099 -0.089,0.188 -0.161,0.267 -0.071,0.08 -0.158,0.155 -0.262,0.226 -0.103,0.072 -0.222,0.151 -0.357,0.238 l -0.357,0.227 c -0.357,0.23 -0.636,0.472 -0.838,0.725 -0.203,0.254 -0.304,0.58 -0.304,0.976 0,0.214 0.042,0.411 0.125,0.589 0.083,0.179 0.2,0.333 0.351,0.464 0.151,0.131 0.327,0.234 0.53,0.31 0.202,0.075 0.418,0.113 0.648,0.113 0.222,0 0.413,-0.022 0.571,-0.066 0.159,-0.043 0.296,-0.099 0.411,-0.166 0.115,-0.068 0.21,-0.135 0.286,-0.202 0.075,-0.068 0.136,-0.125 0.184,-0.173 z M 97.855,74 v 3.677 c 0,0.468 -0.068,0.805 -0.202,1.012 -0.135,0.206 -0.353,0.309 -0.655,0.309 -0.159,0 -0.299,-0.02 -0.422,-0.059 -0.123,-0.04 -0.232,-0.09 -0.328,-0.149 -0.095,-0.06 -0.178,-0.125 -0.249,-0.197 -0.072,-0.071 -0.131,-0.134 -0.179,-0.19 V 74 h -0.964 v 5.712 h 0.881 v -0.643 h 0.023 c 0.04,0.064 0.1,0.141 0.179,0.232 0.079,0.092 0.179,0.179 0.298,0.262 0.119,0.084 0.257,0.153 0.416,0.209 0.159,0.055 0.337,0.083 0.536,0.083 0.65,0 1.11,-0.254 1.38,-0.762 0.055,0.08 0.131,0.165 0.226,0.256 0.095,0.091 0.206,0.175 0.333,0.25 0.127,0.075 0.27,0.137 0.429,0.184 0.158,0.048 0.333,0.072 0.523,0.072 1.159,0 1.738,-0.674 1.738,-2.023 V 74 h -0.964 v 3.677 c 0,0.468 -0.084,0.805 -0.25,1.012 -0.167,0.206 -0.413,0.309 -0.738,0.309 -0.27,0 -0.494,-0.065 -0.672,-0.196 -0.179,-0.131 -0.32,-0.256 -0.423,-0.375 0.016,-0.087 0.028,-0.181 0.036,-0.28 0.008,-0.099 0.012,-0.204 0.012,-0.315 V 74 Z m 6.366,0 h -0.964 v 5.712 h 0.964 z m -0.476,7.092 c -0.198,0 -0.357,0.064 -0.476,0.191 -0.119,0.127 -0.178,0.293 -0.178,0.5 0,0.198 0.059,0.361 0.178,0.488 0.119,0.126 0.278,0.19 0.476,0.19 0.191,0 0.346,-0.064 0.465,-0.19 0.119,-0.127 0.178,-0.29 0.178,-0.488 0,-0.207 -0.059,-0.373 -0.178,-0.5 -0.119,-0.127 -0.274,-0.191 -0.465,-0.191 z M 108.815,74 v 3.677 c 0,0.484 -0.081,0.831 -0.244,1.041 -0.163,0.211 -0.411,0.316 -0.744,0.316 -0.285,0 -0.523,-0.072 -0.714,-0.214 -0.19,-0.143 -0.341,-0.282 -0.452,-0.417 V 74 h -0.964 v 5.712 h 0.881 v -0.643 h 0.023 c 0.024,0.048 0.076,0.117 0.155,0.209 0.079,0.091 0.183,0.178 0.31,0.262 0.126,0.083 0.277,0.156 0.452,0.22 0.174,0.063 0.373,0.095 0.595,0.095 0.254,0 0.484,-0.038 0.69,-0.113 0.206,-0.076 0.381,-0.197 0.524,-0.363 0.142,-0.167 0.253,-0.383 0.333,-0.649 0.079,-0.265 0.119,-0.593 0.119,-0.981 V 74 Z m 3.368,0 h -0.964 v 5.712 h 0.964 z m -0.476,7.092 c -0.199,0 -0.357,0.064 -0.476,0.191 -0.119,0.127 -0.179,0.293 -0.179,0.5 0,0.198 0.06,0.361 0.179,0.488 0.119,0.126 0.277,0.19 0.476,0.19 0.19,0 0.345,-0.064 0.464,-0.19 0.119,-0.127 0.178,-0.29 0.178,-0.488 0,-0.207 -0.059,-0.373 -0.178,-0.5 -0.119,-0.127 -0.274,-0.191 -0.464,-0.191 z m 4.414,-2.534 c -0.063,0.071 -0.178,0.168 -0.345,0.291 -0.166,0.123 -0.385,0.185 -0.654,0.185 -0.254,0 -0.448,-0.06 -0.583,-0.179 -0.135,-0.119 -0.203,-0.262 -0.203,-0.428 0,-0.214 0.062,-0.391 0.185,-0.53 0.123,-0.139 0.311,-0.287 0.565,-0.446 l 0.357,-0.214 c 0.389,-0.23 0.694,-0.478 0.916,-0.744 0.223,-0.266 0.334,-0.609 0.334,-1.029 0,-0.452 -0.157,-0.833 -0.47,-1.143 -0.314,-0.309 -0.764,-0.464 -1.351,-0.464 -0.23,0 -0.432,0.024 -0.607,0.072 -0.174,0.047 -0.327,0.103 -0.458,0.166 -0.131,0.064 -0.24,0.133 -0.327,0.208 -0.088,0.076 -0.159,0.145 -0.215,0.209 l 0.465,0.761 c 0.047,-0.047 0.105,-0.103 0.172,-0.166 0.068,-0.064 0.149,-0.125 0.244,-0.185 0.095,-0.059 0.202,-0.109 0.321,-0.148 0.119,-0.04 0.258,-0.06 0.417,-0.06 0.285,0 0.504,0.064 0.654,0.19 0.151,0.127 0.226,0.282 0.226,0.465 0,0.134 -0.017,0.251 -0.053,0.351 -0.036,0.099 -0.089,0.188 -0.161,0.267 -0.071,0.08 -0.159,0.155 -0.262,0.226 -0.103,0.072 -0.222,0.151 -0.357,0.238 l -0.357,0.227 c -0.357,0.23 -0.636,0.472 -0.838,0.725 -0.203,0.254 -0.304,0.58 -0.304,0.976 0,0.214 0.042,0.411 0.125,0.589 0.083,0.179 0.2,0.333 0.351,0.464 0.151,0.131 0.327,0.234 0.53,0.31 0.202,0.075 0.418,0.113 0.648,0.113 0.222,0 0.413,-0.022 0.571,-0.066 0.159,-0.043 0.296,-0.099 0.411,-0.166 0.115,-0.068 0.21,-0.135 0.286,-0.202 0.075,-0.068 0.136,-0.125 0.184,-0.173 z m 4.142,0.369 h -1.25 v -3.166 c 0,-0.404 0.052,-0.68 0.155,-0.827 0.103,-0.147 0.278,-0.22 0.523,-0.22 0.143,0 0.266,0.02 0.369,0.06 0.103,0.039 0.179,0.075 0.226,0.107 l 0.131,-0.774 c -0.039,-0.032 -0.135,-0.081 -0.285,-0.149 -0.151,-0.067 -0.353,-0.101 -0.607,-0.101 -0.492,0 -0.861,0.137 -1.107,0.411 -0.246,0.273 -0.369,0.728 -0.369,1.362 v 3.297 h -0.69 v 0.642 l 0.69,0.143 0.107,1.595 h 0.857 v -1.595 h 1.369 z m 4.676,-1.143 c 0,-0.246 -0.008,-0.458 -0.024,-0.636 -0.015,-0.179 -0.031,-0.336 -0.047,-0.47 h -2.916 c 0.032,-0.675 0.177,-1.171 0.435,-1.488 0.258,-0.317 0.629,-0.476 1.112,-0.476 0.167,0 0.318,0.02 0.453,0.06 0.135,0.039 0.252,0.087 0.351,0.142 0.099,0.056 0.182,0.111 0.25,0.167 0.067,0.055 0.117,0.099 0.148,0.131 l 0.357,-0.678 c -0.039,-0.04 -0.099,-0.098 -0.178,-0.173 -0.079,-0.075 -0.187,-0.151 -0.322,-0.226 -0.134,-0.075 -0.301,-0.141 -0.499,-0.196 -0.199,-0.056 -0.433,-0.084 -0.702,-0.084 -0.357,0 -0.681,0.06 -0.97,0.179 -0.29,0.119 -0.536,0.303 -0.738,0.553 -0.202,0.25 -0.359,0.567 -0.47,0.952 -0.111,0.385 -0.167,0.847 -0.167,1.386 0,0.508 0.058,0.947 0.173,1.315 0.115,0.369 0.272,0.673 0.47,0.911 0.198,0.238 0.428,0.414 0.69,0.529 0.262,0.115 0.543,0.173 0.845,0.173 0.547,0 0.976,-0.173 1.285,-0.518 0.31,-0.345 0.464,-0.863 0.464,-1.553 z m -1.808,1.285 c -0.342,0 -0.615,-0.142 -0.822,-0.428 -0.206,-0.286 -0.325,-0.698 -0.357,-1.238 h 2.083 c 0.008,0.04 0.014,0.098 0.018,0.173 0.004,0.075 0.006,0.157 0.006,0.244 0,0.397 -0.08,0.704 -0.238,0.922 -0.159,0.218 -0.389,0.327 -0.69,0.327 z m 5.604,-0.202 c -0.023,0.016 -0.075,0.036 -0.154,0.06 -0.08,0.023 -0.187,0.035 -0.322,0.035 -0.301,0 -0.537,-0.081 -0.708,-0.244 -0.17,-0.162 -0.291,-0.339 -0.363,-0.529 V 74 h -0.963 v 5.712 h 0.88 v -0.773 h 0.024 c 0.04,0.111 0.091,0.22 0.155,0.327 0.063,0.107 0.142,0.202 0.238,0.285 0.095,0.084 0.208,0.149 0.339,0.197 0.131,0.047 0.287,0.071 0.47,0.071 0.135,0 0.244,-0.012 0.327,-0.036 0.083,-0.023 0.149,-0.043 0.196,-0.059 z M 130.651,74 h -0.964 v 5.712 h 0.964 z m -0.476,7.092 c -0.198,0 -0.357,0.064 -0.476,0.191 -0.119,0.127 -0.178,0.293 -0.178,0.5 0,0.198 0.059,0.361 0.178,0.488 0.119,0.126 0.278,0.19 0.476,0.19 0.191,0 0.345,-0.064 0.464,-0.19 0.119,-0.127 0.179,-0.29 0.179,-0.488 0,-0.207 -0.06,-0.373 -0.179,-0.5 -0.119,-0.127 -0.273,-0.191 -0.464,-0.191 z M 136.125,74 h -0.88 v 0.643 h -0.024 c -0.024,-0.048 -0.075,-0.117 -0.155,-0.209 -0.079,-0.091 -0.18,-0.178 -0.303,-0.261 -0.123,-0.084 -0.272,-0.157 -0.446,-0.221 -0.175,-0.063 -0.369,-0.095 -0.584,-0.095 -0.253,0 -0.481,0.038 -0.684,0.113 -0.202,0.076 -0.375,0.197 -0.517,0.363 -0.143,0.167 -0.252,0.383 -0.328,0.649 -0.075,0.266 -0.113,0.593 -0.113,0.982 v 3.748 h 0.964 v -3.677 c 0,-0.476 0.078,-0.815 0.232,-1.018 0.155,-0.202 0.395,-0.303 0.72,-0.303 0.278,0 0.512,0.069 0.702,0.208 0.191,0.139 0.341,0.276 0.452,0.411 v 4.379 h 0.964 z m 4.475,0 v 3.677 c 0,0.468 -0.068,0.805 -0.203,1.012 -0.134,0.206 -0.353,0.309 -0.654,0.309 -0.159,0 -0.3,-0.02 -0.422,-0.059 -0.123,-0.04 -0.233,-0.09 -0.328,-0.149 -0.095,-0.06 -0.178,-0.125 -0.25,-0.197 -0.071,-0.071 -0.131,-0.134 -0.178,-0.19 V 74 h -0.964 v 5.712 h 0.881 v -0.643 h 0.023 c 0.04,0.064 0.1,0.141 0.179,0.232 0.079,0.092 0.178,0.179 0.297,0.262 0.119,0.084 0.258,0.153 0.417,0.209 0.159,0.055 0.337,0.083 0.535,0.083 0.651,0 1.111,-0.254 1.381,-0.762 0.055,0.08 0.131,0.165 0.226,0.256 0.095,0.091 0.206,0.175 0.333,0.25 0.127,0.075 0.27,0.137 0.428,0.184 0.159,0.048 0.334,0.072 0.524,0.072 1.158,0 1.737,-0.674 1.737,-2.023 V 74 h -0.963 v 3.677 c 0,0.468 -0.084,0.805 -0.25,1.012 -0.167,0.206 -0.413,0.309 -0.738,0.309 -0.27,0 -0.494,-0.065 -0.672,-0.196 -0.179,-0.131 -0.32,-0.256 -0.423,-0.375 0.016,-0.087 0.028,-0.181 0.036,-0.28 0.008,-0.099 0.012,-0.204 0.012,-0.315 V 74 Z M 62.976,64.773 c 0,0.579 0.075,1.063 0.226,1.452 0.151,0.388 0.345,0.702 0.583,0.94 0.238,0.238 0.508,0.406 0.809,0.505 0.302,0.099 0.603,0.149 0.905,0.149 0.182,0 0.341,-0.014 0.476,-0.042 0.135,-0.027 0.246,-0.061 0.333,-0.101 v 2.737 l 0.964,0.107 V 62 h -0.881 v 0.607 h -0.023 c -0.024,-0.048 -0.068,-0.113 -0.131,-0.196 -0.064,-0.084 -0.151,-0.167 -0.262,-0.25 -0.111,-0.084 -0.25,-0.155 -0.417,-0.215 -0.166,-0.059 -0.361,-0.089 -0.583,-0.089 -0.269,0 -0.525,0.054 -0.767,0.161 -0.242,0.107 -0.454,0.277 -0.637,0.512 -0.182,0.234 -0.327,0.535 -0.434,0.904 -0.107,0.369 -0.161,0.815 -0.161,1.339 z m 2.261,-2.059 c 0.151,0 0.286,0.02 0.405,0.06 0.119,0.039 0.222,0.089 0.309,0.148 0.087,0.06 0.161,0.121 0.22,0.185 0.06,0.063 0.105,0.119 0.137,0.166 v 3.523 c -0.087,0.055 -0.188,0.103 -0.303,0.143 -0.115,0.039 -0.26,0.059 -0.435,0.059 -0.222,0 -0.43,-0.038 -0.625,-0.113 -0.194,-0.075 -0.363,-0.2 -0.505,-0.375 -0.143,-0.174 -0.256,-0.4 -0.339,-0.678 -0.084,-0.278 -0.125,-0.619 -0.125,-1.024 0,-0.396 0.033,-0.727 0.101,-0.993 0.067,-0.266 0.16,-0.48 0.279,-0.643 0.119,-0.162 0.254,-0.279 0.405,-0.351 0.151,-0.071 0.309,-0.107 0.476,-0.107 z m 7.176,3.07 c 0,-0.246 -0.008,-0.458 -0.024,-0.636 -0.016,-0.179 -0.032,-0.336 -0.048,-0.471 h -2.915 c 0.032,-0.674 0.176,-1.17 0.434,-1.487 0.258,-0.317 0.629,-0.476 1.113,-0.476 0.166,0 0.317,0.02 0.452,0.06 0.135,0.039 0.252,0.087 0.351,0.142 0.099,0.056 0.183,0.111 0.25,0.167 0.067,0.055 0.117,0.099 0.149,0.131 l 0.357,-0.678 c -0.04,-0.04 -0.099,-0.098 -0.179,-0.173 -0.079,-0.075 -0.186,-0.151 -0.321,-0.226 -0.135,-0.075 -0.302,-0.141 -0.5,-0.196 -0.198,-0.056 -0.432,-0.084 -0.702,-0.084 -0.357,0 -0.68,0.06 -0.97,0.179 -0.289,0.119 -0.535,0.303 -0.738,0.553 -0.202,0.25 -0.359,0.567 -0.47,0.952 -0.111,0.385 -0.166,0.847 -0.166,1.386 0,0.508 0.057,0.947 0.172,1.315 0.115,0.369 0.272,0.673 0.47,0.911 0.199,0.238 0.429,0.414 0.691,0.529 0.261,0.115 0.543,0.173 0.844,0.173 0.548,0 0.976,-0.173 1.286,-0.518 0.309,-0.345 0.464,-0.863 0.464,-1.553 z m -1.809,1.285 c -0.341,0 -0.615,-0.142 -0.821,-0.428 -0.206,-0.286 -0.325,-0.698 -0.357,-1.238 h 2.082 c 0.008,0.04 0.014,0.098 0.018,0.173 0.004,0.075 0.006,0.157 0.006,0.244 0,0.397 -0.079,0.704 -0.238,0.922 -0.159,0.218 -0.389,0.327 -0.69,0.327 z m 5.557,-0.511 c -0.063,0.071 -0.178,0.168 -0.345,0.291 -0.166,0.123 -0.385,0.185 -0.654,0.185 -0.254,0 -0.449,-0.06 -0.583,-0.179 -0.135,-0.119 -0.203,-0.262 -0.203,-0.428 0,-0.214 0.062,-0.391 0.185,-0.53 0.123,-0.139 0.311,-0.287 0.565,-0.446 l 0.357,-0.214 c 0.389,-0.23 0.694,-0.478 0.916,-0.744 0.222,-0.266 0.333,-0.609 0.333,-1.029 0,-0.452 -0.156,-0.833 -0.47,-1.143 -0.313,-0.309 -0.763,-0.464 -1.35,-0.464 -0.23,0 -0.433,0.024 -0.607,0.072 -0.175,0.047 -0.327,0.103 -0.458,0.166 -0.131,0.064 -0.24,0.133 -0.328,0.208 -0.087,0.076 -0.158,0.145 -0.214,0.209 l 0.464,0.761 c 0.048,-0.047 0.105,-0.103 0.173,-0.166 0.067,-0.064 0.149,-0.125 0.244,-0.185 0.095,-0.059 0.202,-0.109 0.321,-0.148 0.119,-0.04 0.258,-0.06 0.417,-0.06 0.285,0 0.503,0.064 0.654,0.19 0.151,0.127 0.226,0.282 0.226,0.464 0,0.135 -0.018,0.252 -0.053,0.352 -0.036,0.099 -0.09,0.188 -0.161,0.267 -0.071,0.08 -0.159,0.155 -0.262,0.226 -0.103,0.072 -0.222,0.151 -0.357,0.238 l -0.357,0.226 c -0.357,0.231 -0.636,0.473 -0.839,0.726 -0.202,0.254 -0.303,0.58 -0.303,0.976 0,0.214 0.041,0.411 0.125,0.589 0.083,0.179 0.2,0.333 0.351,0.464 0.151,0.131 0.327,0.234 0.529,0.31 0.203,0.075 0.419,0.113 0.649,0.113 0.222,0 0.412,-0.022 0.571,-0.066 0.159,-0.043 0.296,-0.099 0.411,-0.166 0.115,-0.068 0.21,-0.135 0.285,-0.202 0.076,-0.068 0.137,-0.125 0.185,-0.173 z m 4.843,2.939 h -0.868 v 0.714 h 2.773 V 69.497 H 82.04 V 62.75 h 0.892 V 62 h -2.82 v 0.75 h 0.892 z M 87.193,62 v 3.677 c 0,0.484 -0.082,0.831 -0.244,1.041 -0.163,0.211 -0.411,0.316 -0.744,0.316 -0.286,0 -0.524,-0.072 -0.714,-0.214 C 85.3,66.677 85.15,66.538 85.039,66.403 V 62 h -0.964 v 5.712 h 0.88 v -0.643 h 0.024 c 0.024,0.048 0.076,0.117 0.155,0.209 0.079,0.091 0.182,0.178 0.309,0.262 0.127,0.083 0.278,0.156 0.452,0.22 0.175,0.063 0.373,0.095 0.595,0.095 0.254,0 0.484,-0.038 0.691,-0.113 0.206,-0.076 0.38,-0.197 0.523,-0.363 0.143,-0.167 0.254,-0.383 0.333,-0.649 0.08,-0.265 0.119,-0.593 0.119,-0.981 V 62 Z m 5.521,0 v 3.677 c 0,0.484 -0.081,0.831 -0.244,1.041 -0.162,0.211 -0.41,0.316 -0.744,0.316 -0.285,0 -0.523,-0.072 -0.714,-0.214 -0.19,-0.143 -0.341,-0.282 -0.452,-0.417 V 62 h -0.964 v 5.712 h 0.881 v -0.643 h 0.024 c 0.024,0.048 0.075,0.117 0.154,0.209 0.08,0.091 0.183,0.178 0.31,0.262 0.127,0.083 0.278,0.156 0.452,0.22 0.175,0.063 0.373,0.095 0.595,0.095 0.254,0 0.484,-0.038 0.69,-0.113 0.207,-0.076 0.381,-0.197 0.524,-0.363 0.143,-0.167 0.254,-0.383 0.333,-0.649 0.079,-0.265 0.119,-0.593 0.119,-0.981 V 62 Z m 6.069,3.784 c 0,-0.246 -0.008,-0.458 -0.024,-0.636 -0.016,-0.179 -0.031,-0.336 -0.047,-0.471 h -2.916 c 0.032,-0.674 0.177,-1.17 0.435,-1.487 0.257,-0.317 0.628,-0.476 1.112,-0.476 0.167,0 0.318,0.02 0.452,0.06 0.135,0.039 0.252,0.087 0.352,0.142 0.099,0.056 0.182,0.111 0.249,0.167 0.068,0.055 0.117,0.099 0.149,0.131 l 0.357,-0.678 c -0.04,-0.04 -0.099,-0.098 -0.178,-0.173 -0.08,-0.075 -0.187,-0.151 -0.322,-0.226 -0.135,-0.075 -0.301,-0.141 -0.499,-0.196 -0.199,-0.056 -0.433,-0.084 -0.703,-0.084 -0.357,0 -0.68,0.06 -0.969,0.179 -0.29,0.119 -0.536,0.303 -0.738,0.553 -0.203,0.25 -0.359,0.567 -0.47,0.952 -0.111,0.385 -0.167,0.847 -0.167,1.386 0,0.508 0.058,0.947 0.173,1.315 0.115,0.369 0.271,0.673 0.47,0.911 0.198,0.238 0.428,0.414 0.69,0.529 0.262,0.115 0.543,0.173 0.845,0.173 0.547,0 0.976,-0.173 1.285,-0.518 0.309,-0.345 0.464,-0.863 0.464,-1.553 z m -1.809,1.285 c -0.341,0 -0.614,-0.142 -0.821,-0.428 -0.206,-0.286 -0.325,-0.698 -0.357,-1.238 h 2.083 c 0.008,0.04 0.014,0.098 0.018,0.173 0.003,0.075 0.006,0.157 0.006,0.244 0,0.397 -0.08,0.704 -0.238,0.922 -0.159,0.218 -0.389,0.327 -0.691,0.327 z m 5.605,-0.202 c -0.024,0.016 -0.075,0.036 -0.155,0.06 -0.079,0.023 -0.186,0.035 -0.321,0.035 -0.301,0 -0.537,-0.081 -0.708,-0.244 -0.17,-0.162 -0.291,-0.339 -0.363,-0.529 V 62 h -0.964 v 5.712 h 0.881 v -0.773 h 0.024 c 0.039,0.111 0.091,0.22 0.154,0.327 0.064,0.107 0.143,0.202 0.238,0.285 0.096,0.084 0.209,0.149 0.34,0.197 0.131,0.047 0.287,0.071 0.47,0.071 0.135,0 0.244,-0.012 0.327,-0.036 0.083,-0.023 0.149,-0.043 0.196,-0.059 z M 106.649,62 v 3.677 c 0,0.484 -0.081,0.831 -0.244,1.041 -0.163,0.211 -0.41,0.316 -0.744,0.316 -0.285,0 -0.523,-0.072 -0.714,-0.214 -0.19,-0.143 -0.341,-0.282 -0.452,-0.417 V 62 h -0.964 v 5.712 h 0.881 v -0.643 h 0.024 c 0.023,0.048 0.075,0.117 0.154,0.209 0.08,0.091 0.183,0.178 0.31,0.262 0.127,0.083 0.277,0.156 0.452,0.22 0.174,0.063 0.373,0.095 0.595,0.095 0.254,0 0.484,-0.038 0.69,-0.113 0.206,-0.076 0.381,-0.197 0.524,-0.363 0.143,-0.167 0.254,-0.383 0.333,-0.649 0.079,-0.265 0.119,-0.593 0.119,-0.981 V 62 Z M 67.236,50 h -0.88 v 0.643 h -0.024 c -0.024,-0.048 -0.076,-0.117 -0.155,-0.209 -0.079,-0.091 -0.18,-0.178 -0.303,-0.261 -0.123,-0.084 -0.272,-0.157 -0.447,-0.221 -0.174,-0.063 -0.369,-0.095 -0.583,-0.095 -0.254,0 -0.482,0.038 -0.684,0.113 -0.202,0.076 -0.375,0.197 -0.518,0.363 -0.142,0.167 -0.251,0.383 -0.327,0.649 -0.075,0.266 -0.113,0.593 -0.113,0.982 v 3.748 h 0.964 v -3.677 c 0,-0.476 0.077,-0.815 0.232,-1.018 0.155,-0.202 0.395,-0.303 0.72,-0.303 0.278,0 0.512,0.069 0.702,0.208 0.19,0.139 0.341,0.276 0.452,0.411 v 4.379 h 0.964 z m 4.594,0 v 3.677 c 0,0.484 -0.082,0.831 -0.244,1.041 -0.163,0.211 -0.411,0.316 -0.744,0.316 -0.286,0 -0.524,-0.072 -0.714,-0.214 -0.19,-0.143 -0.341,-0.282 -0.452,-0.417 V 50 h -0.964 v 5.712 h 0.88 v -0.643 h 0.024 c 0.024,0.048 0.076,0.117 0.155,0.209 0.079,0.091 0.182,0.178 0.309,0.261 0.127,0.084 0.278,0.157 0.453,0.221 0.174,0.063 0.372,0.095 0.595,0.095 0.253,0 0.483,-0.038 0.69,-0.113 0.206,-0.076 0.381,-0.197 0.523,-0.363 0.143,-0.167 0.254,-0.383 0.334,-0.649 0.079,-0.265 0.119,-0.593 0.119,-0.981 V 50 Z m 2.142,2.773 c 0,0.579 0.075,1.063 0.226,1.452 0.15,0.388 0.345,0.702 0.583,0.94 0.238,0.238 0.508,0.406 0.809,0.505 0.301,0.1 0.603,0.149 0.904,0.149 0.183,0 0.342,-0.014 0.476,-0.042 0.135,-0.027 0.246,-0.061 0.334,-0.101 v 2.737 l 0.964,0.107 V 50 h -0.881 v 0.607 h -0.024 c -0.024,-0.048 -0.067,-0.113 -0.131,-0.196 -0.063,-0.084 -0.15,-0.167 -0.262,-0.25 -0.111,-0.084 -0.249,-0.155 -0.416,-0.215 -0.167,-0.059 -0.361,-0.089 -0.583,-0.089 -0.27,0 -0.526,0.054 -0.768,0.161 -0.242,0.107 -0.454,0.277 -0.636,0.512 -0.183,0.234 -0.328,0.535 -0.435,0.904 -0.107,0.369 -0.16,0.815 -0.16,1.339 z m 2.261,-2.059 c 0.15,0 0.285,0.02 0.404,0.06 0.119,0.039 0.222,0.089 0.31,0.148 0.087,0.06 0.16,0.121 0.22,0.185 0.059,0.063 0.105,0.119 0.137,0.166 v 3.523 c -0.088,0.055 -0.189,0.103 -0.304,0.143 -0.115,0.039 -0.26,0.059 -0.434,0.059 -0.222,0 -0.431,-0.038 -0.625,-0.113 -0.194,-0.075 -0.363,-0.2 -0.506,-0.375 -0.142,-0.174 -0.255,-0.401 -0.339,-0.678 -0.083,-0.278 -0.125,-0.619 -0.125,-1.024 0,-0.396 0.034,-0.727 0.101,-0.993 0.068,-0.266 0.161,-0.48 0.28,-0.643 0.119,-0.162 0.254,-0.279 0.405,-0.351 0.15,-0.071 0.309,-0.107 0.476,-0.107 z m 8.437,4.213 H 83.504 V 50 H 82.54 v 4.927 h -0.691 v 0.642 L 82.54,55.7 v 1.143 c 0,0.309 0.043,0.575 0.131,0.797 0.087,0.222 0.202,0.404 0.345,0.547 0.142,0.143 0.309,0.246 0.499,0.31 0.191,0.063 0.393,0.095 0.607,0.095 0.207,0 0.381,-0.028 0.524,-0.083 0.143,-0.056 0.238,-0.1 0.286,-0.131 L 84.729,57.58 c -0.047,0.032 -0.115,0.066 -0.202,0.102 -0.087,0.035 -0.194,0.053 -0.321,0.053 -0.23,0 -0.405,-0.071 -0.524,-0.214 -0.119,-0.143 -0.178,-0.405 -0.178,-0.786 v -1.023 h 1.285 z M 89.62,50 h -0.88 v 0.643 h -0.024 c -0.024,-0.048 -0.076,-0.117 -0.155,-0.209 -0.079,-0.091 -0.18,-0.178 -0.303,-0.261 -0.123,-0.084 -0.272,-0.157 -0.447,-0.221 -0.174,-0.063 -0.369,-0.095 -0.583,-0.095 -0.254,0 -0.482,0.038 -0.684,0.113 -0.202,0.076 -0.375,0.197 -0.518,0.363 -0.142,0.167 -0.252,0.383 -0.327,0.649 -0.075,0.266 -0.113,0.593 -0.113,0.982 v 3.748 h 0.964 v -3.677 c 0,-0.476 0.077,-0.815 0.232,-1.018 0.155,-0.202 0.395,-0.303 0.72,-0.303 0.278,0 0.512,0.069 0.702,0.208 0.19,0.139 0.341,0.276 0.452,0.411 v 4.379 h 0.964 z m -2.368,7.354 c 0,-0.182 -0.055,-0.329 -0.167,-0.44 -0.111,-0.111 -0.245,-0.167 -0.404,-0.167 -0.159,0 -0.294,0.056 -0.405,0.167 -0.111,0.111 -0.166,0.258 -0.166,0.44 0,0.183 0.055,0.329 0.166,0.441 0.111,0.111 0.246,0.166 0.405,0.166 0.159,0 0.293,-0.055 0.404,-0.166 0.112,-0.112 0.167,-0.258 0.167,-0.441 z m 1.833,0 c 0,-0.182 -0.056,-0.329 -0.167,-0.44 -0.111,-0.111 -0.246,-0.167 -0.405,-0.167 -0.158,0 -0.293,0.056 -0.404,0.167 -0.111,0.111 -0.167,0.258 -0.167,0.44 0,0.183 0.056,0.329 0.167,0.441 0.111,0.111 0.246,0.166 0.404,0.166 0.159,0 0.294,-0.055 0.405,-0.166 0.111,-0.112 0.167,-0.258 0.167,-0.441 z m 4.522,-2.487 c -0.024,0.016 -0.076,0.036 -0.155,0.06 -0.079,0.023 -0.186,0.035 -0.321,0.035 -0.302,0 -0.538,-0.081 -0.708,-0.244 -0.171,-0.162 -0.292,-0.339 -0.363,-0.529 V 50 h -0.964 v 5.712 h 0.88 V 54.939 H 92 c 0.04,0.111 0.091,0.22 0.155,0.327 0.063,0.107 0.143,0.202 0.238,0.285 0.095,0.084 0.208,0.149 0.339,0.197 0.131,0.047 0.287,0.071 0.47,0.071 0.135,0 0.244,-0.012 0.327,-0.036 0.084,-0.023 0.149,-0.043 0.197,-0.059 z M 102.472,50 h -1.035 v 3.737 H 98.045 V 50 H 97.01 v 8.211 h 1.035 v -3.653 h 3.392 v 3.653 h 1.035 z m 5.296,3.784 c 0,-0.246 -0.008,-0.458 -0.024,-0.636 -0.016,-0.179 -0.032,-0.336 -0.048,-0.47 h -2.915 c 0.031,-0.675 0.176,-1.171 0.434,-1.488 0.258,-0.317 0.629,-0.476 1.113,-0.476 0.166,0 0.317,0.02 0.452,0.06 0.135,0.039 0.252,0.087 0.351,0.142 0.099,0.056 0.182,0.111 0.25,0.167 0.067,0.055 0.117,0.099 0.149,0.131 l 0.357,-0.678 c -0.04,-0.04 -0.1,-0.098 -0.179,-0.173 -0.079,-0.075 -0.186,-0.151 -0.321,-0.226 -0.135,-0.075 -0.302,-0.141 -0.5,-0.196 -0.198,-0.056 -0.432,-0.084 -0.702,-0.084 -0.357,0 -0.68,0.06 -0.97,0.179 -0.289,0.119 -0.535,0.303 -0.738,0.553 -0.202,0.25 -0.359,0.567 -0.47,0.952 -0.111,0.385 -0.166,0.847 -0.166,1.386 0,0.508 0.057,0.947 0.172,1.315 0.115,0.369 0.272,0.673 0.47,0.911 0.199,0.238 0.429,0.414 0.69,0.529 0.262,0.115 0.544,0.173 0.845,0.173 0.548,0 0.976,-0.173 1.286,-0.518 0.309,-0.345 0.464,-0.863 0.464,-1.553 z m -1.809,1.285 c -0.341,0 -0.615,-0.142 -0.821,-0.428 -0.207,-0.286 -0.326,-0.698 -0.357,-1.238 h 2.082 c 0.008,0.04 0.014,0.098 0.018,0.173 0.004,0.075 0.006,0.157 0.006,0.244 0,0.397 -0.079,0.704 -0.238,0.922 -0.159,0.218 -0.389,0.327 -0.69,0.327 z M 110.017,50 h -0.964 v 5.712 h 0.964 z m -0.476,7.092 c -0.199,0 -0.357,0.064 -0.476,0.191 -0.119,0.127 -0.179,0.293 -0.179,0.5 0,0.198 0.06,0.361 0.179,0.488 0.119,0.126 0.277,0.19 0.476,0.19 0.19,0 0.345,-0.064 0.464,-0.19 0.119,-0.127 0.178,-0.29 0.178,-0.488 0,-0.207 -0.059,-0.373 -0.178,-0.5 -0.119,-0.127 -0.274,-0.191 -0.464,-0.191 z M 114.491,50 v 3.677 c 0,0.468 -0.067,0.805 -0.202,1.012 -0.135,0.206 -0.353,0.309 -0.655,0.309 -0.158,0 -0.299,-0.02 -0.422,-0.059 -0.123,-0.04 -0.232,-0.09 -0.327,-0.149 -0.096,-0.06 -0.179,-0.125 -0.25,-0.197 -0.072,-0.071 -0.131,-0.134 -0.179,-0.19 V 50 h -0.964 v 5.712 h 0.881 v -0.643 h 0.024 c 0.039,0.064 0.099,0.141 0.178,0.232 0.08,0.092 0.179,0.179 0.298,0.262 0.119,0.084 0.258,0.153 0.416,0.209 0.159,0.055 0.337,0.083 0.536,0.083 0.65,0 1.11,-0.254 1.38,-0.762 0.056,0.08 0.131,0.165 0.226,0.256 0.095,0.091 0.207,0.175 0.333,0.25 0.127,0.075 0.27,0.137 0.429,0.184 0.159,0.048 0.333,0.072 0.523,0.072 1.159,0 1.738,-0.674 1.738,-2.023 V 50 h -0.964 v 3.677 c 0,0.468 -0.083,0.805 -0.25,1.012 -0.167,0.206 -0.412,0.309 -0.738,0.309 -0.269,0 -0.494,-0.066 -0.672,-0.196 -0.179,-0.131 -0.32,-0.256 -0.423,-0.375 0.016,-0.087 0.028,-0.181 0.036,-0.28 0.008,-0.099 0.012,-0.204 0.012,-0.315 V 50 Z m 5.07,1.452 c 0,0.333 0.063,0.611 0.19,0.833 0.127,0.222 0.297,0.402 0.512,0.541 0.214,0.139 0.466,0.238 0.755,0.298 0.29,0.059 0.597,0.089 0.923,0.089 h 0.297 v 0.547 c 0,0.484 -0.085,0.818 -0.256,1 -0.17,0.183 -0.41,0.274 -0.72,0.274 -0.285,0 -0.523,-0.062 -0.714,-0.185 -0.19,-0.123 -0.341,-0.232 -0.452,-0.327 l -0.405,0.643 c 0.064,0.063 0.145,0.135 0.244,0.214 0.099,0.079 0.221,0.154 0.363,0.226 0.143,0.071 0.306,0.131 0.488,0.178 0.183,0.048 0.389,0.072 0.619,0.072 0.587,0 1.031,-0.163 1.333,-0.488 0.301,-0.325 0.452,-0.849 0.452,-1.571 V 51.19 c 0,-0.246 0.008,-0.486 0.024,-0.72 0.016,-0.234 0.032,-0.391 0.047,-0.47 h -0.916 l -0.036,0.631 h -0.023 c -0.032,-0.072 -0.08,-0.153 -0.143,-0.244 -0.064,-0.092 -0.143,-0.175 -0.238,-0.25 -0.095,-0.075 -0.21,-0.141 -0.345,-0.196 -0.135,-0.056 -0.294,-0.084 -0.476,-0.084 -0.214,0 -0.415,0.04 -0.601,0.119 -0.187,0.08 -0.349,0.191 -0.488,0.333 -0.139,0.143 -0.246,0.312 -0.321,0.506 -0.076,0.195 -0.113,0.407 -0.113,0.637 z m 1.725,-0.774 c 0.135,0 0.254,0.02 0.357,0.06 0.103,0.04 0.192,0.087 0.268,0.143 0.075,0.055 0.139,0.117 0.19,0.184 0.052,0.068 0.097,0.125 0.137,0.173 v 1.261 l -0.309,-0.012 c -0.46,-0.016 -0.81,-0.095 -1.048,-0.238 -0.238,-0.143 -0.357,-0.373 -0.357,-0.69 0,-0.294 0.068,-0.514 0.203,-0.66 0.135,-0.147 0.321,-0.221 0.559,-0.221 z m 5.795,4.249 h -1.249 v -3.166 c 0,-0.404 0.051,-0.68 0.155,-0.827 0.103,-0.147 0.277,-0.22 0.523,-0.22 0.143,0 0.266,0.02 0.369,0.06 0.103,0.039 0.179,0.075 0.226,0.107 l 0.131,-0.774 c -0.04,-0.032 -0.135,-0.081 -0.286,-0.149 -0.15,-0.067 -0.353,-0.101 -0.606,-0.101 -0.492,0 -0.861,0.137 -1.107,0.411 -0.246,0.273 -0.369,0.728 -0.369,1.362 v 3.297 h -0.69 v 0.642 l 0.69,0.143 0.107,1.595 h 0.857 v -1.595 h 1.368 z"
   style="fill-rule:nonzero"
   id="path13" />
        </g>
</svg>
