<?xml version="1.0" encoding="UTF-8" standalone="no"?>
<svg
   id="Ebene_1"
   data-name="Ebene 1"
   viewBox="0 0 160 80.000005"
   version="1.1"
   sodipodi:docname="bmwk.svg"
   inkscape:version="1.2.1 (9c6d41e410, 2022-07-14)"
   width="160"
   height="80"
   xmlns:inkscape="http://www.inkscape.org/namespaces/inkscape"
   xmlns:sodipodi="http://sodipodi.sourceforge.net/DTD/sodipodi-0.dtd"
   xmlns="http://www.w3.org/2000/svg"
   xmlns:svg="http://www.w3.org/2000/svg">
  <sodipodi:namedview
     id="namedview22"
     pagecolor="#505050"
     bordercolor="#eeeeee"
     borderopacity="1"
     inkscape:showpageshadow="0"
     inkscape:pageopacity="0"
     inkscape:pagecheckerboard="0"
     inkscape:deskcolor="#505050"
     showgrid="false"
     inkscape:zoom="10.659445"
     inkscape:cx="119.75295"
     inkscape:cy="42.356802"
     inkscape:window-width="3840"
     inkscape:window-height="2050"
     inkscape:window-x="-12"
     inkscape:window-y="-12"
     inkscape:window-maximized="1"
     inkscape:current-layer="Ebene_1" />
  <defs
     id="defs4">
    <style
       id="style2">.cls-1{fill:#fff;}.cls-2{fill:red;}.cls-3{fill:#fc0;}</style>
  </defs>
  <g
     id="Name"
     transform="matrix(0.94438374,0,0,0.94438374,5.5616264e-4,0)">
    <path
       d="m 61.77,4.59 a 3.41,3.41 0 0 1 -0.15,1 2.57,2.57 0 0 1 -0.4,0.77 2.3,2.3 0 0 1 -0.6,0.52 2.8,2.8 0 0 1 -0.69,0.29 v 0 a 2.26,2.26 0 0 1 0.83,0.31 2.6,2.6 0 0 1 0.67,0.57 2.55,2.55 0 0 1 0.46,0.82 2.84,2.84 0 0 1 0.17,1 3.06,3.06 0 0 1 -0.23,1.23 2.52,2.52 0 0 1 -0.71,1 3.53,3.53 0 0 1 -1.23,0.64 6.12,6.12 0 0 1 -1.76,0.23 H 55.81 V 1.66 H 58 a 6.24,6.24 0 0 1 1.72,0.21 3.1,3.1 0 0 1 1.18,0.58 2.14,2.14 0 0 1 0.66,0.91 3.23,3.23 0 0 1 0.21,1.23 z M 60.32,4.66 A 1.68,1.68 0 0 0 59.76,3.36 2.55,2.55 0 0 0 58,2.83 H 57.24 V 6.74 H 58 a 2.48,2.48 0 0 0 1.75,-0.56 2,2 0 0 0 0.57,-1.52 z m 0.21,5.23 A 1.84,1.84 0 0 0 59.93,8.43 2.54,2.54 0 0 0 58.21,7.9 h -1 v 4 H 58.1 A 2.84,2.84 0 0 0 60,11.36 1.92,1.92 0 0 0 60.54,9.87 Z m 8.82,3.17 h -1.21 v -0.9 0 a 1.86,1.86 0 0 1 -0.21,0.28 2.14,2.14 0 0 1 -0.42,0.37 3.54,3.54 0 0 1 -0.62,0.3 2.44,2.44 0 0 1 -0.8,0.13 2.82,2.82 0 0 1 -1,-0.15 1.86,1.86 0 0 1 -0.72,-0.51 2.58,2.58 0 0 1 -0.45,-0.89 5.25,5.25 0 0 1 -0.15,-1.36 V 5.15 h 1.33 v 5.08 a 2.39,2.39 0 0 0 0.33,1.43 1.2,1.2 0 0 0 1,0.42 1.68,1.68 0 0 0 1,-0.29 3.36,3.36 0 0 0 0.62,-0.57 v -6 h 1.33 z m 6.36,0 V 8 a 2.41,2.41 0 0 0 -0.34,-1.44 1.22,1.22 0 0 0 -1,-0.44 1.56,1.56 0 0 0 -1,0.3 A 3.1,3.1 0 0 0 72.75,7 v 6 H 71.39 V 5.15 h 1.22 V 6 6 A 1.46,1.46 0 0 1 72.82,5.72 1.88,1.88 0 0 1 73.25,5.35 3,3 0 0 1 73.87,5.05 2.16,2.16 0 0 1 74.7,5 a 2.82,2.82 0 0 1 1,0.15 1.67,1.67 0 0 1 0.72,0.51 2.44,2.44 0 0 1 0.46,0.89 4.79,4.79 0 0 1 0.17,1.36 V 13 Z m 3,-3.83 a 5.66,5.66 0 0 1 0.31,-2 3.66,3.66 0 0 1 0.81,-1.3 A 2.8,2.8 0 0 1 81,5.23 4.09,4.09 0 0 1 82.2,5 2.46,2.46 0 0 1 82.86,5.06 1.53,1.53 0 0 1 83.32,5.2 V 1.41 L 84.61,1.26 V 13 h -1.22 v -0.83 0 c 0,0.06 -0.1,0.15 -0.18,0.27 a 2.9,2.9 0 0 1 -0.36,0.34 2.13,2.13 0 0 1 -0.58,0.3 A 2.79,2.79 0 0 1 81.46,13.2 2.76,2.76 0 0 1 80.4,13 2.35,2.35 0 0 1 79.52,12.29 3.7,3.7 0 0 1 78.92,11.04 6.82,6.82 0 0 1 78.67,9.19 Z m 3.08,2.83 a 2.1,2.1 0 0 0 0.56,-0.08 2.14,2.14 0 0 0 0.43,-0.21 2.66,2.66 0 0 0 0.31,-0.26 2.11,2.11 0 0 0 0.19,-0.23 V 6.41 a 1.59,1.59 0 0 0 -0.42,-0.19 1.54,1.54 0 0 0 -0.6,-0.09 2.35,2.35 0 0 0 -0.87,0.16 1.58,1.58 0 0 0 -0.7,0.52 2.6,2.6 0 0 0 -0.47,0.94 5.14,5.14 0 0 0 -0.17,1.41 5.88,5.88 0 0 0 0.14,1.38 2.48,2.48 0 0 0 0.39,0.88 1.47,1.47 0 0 0 1.21,0.64 z m 9.93,-4.25 a 6.46,6.46 0 0 1 0,0.88 2.15,2.15 0 0 1 -0.06,0.65 h -4 a 3.52,3.52 0 0 0 0.6,2.06 1.88,1.88 0 0 0 1.54,0.66 2.57,2.57 0 0 0 0.62,-0.08 4.19,4.19 0 0 0 0.49,-0.2 l 0.34,-0.23 0.21,-0.18 0.49,0.93 -0.24,0.24 a 2.83,2.83 0 0 1 -0.45,0.32 4.12,4.12 0 0 1 -0.69,0.27 4.2,4.2 0 0 1 -1,0.11 3.83,3.83 0 0 1 -1.34,-0.24 2.62,2.62 0 0 1 -1,-0.77 3.62,3.62 0 0 1 -0.65,-1.32 6.53,6.53 0 0 1 -0.23,-1.91 6.19,6.19 0 0 1 0.24,-1.82 3.52,3.52 0 0 1 0.65,-1.26 2.49,2.49 0 0 1 1,-0.73 2.79,2.79 0 0 1 1.17,-0.19 2.26,2.26 0 0 1 1.67,0.71 3.19,3.19 0 0 1 0.64,2.1 z M 89.22,6 a 1.31,1.31 0 0 0 -1.14,0.6 3.21,3.21 0 0 0 -0.49,1.71 h 2.88 a 1,1 0 0 0 0,-0.24 V 7.76 A 2.09,2.09 0 0 0 90.14,6.49 1.09,1.09 0 0 0 89.22,6 Z m 7.68,0.71 a 3.64,3.64 0 0 0 -0.48,-0.4 1.44,1.44 0 0 0 -0.9,-0.26 1.19,1.19 0 0 0 -0.81,0.25 0.78,0.78 0 0 0 -0.28,0.59 1.07,1.07 0 0 0 0.26,0.74 3.9,3.9 0 0 0 0.78,0.61 l 0.49,0.3 a 4.76,4.76 0 0 1 1.27,1 A 2.13,2.13 0 0 1 97.69,11 2.15,2.15 0 0 1 97,12.57 2.52,2.52 0 0 1 95.13,13.21 3.28,3.28 0 0 1 93.66,12.88 2.6,2.6 0 0 1 93.21,12.6 l -0.3,-0.29 0.64,-1.06 0.24,0.23 c 0.11,0.09 0.22,0.18 0.34,0.26 a 3.55,3.55 0 0 0 0.44,0.21 2.25,2.25 0 0 0 0.58,0.08 1.39,1.39 0 0 0 0.9,-0.27 0.81,0.81 0 0 0 0.32,-0.64 1.51,1.51 0 0 0 -0.08,-0.48 1,1 0 0 0 -0.22,-0.37 2.17,2.17 0 0 0 -0.36,-0.32 L 95.22,9.66 94.72,9.35 a 4.84,4.84 0 0 1 -1.16,-1 2.12,2.12 0 0 1 -0.38,-1.35 2.08,2.08 0 0 1 0.17,-0.82 1.83,1.83 0 0 1 0.49,-0.64 2.34,2.34 0 0 1 0.73,-0.43 2.5,2.5 0 0 1 0.9,-0.15 2.63,2.63 0 0 1 0.79,0.09 2.35,2.35 0 0 1 0.57,0.23 2.14,2.14 0 0 1 0.39,0.28 2,2 0 0 1 0.26,0.24 z m 6.5,6.3 V 8 a 2.6,2.6 0 0 0 -0.28,-1.4 1,1 0 0 0 -0.9,-0.43 1.49,1.49 0 0 0 -0.59,0.09 1.51,1.51 0 0 0 -0.45,0.2 1.49,1.49 0 0 0 -0.35,0.27 c -0.09,0.1 -0.18,0.19 -0.24,0.27 v 6 H 99.25 V 5.15 h 1.22 V 6 6 c 0.06,-0.08 0.14,-0.19 0.25,-0.32 a 2.3,2.3 0 0 1 0.41,-0.36 2.62,2.62 0 0 1 0.58,-0.29 2.33,2.33 0 0 1 0.74,-0.11 2,2 0 0 1 1.91,1 2.1,2.1 0 0 1 0.31,-0.35 2.24,2.24 0 0 1 0.46,-0.35 2.55,2.55 0 0 1 0.59,-0.25 2.26,2.26 0 0 1 0.73,-0.1 c 1.6,0 2.4,0.93 2.4,2.8 V 13 h -1.33 V 8 a 2.21,2.21 0 0 0 -0.35,-1.4 1.24,1.24 0 0 0 -1,-0.43 1.54,1.54 0 0 0 -0.93,0.27 4.07,4.07 0 0 0 -0.58,0.52 V 13 Z m 8.8,0 h -1.33 V 5.15 h 1.33 z m -0.65,-9.8 a 0.86,0.86 0 0 1 -0.66,-0.27 1,1 0 0 1 -0.25,-0.69 0.89,0.89 0 0 1 0.25,-0.62 0.92,0.92 0 0 1 1.3,0 1,1 0 0 1 0.25,0.67 1,1 0 0 1 -0.25,0.69 0.84,0.84 0 0 1 -0.64,0.25 z m 7,9.8 V 8 a 2.41,2.41 0 0 0 -0.34,-1.44 1.22,1.22 0 0 0 -1,-0.44 1.56,1.56 0 0 0 -1,0.3 3.1,3.1 0 0 0 -0.62,0.58 v 6 h -1.33 V 5.15 h 1.21 V 6 6 a 1.46,1.46 0 0 1 0.21,-0.28 1.88,1.88 0 0 1 0.43,-0.37 3,3 0 0 1 0.62,-0.3 2.16,2.16 0 0 1 0.83,-0.13 2.82,2.82 0 0 1 1,0.15 1.67,1.67 0 0 1 0.72,0.51 2.31,2.31 0 0 1 0.47,0.89 5.17,5.17 0 0 1 0.16,1.36 V 13 Z m 4.65,0 h -1.33 V 5.15 h 1.33 z m -0.65,-9.8 a 0.86,0.86 0 0 1 -0.66,-0.27 1,1 0 0 1 -0.25,-0.69 0.9,0.9 0 0 1 1.55,-0.67 1,1 0 0 1 0.24,0.67 1,1 0 0 1 -0.24,0.69 0.87,0.87 0 0 1 -0.63,0.27 z m 6.1,3.5 a 3.64,3.64 0 0 0 -0.48,-0.4 1.44,1.44 0 0 0 -0.9,-0.26 1.19,1.19 0 0 0 -0.81,0.25 0.78,0.78 0 0 0 -0.28,0.59 1.07,1.07 0 0 0 0.26,0.74 3.9,3.9 0 0 0 0.78,0.61 l 0.49,0.3 a 4.76,4.76 0 0 1 1.27,1 2.13,2.13 0 0 1 0.46,1.42 2.15,2.15 0 0 1 -0.65,1.58 2.61,2.61 0 0 1 -1.87,0.64 3.28,3.28 0 0 1 -1.47,-0.33 2.43,2.43 0 0 1 -0.46,-0.22 l -0.3,-0.29 0.64,-1.06 0.24,0.23 c 0.11,0.09 0.22,0.18 0.34,0.26 a 3.55,3.55 0 0 0 0.44,0.21 2.25,2.25 0 0 0 0.58,0.08 1.39,1.39 0 0 0 0.9,-0.27 0.81,0.81 0 0 0 0.32,-0.64 1.51,1.51 0 0 0 -0.08,-0.48 1,1 0 0 0 -0.22,-0.37 2.17,2.17 0 0 0 -0.36,-0.32 l -0.5,-0.35 -0.5,-0.31 a 4.84,4.84 0 0 1 -1.16,-1 A 2,2 0 0 1 125,7 a 2.08,2.08 0 0 1 0.17,-0.82 1.83,1.83 0 0 1 0.49,-0.64 2.34,2.34 0 0 1 0.73,-0.43 2.5,2.5 0 0 1 0.9,-0.15 2.63,2.63 0 0 1 0.79,0.09 2.35,2.35 0 0 1 0.57,0.23 2.14,2.14 0 0 1 0.39,0.28 2,2 0 0 1 0.26,0.24 z m 5.73,-0.51 h -1.73 v 4.43 a 2.15,2.15 0 0 0 0.21,1.14 0.86,0.86 0 0 0 0.73,0.31 1.75,1.75 0 0 0 0.51,-0.08 l 0.31,-0.15 0.18,1.07 a 2.38,2.38 0 0 1 -0.39,0.2 2.18,2.18 0 0 1 -0.84,0.14 2,2 0 0 1 -1.53,-0.57 2.82,2.82 0 0 1 -0.51,-1.88 V 6.23 h -1 V 5.34 l 1,-0.19 0.14,-2.21 h 1.19 v 2.21 h 1.89 z m 6.46,1.58 v 0.88 a 2.18,2.18 0 0 1 -0.06,0.65 h -4 a 3.67,3.67 0 0 0 0.6,2.06 1.88,1.88 0 0 0 1.54,0.66 2.72,2.72 0 0 0 0.63,-0.08 2.55,2.55 0 0 0 0.48,-0.2 l 0.35,-0.23 0.21,-0.18 0.49,0.93 -0.25,0.24 a 2.36,2.36 0 0 1 -0.44,0.32 4.12,4.12 0 0 1 -0.69,0.27 4.2,4.2 0 0 1 -1,0.11 3.88,3.88 0 0 1 -1.35,-0.24 2.62,2.62 0 0 1 -1,-0.77 3.88,3.88 0 0 1 -0.65,-1.32 7.29,7.29 0 0 1 -0.23,-1.88 6.19,6.19 0 0 1 0.24,-1.82 3.69,3.69 0 0 1 0.65,-1.26 2.59,2.59 0 0 1 1,-0.73 2.79,2.79 0 0 1 1.17,-0.19 2.23,2.23 0 0 1 1.77,0.71 3.15,3.15 0 0 1 0.55,2.15 z M 138.34,6 a 1.33,1.33 0 0 0 -1.13,0.6 3.22,3.22 0 0 0 -0.5,1.71 h 2.88 V 7.76 a 2.09,2.09 0 0 0 -0.33,-1.27 1.12,1.12 0 0 0 -0.91,-0.46 z m 7.75,0.28 a 0.6,0.6 0 0 0 -0.21,-0.08 1.72,1.72 0 0 0 -1.44,0.29 2,2 0 0 0 -0.51,0.73 V 13 H 142.6 V 5.15 h 1.22 v 1.07 0 a 2.43,2.43 0 0 1 0.22,-0.46 1.13,1.13 0 0 1 0.33,-0.39 1.08,1.08 0 0 1 0.46,-0.27 1.8,1.8 0 0 1 0.65,-0.1 1.19,1.19 0 0 1 0.46,0 l 0.27,0.08 z m 2.65,6.72 h -1.33 V 5.15 h 1.33 z m -0.66,-9.8 a 0.84,0.84 0 0 1 -0.65,-0.27 1,1 0 0 1 -0.25,-0.69 0.92,0.92 0 0 1 0.25,-0.67 0.92,0.92 0 0 1 1.3,0 1,1 0 0 1 0.24,0.67 1,1 0 0 1 -0.24,0.69 0.91,0.91 0 0 1 -0.64,0.27 z m 8.23,9.8 h -1.21 v -0.88 0 a 1.86,1.86 0 0 1 -0.21,0.28 2.14,2.14 0 0 1 -0.42,0.37 3.54,3.54 0 0 1 -0.62,0.3 2.44,2.44 0 0 1 -0.8,0.13 3.09,3.09 0 0 1 -1,-0.15 1.86,1.86 0 0 1 -0.72,-0.51 2.5,2.5 0 0 1 -0.45,-0.89 5.22,5.22 0 0 1 -0.16,-1.36 V 5.15 h 1.34 v 5.08 a 2.34,2.34 0 0 0 0.32,1.41 1.19,1.19 0 0 0 1,0.42 1.68,1.68 0 0 0 1,-0.29 2.85,2.85 0 0 0 0.63,-0.57 v -6 h 1.33 z m 6.19,0 V 8 a 2.6,2.6 0 0 0 -0.28,-1.4 1,1 0 0 0 -0.9,-0.43 1.49,1.49 0 0 0 -0.59,0.09 1.51,1.51 0 0 0 -0.45,0.2 2.17,2.17 0 0 0 -0.29,0.24 1.55,1.55 0 0 0 -0.24,0.27 V 13 h -1.34 V 5.15 h 1.22 V 6 6 c 0.06,-0.08 0.14,-0.19 0.25,-0.32 a 2.3,2.3 0 0 1 0.41,-0.36 2.62,2.62 0 0 1 0.58,-0.29 2.08,2.08 0 0 1 0.74,-0.11 2,2 0 0 1 1.91,1 1.73,1.73 0 0 1 0.31,-0.35 2.24,2.24 0 0 1 0.46,-0.35 2.55,2.55 0 0 1 0.59,-0.25 2.26,2.26 0 0 1 0.73,-0.1 c 1.6,0 2.4,0.93 2.4,2.8 V 13 h -1.33 V 8 a 2.21,2.21 0 0 0 -0.35,-1.4 1.24,1.24 0 0 0 -1,-0.43 1.54,1.54 0 0 0 -0.93,0.27 3.54,3.54 0 0 0 -0.58,0.52 1.1,1.1 0 0 0 0.05,0.39 1.3,1.3 0 0 1 0,0.44 V 13 Z M 58.86,22.83 h -1.62 v 6.83 H 55.91 V 22.83 H 55 v -0.89 l 1,-0.18 v -1.58 a 3,3 0 0 1 0.18,-1.11 2.05,2.05 0 0 1 0.48,-0.75 1.71,1.71 0 0 1 0.69,-0.43 2.38,2.38 0 0 1 0.84,-0.13 2,2 0 0 1 0.72,0.11 2.87,2.87 0 0 1 0.4,0.18 L 59,19.16 a 1,1 0 0 0 -0.28,-0.14 1,1 0 0 0 -0.45,-0.08 0.87,0.87 0 0 0 -0.72,0.3 1.77,1.77 0 0 0 -0.25,1.08 v 1.42 H 59 Z m 6.84,6.83 h -1.22 v -0.89 0 a 1.94,1.94 0 0 1 -0.21,0.29 3.62,3.62 0 0 1 -0.42,0.36 2.37,2.37 0 0 1 -0.62,0.3 2.46,2.46 0 0 1 -0.81,0.14 3,3 0 0 1 -0.94,-0.16 1.74,1.74 0 0 1 -0.72,-0.5 2.19,2.19 0 0 1 -0.45,-0.9 4.82,4.82 0 0 1 -0.16,-1.36 v -5.2 h 1.34 v 5.08 a 2.34,2.34 0 0 0 0.32,1.41 1.19,1.19 0 0 0 1,0.42 1.55,1.55 0 0 0 1,-0.29 3.72,3.72 0 0 0 0.63,-0.56 v -6.06 h 1.33 z M 62.43,19.47 a 0.88,0.88 0 0 1 -0.23,0.61 0.83,0.83 0 0 1 -0.56,0.23 0.79,0.79 0 0 1 -0.56,-0.23 0.83,0.83 0 0 1 -0.23,-0.61 0.81,0.81 0 0 1 0.23,-0.61 0.75,0.75 0 0 1 0.56,-0.23 0.79,0.79 0 0 1 0.56,0.23 0.81,0.81 0 0 1 0.23,0.61 z m 2.53,0 a 0.88,0.88 0 0 1 -0.23,0.61 0.81,0.81 0 0 1 -1.12,0 0.88,0.88 0 0 1 -0.23,-0.61 0.81,0.81 0 0 1 0.23,-0.61 0.79,0.79 0 0 1 1.12,0 0.83,0.83 0 0 1 0.26,0.61 z m 6.25,3.44 A 0.6,0.6 0 0 0 71,22.83 a 1.71,1.71 0 0 0 -1.42,0.28 1.93,1.93 0 0 0 -0.51,0.74 v 5.81 h -1.33 v -7.9 H 69 v 1.07 0 a 2.35,2.35 0 0 1 0.22,-0.45 1.29,1.29 0 0 1 0.33,-0.4 1.6,1.6 0 0 1 0.45,-0.32 1.8,1.8 0 0 1 0.65,-0.1 1.44,1.44 0 0 1 0.46,0.05 l 0.27,0.08 z M 87,18.28 84.25,29.66 H 83 l -1.72,-7.14 c -0.13,-0.5 -0.23,-1 -0.32,-1.39 a 8.62,8.62 0 0 1 -0.15,-1 v 0 a 4.9,4.9 0 0 1 -0.13,1 c -0.09,0.42 -0.19,0.87 -0.31,1.36 l -1.82,7.17 h -1.3 L 74.55,18.3 h 1.53 l 1.42,6.92 c 0.11,0.52 0.21,1 0.29,1.48 a 9.37,9.37 0 0 1 0.14,1.08 v 0 a 8.12,8.12 0 0 1 0.17,-1.1 l 0.34,-1.5 1.68,-6.88 h 1.37 l 1.64,6.92 c 0.12,0.52 0.23,1 0.33,1.48 a 6.39,6.39 0 0 1 0.16,1.08 v 0 a 8.53,8.53 0 0 1 0.22,-1.12 c 0.08,-0.49 0.18,-1 0.29,-1.52 l 1.43,-6.85 z m 2.59,11.38 h -1.34 v -7.9 h 1.33 z M 88.93,19.85 A 1,1 0 0 1 88.27,19.59 1,1 0 0 1 88,18.9 a 1,1 0 0 1 0.24,-0.68 0.87,0.87 0 0 1 0.66,-0.26 0.82,0.82 0 0 1 0.64,0.26 0.94,0.94 0 0 1 0.25,0.68 1,1 0 0 1 -0.25,0.69 0.88,0.88 0 0 1 -0.64,0.24 z m 6.17,3.08 a 0.6,0.6 0 0 0 -0.21,-0.08 1.74,1.74 0 0 0 -1.43,0.28 2,2 0 0 0 -0.5,0.74 v 5.79 h -1.34 v -7.9 h 1.22 v 1.07 0 a 3.1,3.1 0 0 1 0.21,-0.45 1.6,1.6 0 0 1 0.33,-0.4 1.47,1.47 0 0 1 0.47,-0.27 1.61,1.61 0 0 1 0.65,-0.1 1.63,1.63 0 0 1 0.49,0.05 l 0.28,0.08 z m 4.69,-0.08 h -1.74 v 4.37 a 2.1,2.1 0 0 0 0.22,1.15 0.83,0.83 0 0 0 0.72,0.29 1.75,1.75 0 0 0 0.51,-0.08 l 0.31,-0.15 0.19,1.07 a 2.42,2.42 0 0 1 -0.39,0.21 2.18,2.18 0 0 1 -0.84,0.14 2,2 0 0 1 -1.53,-0.57 2.83,2.83 0 0 1 -0.51,-1.89 v -4.56 h -1 v -0.89 l 1,-0.2 0.15,-2.21 h 1.18 v 2.21 H 100 Z m 4.92,0.51 a 3.72,3.72 0 0 0 -0.48,-0.41 1.45,1.45 0 0 0 -0.9,-0.25 1.18,1.18 0 0 0 -0.81,0.24 0.81,0.81 0 0 0 -0.28,0.6 1.11,1.11 0 0 0 0.26,0.73 3.61,3.61 0 0 0 0.78,0.62 l 0.49,0.29 a 4.76,4.76 0 0 1 1.27,1 2.32,2.32 0 0 1 -0.19,3 2.56,2.56 0 0 1 -1.87,0.65 4,4 0 0 1 -0.84,-0.1 c -0.21,-0.07 -0.43,-0.14 -0.63,-0.23 a 2.66,2.66 0 0 1 -0.45,-0.29 c -0.12,-0.11 -0.22,-0.2 -0.3,-0.29 l 0.64,-1.05 0.24,0.23 0.34,0.25 a 2.53,2.53 0 0 0 0.44,0.21 2.27,2.27 0 0 0 0.58,0.1 1.38,1.38 0 0 0 0.9,-0.26 0.82,0.82 0 0 0 0.32,-0.64 1.57,1.57 0 0 0 -0.08,-0.49 1,1 0 0 0 -0.22,-0.37 2.11,2.11 0 0 0 -0.36,-0.31 l -0.49,-0.33 -0.5,-0.31 a 4.84,4.84 0 0 1 -1.16,-1 2.12,2.12 0 0 1 -0.41,-1.35 1.88,1.88 0 0 1 0.18,-0.81 1.69,1.69 0 0 1 0.48,-0.64 2.07,2.07 0 0 1 0.73,-0.43 2.31,2.31 0 0 1 0.9,-0.16 2.63,2.63 0 0 1 0.79,0.09 2.35,2.35 0 0 1 0.57,0.23 2.14,2.14 0 0 1 0.39,0.28 l 0.26,0.24 z m 6.75,-0.07 -0.16,-0.15 a 2.34,2.34 0 0 0 -0.27,-0.2 1.92,1.92 0 0 0 -0.39,-0.17 1.58,1.58 0 0 0 -0.53,-0.07 2,2 0 0 0 -0.8,0.15 1.67,1.67 0 0 0 -0.64,0.51 2.72,2.72 0 0 0 -0.43,0.89 5,5 0 0 0 -0.16,1.34 6.66,6.66 0 0 0 0.14,1.47 3.23,3.23 0 0 0 0.39,0.94 1.48,1.48 0 0 0 0.6,0.51 2,2 0 0 0 0.79,0.15 1.68,1.68 0 0 0 0.93,-0.21 4,4 0 0 0 0.46,-0.35 l 0.54,0.92 -0.24,0.24 a 1.56,1.56 0 0 1 -0.4,0.27 3.1,3.1 0 0 1 -0.6,0.23 3.75,3.75 0 0 1 -0.82,0.09 3.66,3.66 0 0 1 -1.23,-0.22 2.45,2.45 0 0 1 -1,-0.71 3.35,3.35 0 0 1 -0.64,-1.26 6.46,6.46 0 0 1 -0.25,-2 5.19,5.19 0 0 1 0.3,-1.92 3.71,3.71 0 0 1 0.77,-1.28 2.91,2.91 0 0 1 1.06,-0.71 3.43,3.43 0 0 1 1.18,-0.22 3,3 0 0 1 0.78,0.08 3.1,3.1 0 0 1 0.58,0.21 1.66,1.66 0 0 1 0.39,0.26 l 0.26,0.24 z m 6.27,6.37 v -5.11 a 2.34,2.34 0 0 0 -0.34,-1.44 1.21,1.21 0 0 0 -1,-0.43 1.68,1.68 0 0 0 -1,0.29 3.1,3.1 0 0 0 -0.62,0.58 v 6.11 h -1.33 V 18 l 1.33,-0.14 v 4.69 0 a 1.39,1.39 0 0 1 0.21,-0.27 1.7,1.7 0 0 1 0.38,-0.33 2.86,2.86 0 0 1 1.47,-0.42 2.08,2.08 0 0 1 1.64,0.68 3.24,3.24 0 0 1 0.61,2.24 v 5.21 z m 2.86,-2 a 2.4,2.4 0 0 1 0.26,-1.15 2.13,2.13 0 0 1 0.71,-0.75 2.9,2.9 0 0 1 1,-0.41 6,6 0 0 1 1.27,-0.12 h 0.41 v -0.76 a 2,2 0 0 0 -0.35,-1.38 1.25,1.25 0 0 0 -1,-0.38 1.76,1.76 0 0 0 -1,0.25 4.61,4.61 0 0 0 -0.63,0.46 l -0.56,-0.89 a 3.17,3.17 0 0 1 0.34,-0.3 2.6,2.6 0 0 1 0.5,-0.31 3.27,3.27 0 0 1 1.53,-0.35 2.38,2.38 0 0 1 1.84,0.68 3.13,3.13 0 0 1 0.63,2.17 V 29 a 5,5 0 0 0 0.07,0.65 h -1.27 v -0.85 0 a 1.38,1.38 0 0 1 -0.2,0.33 1.56,1.56 0 0 1 -0.33,0.35 2.2,2.2 0 0 1 -0.47,0.27 1.84,1.84 0 0 1 -0.66,0.12 2.12,2.12 0 0 1 -0.83,-0.17 2,2 0 0 1 -0.68,-0.46 2.13,2.13 0 0 1 -0.44,-0.7 2.39,2.39 0 0 1 -0.15,-0.88 z m 2.41,1 a 1.62,1.62 0 0 0 0.49,-0.08 1.65,1.65 0 0 0 0.37,-0.2 1.24,1.24 0 0 0 0.26,-0.25 l 0.19,-0.24 v -1.71 h -0.42 a 2.94,2.94 0 0 0 -1.45,0.33 1,1 0 0 0 -0.5,0.95 1.4,1.4 0 0 0 0.28,0.92 1,1 0 0 0 0.78,0.28 z m 8,-5.87 h -1.61 v 6.87 H 128 v -6.83 h -1 v -0.89 l 1,-0.18 v -1.58 a 3,3 0 0 1 0.18,-1.11 2.32,2.32 0 0 1 0.47,-0.75 1.71,1.71 0 0 1 0.7,-0.43 2.36,2.36 0 0 1 0.83,-0.13 2,2 0 0 1 0.73,0.11 2.76,2.76 0 0 1 0.39,0.18 l -0.3,1.11 a 1,1 0 0 0 -0.28,-0.14 1,1 0 0 0 -0.44,-0.08 0.87,0.87 0 0 0 -0.72,0.3 1.7,1.7 0 0 0 -0.25,1.08 v 1.42 h 1.78 z m 4.69,0 h -1.79 v 4.37 a 2.2,2.2 0 0 0 0.22,1.15 0.84,0.84 0 0 0 0.72,0.3 1.75,1.75 0 0 0 0.51,-0.08 l 0.31,-0.15 0.19,1.07 -0.4,0.21 a 2.18,2.18 0 0 1 -0.84,0.14 2,2 0 0 1 -1.53,-0.57 2.83,2.83 0 0 1 -0.51,-1.89 v -4.51 h -0.95 v -0.89 l 0.95,-0.2 0.15,-2.21 h 1.18 v 2.21 h 1.9 z M 61.06,46.23 h -1.22 v -0.89 0 a 1.42,1.42 0 0 1 -0.21,0.29 1.82,1.82 0 0 1 -0.42,0.36 2.77,2.77 0 0 1 -0.62,0.31 2.45,2.45 0 0 1 -0.81,0.13 2.73,2.73 0 0 1 -0.94,-0.16 1.74,1.74 0 0 1 -0.72,-0.5 2.34,2.34 0 0 1 -0.45,-0.89 4.82,4.82 0 0 1 -0.16,-1.36 v -5.19 h 1.33 v 5.09 a 2.34,2.34 0 0 0 0.33,1.41 1.19,1.19 0 0 0 1,0.42 1.68,1.68 0 0 0 1,-0.29 3.42,3.42 0 0 0 0.63,-0.57 v -6.06 h 1.33 z m 6.35,0 v -5.08 a 2.4,2.4 0 0 0 -0.33,-1.44 1.22,1.22 0 0 0 -1,-0.44 1.56,1.56 0 0 0 -1,0.3 4.27,4.27 0 0 0 -0.63,0.57 v 6.09 H 63.1 v -7.9 h 1.22 v 0.89 0 a 1.58,1.58 0 0 1 0.22,-0.29 2.36,2.36 0 0 1 0.42,-0.36 3.64,3.64 0 0 1 0.63,-0.3 2.08,2.08 0 0 1 0.82,-0.13 2.82,2.82 0 0 1 1,0.15 1.71,1.71 0 0 1 0.72,0.5 2.48,2.48 0 0 1 0.46,0.9 4.79,4.79 0 0 1 0.17,1.36 v 5.18 z m 3,-3.83 a 5.45,5.45 0 0 1 0.32,-2 3.63,3.63 0 0 1 0.8,-1.3 2.8,2.8 0 0 1 1.12,-0.7 3.8,3.8 0 0 1 1.25,-0.2 3.64,3.64 0 0 1 0.66,0 2.44,2.44 0 0 1 0.46,0.14 V 34.6 l 1.33,-0.15 V 46.23 H 75.1 v -0.84 0 a 1.59,1.59 0 0 1 -0.18,0.27 1.71,1.71 0 0 1 -0.36,0.35 2.39,2.39 0 0 1 -0.57,0.3 2.79,2.79 0 0 1 -0.81,0.12 2.55,2.55 0 0 1 -1.06,-0.22 2.35,2.35 0 0 1 -0.88,-0.71 3.45,3.45 0 0 1 -0.6,-1.25 6.47,6.47 0 0 1 -0.27,-1.85 z m 3.13,2.85 a 1.77,1.77 0 0 0 0.56,-0.09 1.64,1.64 0 0 0 0.69,-0.5 1.37,1.37 0 0 0 0.19,-0.23 V 39.6 a 1.62,1.62 0 0 0 -0.42,-0.2 1.74,1.74 0 0 0 -0.6,-0.08 2.12,2.12 0 0 0 -0.86,0.16 1.51,1.51 0 0 0 -0.7,0.52 2.48,2.48 0 0 0 -0.47,0.93 4.85,4.85 0 0 0 -0.17,1.42 5.27,5.27 0 0 0 0.14,1.37 2.61,2.61 0 0 0 0.38,0.89 1.47,1.47 0 0 0 1.22,0.64 z m 12.11,-4.83 3.85,5.81 h -1.8 l -3.29,-5.16 h -0.85 v 5.16 H 82.12 V 34.88 h 1.44 v 5 h 0.87 l 3.17,-5 h 1.6 z m 6.21,4 a 1.18,1.18 0 0 0 0.14,0.69 0.59,0.59 0 0 0 0.48,0.2 h 0.31 l 0.19,-0.07 0.11,1 -0.36,0.13 A 2.81,2.81 0 0 1 92.02,46.45 1.56,1.56 0 0 1 90.93,46 2,2 0 0 1 90.52,44.53 v -9.9 l 1.34,-0.15 z m 3.76,1.84 h -1.37 v -7.9 h 1.33 z M 95,36.46 a 0.86,0.86 0 0 1 -0.66,-0.27 1,1 0 0 1 -0.25,-0.69 0.9,0.9 0 0 1 1.55,-0.67 1,1 0 0 1 0.25,0.67 1,1 0 0 1 -0.25,0.69 0.86,0.86 0 0 1 -0.68,0.24 z m 6.84,9.8 v -5.11 a 2.6,2.6 0 0 0 -0.28,-1.4 1,1 0 0 0 -0.9,-0.43 2,2 0 0 0 -0.59,0.08 1.85,1.85 0 0 0 -0.45,0.21 1.49,1.49 0 0 0 -0.35,0.27 l -0.24,0.26 v 6.09 h -1.4 v -7.9 h 1.21 v 0.89 0 a 1.91,1.91 0 0 1 0.24,-0.32 2,2 0 0 1 0.41,-0.36 2.1,2.1 0 0 1 0.58,-0.29 2.08,2.08 0 0 1 0.74,-0.11 2,2 0 0 1 1.91,1 2.1,2.1 0 0 1 0.31,-0.35 1.93,1.93 0 0 1 0.46,-0.35 2.63,2.63 0 0 1 0.6,-0.25 2.2,2.2 0 0 1 0.72,-0.1 q 2.4,0 2.4,2.79 v 5.3 h -1.33 v -5.03 a 2.21,2.21 0 0 0 -0.35,-1.4 1.21,1.21 0 0 0 -1,-0.43 1.54,1.54 0 0 0 -0.93,0.27 3.54,3.54 0 0 0 -0.58,0.52 v 6.12 z m 7,-2 a 2.16,2.16 0 0 1 1,-1.91 3.35,3.35 0 0 1 1,-0.41 6,6 0 0 1 1.27,-0.12 h 0.41 v -0.76 a 2,2 0 0 0 -0.35,-1.38 1.25,1.25 0 0 0 -1,-0.38 1.69,1.69 0 0 0 -1,0.26 4.53,4.53 0 0 0 -0.63,0.45 l -0.56,-0.89 a 3.17,3.17 0 0 1 0.34,-0.3 3.76,3.76 0 0 1 0.5,-0.31 2.75,2.75 0 0 1 0.68,-0.24 3,3 0 0 1 0.85,-0.1 2.4,2.4 0 0 1 1.85,0.67 3.12,3.12 0 0 1 0.62,2.17 v 4.61 a 1.46,1.46 0 0 0 0.07,0.65 h -1.27 v -0.87 0 a 1.68,1.68 0 0 1 -0.2,0.34 1.52,1.52 0 0 1 -0.33,0.34 2,2 0 0 1 -0.47,0.28 2.12,2.12 0 0 1 -0.66,0.11 2.15,2.15 0 0 1 -0.83,-0.16 2,2 0 0 1 -0.68,-0.47 2.19,2.19 0 0 1 -0.44,-0.69 2.28,2.28 0 0 1 -0.2,-0.92 z m 2.39,1.06 a 1.36,1.36 0 0 0 0.49,-0.08 1.62,1.62 0 0 0 0.37,-0.19 2.23,2.23 0 0 0 0.27,-0.26 l 0.18,-0.24 v -1.77 h -0.42 a 3.18,3.18 0 0 0 -1.45,0.33 1,1 0 0 0 -0.49,1 1.36,1.36 0 0 0 0.27,0.91 1,1 0 0 0 0.75,0.27 z m 8,-5.36 a 3.64,3.64 0 0 0 -0.48,-0.4 1.42,1.42 0 0 0 -0.91,-0.26 1.06,1.06 0 0 0 -0.8,0.25 0.74,0.74 0 0 0 -0.28,0.59 1,1 0 0 0 0.25,0.73 3.61,3.61 0 0 0 0.78,0.62 l 0.5,0.3 a 4.35,4.35 0 0 1 1.26,1 2.14,2.14 0 0 1 0.47,1.42 2.19,2.19 0 0 1 -0.65,1.58 2.61,2.61 0 0 1 -1.87,0.64 3.39,3.39 0 0 1 -0.84,-0.1 4.88,4.88 0 0 1 -0.64,-0.23 2.66,2.66 0 0 1 -0.45,-0.29 3.83,3.83 0 0 1 -0.29,-0.28 l 0.64,-1.06 0.24,0.23 a 2.1,2.1 0 0 0 0.33,0.26 2.28,2.28 0 0 0 0.45,0.2 1.84,1.84 0 0 0 0.57,0.09 1.4,1.4 0 0 0 0.91,-0.27 0.81,0.81 0 0 0 0.31,-0.64 1.61,1.61 0 0 0 -0.07,-0.49 1.25,1.25 0 0 0 -0.22,-0.37 1.85,1.85 0 0 0 -0.37,-0.31 l -0.49,-0.33 -0.49,-0.31 a 4.84,4.84 0 0 1 -1.16,-1 2.12,2.12 0 0 1 -0.42,-1.35 1.75,1.75 0 0 1 0.17,-0.82 2,2 0 0 1 0.48,-0.64 2.39,2.39 0 0 1 0.74,-0.43 2.73,2.73 0 0 1 0.89,-0.15 2.63,2.63 0 0 1 0.79,0.09 2,2 0 0 1 0.57,0.23 1.8,1.8 0 0 1 0.4,0.28 1.88,1.88 0 0 1 0.25,0.24 z m 6.79,-0.1 -0.15,-0.14 a 1.31,1.31 0 0 0 -0.28,-0.2 1.36,1.36 0 0 0 -0.39,-0.17 1.59,1.59 0 0 0 -0.53,-0.08 1.85,1.85 0 0 0 -0.8,0.16 1.64,1.64 0 0 0 -0.64,0.5 2.67,2.67 0 0 0 -0.43,0.9 5.06,5.06 0 0 0 -0.15,1.34 6.51,6.51 0 0 0 0.14,1.46 2.68,2.68 0 0 0 0.39,1 1.56,1.56 0 0 0 0.6,0.51 2.09,2.09 0 0 0 0.78,0.16 1.78,1.78 0 0 0 0.93,-0.22 5.3,5.3 0 0 0 0.45,-0.34 l 0.54,0.92 -0.24,0.24 a 2.8,2.8 0 0 1 -0.4,0.27 2.54,2.54 0 0 1 -0.6,0.22 3.74,3.74 0 0 1 -2,-0.12 2.55,2.55 0 0 1 -1,-0.71 3.68,3.68 0 0 1 -0.68,-1.28 6.77,6.77 0 0 1 -0.24,-2 5.72,5.72 0 0 1 0.29,-1.93 3.47,3.47 0 0 1 0.78,-1.27 2.72,2.72 0 0 1 1.06,-0.71 3.12,3.12 0 0 1 1.17,-0.22 3,3 0 0 1 0.79,0.08 2.27,2.27 0 0 1 0.57,0.2 1.76,1.76 0 0 1 0.4,0.27 1.88,1.88 0 0 1 0.25,0.24 z m 6.27,6.37 v -5.08 a 2.34,2.34 0 0 0 -0.34,-1.44 1.18,1.18 0 0 0 -1,-0.44 1.56,1.56 0 0 0 -1,0.3 4.27,4.27 0 0 0 -0.63,0.57 v 6.09 H 128 V 34.6 l 1.33,-0.15 v 4.69 0 a 2.56,2.56 0 0 1 0.2,-0.26 1.75,1.75 0 0 1 0.39,-0.33 2.46,2.46 0 0 1 1.43,-0.41 2.1,2.1 0 0 1 1.65,0.67 3.36,3.36 0 0 1 0.6,2.24 v 5.18 z m 8.85,0 h -1.24 v -0.89 0 a 1.42,1.42 0 0 1 -0.21,0.29 1.82,1.82 0 0 1 -0.42,0.36 2.77,2.77 0 0 1 -0.62,0.31 2.44,2.44 0 0 1 -0.8,0.13 2.79,2.79 0 0 1 -0.95,-0.16 1.62,1.62 0 0 1 -0.71,-0.5 2.52,2.52 0 0 1 -0.46,-0.89 5.25,5.25 0 0 1 -0.15,-1.36 v -5.19 h 1.33 v 5.09 a 2.41,2.41 0 0 0 0.32,1.41 1.2,1.2 0 0 0 1,0.42 1.68,1.68 0 0 0 1,-0.29 3.36,3.36 0 0 0 0.62,-0.57 v -6.06 h 1.33 z m 5.42,-6.81 h -1.76 v 4.38 a 2.15,2.15 0 0 0 0.21,1.14 0.88,0.88 0 0 0 0.73,0.31 1.48,1.48 0 0 0 0.51,-0.09 l 0.31,-0.14 0.18,1.06 a 1.47,1.47 0 0 1 -0.39,0.21 2.18,2.18 0 0 1 -0.84,0.14 2,2 0 0 1 -1.52,-0.57 2.82,2.82 0 0 1 -0.51,-1.88 v -4.56 h -1 v -0.89 l 1,-0.2 0.15,-2.2 h 1.18 v 2.2 h 1.89 z m 5.92,-0.23 -3.19,5.87 h 3.41 l -0.12,1.13 h -5 v -0.85 l 3.29,-5.93 h -3.11 v -1.08 h 4.74 z"
       transform="translate(0.01,-0.66)"
       id="path9" />
  </g>
  <g
     id="Adler-und-Saeulenelement"
     transform="matrix(0.94438374,0,0,0.94438374,5.5616264e-4,0)">
    <path
       d="m 19.49,12.13 a 8.39,8.39 0 0 0 0.06,-1 V 10.5 c 2.75,0 5.17,-2 5.17,-4.3 A 4.16,4.16 0 0 0 23.51,3.66 l 0.3,-0.06 a 4.65,4.65 0 0 1 1.54,3.17 c 0,2.74 -2.73,5.28 -5.86,5.34 M 16.71,2.59 A 1.86,1.86 0 0 0 16.37,1.77 c 0,-0.28 0.12,-0.55 0.57,-0.33 -0.24,0.25 -0.05,0.69 -0.05,0.69 0,0 0.49,-0.23 0.39,-0.56 0.74,0.18 0.21,1.17 -0.57,1 M 16.07,4 A 2.89,2.89 0 0 0 15.5,2.85 1.58,1.58 0 0 0 14.31,2.22 2.76,2.76 0 0 0 13.38,2.45 2.4,2.4 0 0 1 13.09,1.68 c 0,-0.2 0.34,-0.4 1,-0.4 1.43,0 2.28,0.64 2.28,1.72 a 2.68,2.68 0 0 1 -0.29,1 m 3.67,18.39 a 0.66,0.66 0 0 1 0.34,0.06 19.33,19.33 0 0 0 2.06,3.32 v 0 a 14.89,14.89 0 0 1 2.21,-0.21 v 0 a 0.32,0.32 0 0 1 0.25,0.06 0.4,0.4 0 0 1 0.08,0.28 1.48,1.48 0 0 1 -0.19,0.71 2,2 0 0 0 -1.5,-0.44 2.76,2.76 0 0 0 -0.64,0.1 h -0.12 l 0.43,0.44 c 0.67,0.67 1.25,1.25 1.25,1.63 A 1,1 0 0 1 23.49,29.01 3.76,3.76 0 0 0 22,26.83 v 0 0.94 c 0,1.34 -0.14,1.55 -0.6,1.55 h -0.25 a 2.28,2.28 0 0 0 0.36,-1.5 v -0.63 a 5.81,5.81 0 0 1 0.05,-0.72 v -0.1 h -0.08 a 7.32,7.32 0 0 0 -0.93,-0.09 2,2 0 0 0 -1.44,0.37 1.15,1.15 0 0 1 -0.44,-0.66 c 0,-0.28 0.18,-0.31 0.4,-0.31 h 0.38 a 10.66,10.66 0 0 0 1.6,0.1 h 0.06 V 25.73 A 10.55,10.55 0 0 0 19.25,23 c 0.09,-0.32 0.17,-0.53 0.49,-0.53 m -8.54,3.19 v 0.05 h 0.06 a 10.66,10.66 0 0 0 1.6,-0.1 h 0.37 c 0.23,0 0.41,0 0.41,0.31 a 1.15,1.15 0 0 1 -0.44,0.66 2,2 0 0 0 -1.44,-0.37 7.47,7.47 0 0 0 -0.94,0.09 h -0.07 v 0.1 a 4.28,4.28 0 0 1 0.06,0.72 v 0.63 a 2.21,2.21 0 0 0 0.37,1.5 1,1 0 0 1 -0.25,0 c -0.47,0 -0.6,-0.21 -0.6,-1.55 V 26.76 H 10.27 A 3.69,3.69 0 0 0 8.82,28.94 1.06,1.06 0 0 1 8.38,28.27 c 0,-0.38 0.58,-1 1.25,-1.63 l 0.39,-0.39 V 26.2 H 9.89 A 2.31,2.31 0 0 0 9.25,26.1 2,2 0 0 0 7.73,26.66 1.61,1.61 0 0 1 7.53,25.95 0.41,0.41 0 0 1 7.61,25.66 0.4,0.4 0 0 1 7.87,25.6 v 0 a 16.36,16.36 0 0 1 2.21,0.21 v 0 a 19.33,19.33 0 0 0 2.06,-3.32 0.66,0.66 0 0 1 0.34,-0.06 c 0.31,0 0.4,0.21 0.49,0.53 a 10.59,10.59 0 0 0 -1.77,2.7 M 6.92,6.79 A 4.65,4.65 0 0 1 8.47,3.66 H 8.76 A 4.12,4.12 0 0 0 7.58,6.25 c 0,2.3 2.46,4.31 5.25,4.31 0,0.2 0,0.41 0,0.62 a 8.39,8.39 0 0 0 0.06,1 C 9.73,12.18 7,9.6 7,6.84 m 21.14,4.82 c 1.41,2.24 2.52,2.2 4.19,2.2 A 12.27,12.27 0 0 1 29.6,10.75 L 27,6.6 A 6.06,6.06 0 0 0 25.1,3.24 3.56,3.56 0 0 0 25.88,2.85 C 24.18,2.85 22.5,2 21.58,2 a 0.86,0.86 0 0 0 -1,0.7 0.49,0.49 0 0 0 0,0.12 c 0,0.52 0.57,1 1.57,1 a 5.9,5.9 0 0 0 0.84,0 3.86,3.86 0 0 1 1,2.39 C 24,8 21.83,9.4 19.64,9.4 H 19.28 A 5,5 0 0 1 18.42,7.34 c 0,-1.44 0.94,-2.62 0.94,-4 a 2.59,2.59 0 0 0 -0.65,-1.68 2.57,2.57 0 0 0 0.63,-0.8 1.79,1.79 0 0 1 -0.61,0.07 c -1.05,0 -1.9,-0.27 -2.73,-0.27 -0.47,0 -0.6,0.15 -0.6,0.29 a 0.24,0.24 0 0 0 0,0.12 5.44,5.44 0 0 0 -0.54,-0.15 4.22,4.22 0 0 0 -0.79,-0.07 c -1,0 -1.37,0.43 -1.37,0.79 a 3.11,3.11 0 0 0 0.51,1.3 2.89,2.89 0 0 1 1.11,-0.28 c 0.54,0 1,0.51 1.27,1.11 A 5.29,5.29 0 0 1 14.79,3.83 6.12,6.12 0 0 1 13,3.43 v 0 a 1.72,1.72 0 0 0 0.83,0.7 10.44,10.44 0 0 0 2,0.41 0.92,0.92 0 0 1 -0.39,0.44 H 15.3 A 9.3,9.3 0 0 1 13.37,4.41 v 0 c 0,0.38 1,1.22 1.87,1.55 A 9.74,9.74 0 0 0 13.1,9.33 H 12.69 C 10.5,9.33 8.33,7.92 8.33,6.11 a 4,4 0 0 1 1,-2.39 7.53,7.53 0 0 0 0.83,0.08 c 1,0 1.53,-0.53 1.57,-1 A 0.87,0.87 0 0 0 10.82,2 H 10.73 C 9.81,2 8.14,2.85 6.45,2.85 A 3.56,3.56 0 0 0 7.23,3.24 6.14,6.14 0 0 0 5.31,6.6 L 2.73,10.74 A 12.51,12.51 0 0 1 0,13.85 c 1.67,0 2.78,0 4.2,-2.2 L 5.51,9.53 a 5.23,5.23 0 0 0 0.37,0.8 L 3.24,14.55 A 12.14,12.14 0 0 1 0.5,17.66 c 1.67,0 2.78,0 4.2,-2.2 L 7,11.83 c 0.17,0.19 0.35,0.36 0.53,0.53 l -3.2,5.13 A 12.11,12.11 0 0 1 1.59,20.6 c 1.67,0 2.78,0 4.19,-2.2 l 3.12,-5 c 0.21,0.13 0.42,0.26 0.64,0.38 l -3.81,6.1 A 12.14,12.14 0 0 1 3,23 c 1.67,0 2.78,0 4.2,-2.2 l 3.92,-6.28 0.71,0.25 -4.46,7.1 A 12.11,12.11 0 0 1 4.63,25 c 1.67,0 2.78,0 4.2,-2.2 l 4.72,-7.57 h 0.15 a 3.89,3.89 0 0 1 0.21,1.17 c 0,2.38 -1.56,4.48 -3.43,6.1 A 1.81,1.81 0 0 0 11,22.57 5.51,5.51 0 0 0 11.81,22.52 18.2,18.2 0 0 1 10,25.43 13.31,13.31 0 0 0 7.91,25.24 c -0.61,0 -0.68,0.36 -0.68,0.67 a 1.63,1.63 0 0 0 0.56,1.25 C 7.9,26.87 8.13,26.49 9.26,26.49 H 9.37 C 9,26.87 8,27.66 8,28.37 a 1.25,1.25 0 0 0 1.13,1.12 2.41,2.41 0 0 1 0,-0.38 2.85,2.85 0 0 1 0.87,-1.62 1.22,1.22 0 0 0 0,0.27 c 0,1.29 0.11,1.88 0.93,1.88 a 1.29,1.29 0 0 0 0.77,-0.29 1.74,1.74 0 0 1 -0.56,-1.59 v -0.63 a 4.86,4.86 0 0 0 0,-0.54 3.42,3.42 0 0 1 0.64,0 c 0,0 1.16,-0.09 1.44,0.51 0.31,-0.29 0.77,-0.69 0.77,-1.14 0,-0.45 -0.14,-0.64 -0.74,-0.64 -0.23,0 -0.94,0.14 -1.53,0.14 a 14.46,14.46 0 0 1 1.49,-2.15 1.73,1.73 0 0 0 0.56,0.87 6.15,6.15 0 0 1 1.09,-2.93 14,14 0 0 1 0.14,2.51 c 0,3.2 -0.77,5.56 -2.4,6 a 1.4,1.4 0 0 0 1.12,0.7 c 0.6,0 0.93,-0.67 1.26,-1.31 0.17,0.47 0.65,1.62 1.13,1.62 0.48,0 1,-1.15 1.13,-1.62 0.33,0.64 0.65,1.31 1.25,1.31 a 1.39,1.39 0 0 0 1.13,-0.7 c -1.63,-0.45 -2.4,-2.81 -2.4,-6 a 15.48,15.48 0 0 1 0.2,-2.55 6,6 0 0 1 1.09,2.93 1.69,1.69 0 0 0 0.57,-0.87 14.46,14.46 0 0 1 1.49,2.15 c -0.6,0 -1.31,-0.14 -1.54,-0.14 -0.59,0 -0.73,0.34 -0.73,0.64 a 2.36,2.36 0 0 0 0.77,1.14 c 0.28,-0.6 1.44,-0.51 1.44,-0.51 a 3.42,3.42 0 0 1 0.64,0 4.86,4.86 0 0 0 0,0.54 v 0.63 a 1.74,1.74 0 0 1 -0.56,1.59 1.31,1.31 0 0 0 0.78,0.29 c 0.81,0 0.93,-0.59 0.93,-1.88 a 1.22,1.22 0 0 0 0,-0.27 2.93,2.93 0 0 1 0.89,1.62 1.21,1.21 0 0 1 0,0.38 1.25,1.25 0 0 0 1.14,-1.12 c 0,-0.67 -1,-1.5 -1.37,-1.87 v 0 c 1.13,0 1.36,0.38 1.47,0.67 A 1.59,1.59 0 0 0 25,25.88 c 0,-0.31 -0.07,-0.67 -0.68,-0.67 a 13.31,13.31 0 0 0 -2.09,0.19 20.08,20.08 0 0 1 -1.84,-2.91 5.51,5.51 0 0 0 0.81,0.05 1.81,1.81 0 0 0 0.52,-0.07 c -1.87,-1.62 -3.43,-3.72 -3.43,-6.1 a 3.85,3.85 0 0 1 0.22,-1.17 h 0.14 l 4.73,7.57 C 24.82,25 25.93,25 27.61,25 a 12.14,12.14 0 0 1 -2.74,-3.11 l -4.43,-7.1 0.7,-0.25 3.93,6.28 C 26.48,23 27.59,23 29.27,23 a 11.8,11.8 0 0 1 -2.74,-3.11 l -3.81,-6.1 0.63,-0.38 3.12,5 c 1.42,2.24 2.53,2.2 4.2,2.2 A 12.27,12.27 0 0 1 28,17.49 l -3.2,-5.13 c 0.19,-0.17 0.37,-0.35 0.54,-0.53 l 2.27,3.64 c 1.39,2.24 2.5,2.19 4.18,2.19 A 11.84,11.84 0 0 1 29,14.54 l -2.6,-4.21 a 6.33,6.33 0 0 0 0.36,-0.8 z"
       transform="translate(0.01,-0.66)"
       id="path12" />
    <path
       d="M 45.52,29.66 H 40.68 V 2 h 4.84 z"
       transform="translate(0.01,-0.66)"
       id="path14" />
    <path
       class="cls-2"
       d="M 45.52,57.3 H 40.68 V 29.66 h 4.84 z"
       transform="translate(0.01,-0.66)"
       id="path16" />
    <path
       class="cls-3"
       d="M 45.52,85 H 40.68 V 57.3 h 4.84 z"
       transform="translate(0.01,-0.66)"
       id="path18" />
  </g>
</svg>
