<?xml version="1.0" encoding="UTF-8"?>
<!-- Generator: Adobe Illustrator 24.0.1, SVG Export Plug-In . SVG Version: 6.00 Build 0)  -->
<svg version="1.0" id="Ebene_1" xmlns="http://www.w3.org/2000/svg" xmlns:xlink="http://www.w3.org/1999/xlink" x="0px" y="0px" width="396.85px" height="70.866px" viewBox="0 0 396.85 70.866" enable-background="new 0 0 396.85 70.866" xml:space="preserve">
<g>
	
		<linearGradient id="SVGID_1_" gradientUnits="userSpaceOnUse" x1="303.9078" y1="113.2959" x2="303.9078" y2="164.9793" gradientTransform="matrix(0.9135 -0.4067 0.4067 0.9135 -80.3411 35.7418)">
		<stop offset="0.5" style="stop-color:#0A46AA"/>
		<stop offset="0.5967" style="stop-color:#0A45A6"/>
		<stop offset="0.6834" style="stop-color:#09419C"/>
		<stop offset="0.7662" style="stop-color:#083C89"/>
		<stop offset="0.8462" style="stop-color:#063470"/>
		<stop offset="0.9" style="stop-color:#052D5A"/>
	</linearGradient>
	<path fill="url(#SVGID_1_)" d="M256.74,49.328c-2.459-2.297-4.514-5.111-5.967-8.382c-0.021-0.047-0.035-0.092-0.053-0.139   c-0.023-0.047-0.049-0.088-0.07-0.135c-0.201-0.455-0.371-0.915-0.514-1.378c-3.947-10.775-0.26-22.693,8.641-29.432   c-2.305,0.332-4.6,0.958-6.832,1.951c-10.846,4.827-16.699,16.208-15.027,27.406c0.338,2.264,0.957,4.518,1.934,6.711   c5.803,13.035,21.076,18.899,34.113,13.096c1.852-0.824,3.541-1.857,5.088-3.033C270.275,57.117,262.415,54.621,256.74,49.328z"/>
	
		<radialGradient id="SVGID_2_" cx="307.9193" cy="156.8889" r="68.3374" gradientTransform="matrix(0.9135 -0.4067 0.4067 0.9135 -80.3411 35.7418)" gradientUnits="userSpaceOnUse">
		<stop offset="0.1925" style="stop-color:#00C8F0"/>
		<stop offset="0.3689" style="stop-color:#067CC7"/>
		<stop offset="0.4882" style="stop-color:#0A46AA"/>
	</radialGradient>
	<path fill="url(#SVGID_2_)" d="M282.949,19.72c1.674,11.197-4.182,22.581-15.025,27.407c-0.037,0.016-0.074,0.025-0.111,0.043   c-0.035,0.02-0.068,0.039-0.105,0.053c-0.445,0.201-0.895,0.361-1.346,0.51c-6.143,1.955-12.896-0.941-15.641-6.925   c0.018,0.047,0.031,0.092,0.053,0.139c1.453,3.271,3.508,6.085,5.967,8.382c5.676,5.293,13.535,7.789,21.312,6.666   c9.359-7.082,12.986-19.899,8.006-31.086C285.216,23.019,284.156,21.297,282.949,19.72z"/>
	<linearGradient id="SVGID_3_" gradientUnits="userSpaceOnUse" x1="249.9641" y1="22.0379" x2="281.2834" y2="33.4373">
		<stop offset="0.1" style="stop-color:#6EB414"/>
		<stop offset="0.1258" style="stop-color:#70BB11"/>
		<stop offset="0.2337" style="stop-color:#76D304"/>
		<stop offset="0.3" style="stop-color:#78DC00"/>
		<stop offset="0.7" style="stop-color:#78DC00"/>
		<stop offset="0.7663" style="stop-color:#76D304"/>
		<stop offset="0.8742" style="stop-color:#70BB11"/>
		<stop offset="0.9" style="stop-color:#6EB414"/>
	</linearGradient>
	<path fill="url(#SVGID_3_)" d="M258.777,9.863c-8.9,6.738-12.588,18.656-8.641,29.432c-1.953-6.183,0.998-12.98,7.061-15.677   c6.52-2.904,14.156,0.026,17.059,6.545c2.887,6.482,0,14.069-6.443,17.007c0.037-0.018,0.074-0.027,0.111-0.043   c10.844-4.826,16.699-16.21,15.025-27.407C277.269,12.296,267.978,8.533,258.777,9.863z"/>
	<path fill="#FFFFFF" d="M267.707,47.223c0.037-0.014,0.07-0.033,0.105-0.053c-0.478,0.209-0.967,0.381-1.451,0.562   C266.812,47.584,267.261,47.424,267.707,47.223z"/>
	<path fill="#FFFFFF" d="M250.65,40.673c0.021,0.047,0.047,0.088,0.07,0.135c-0.225-0.5-0.4-1.009-0.584-1.513   C250.279,39.758,250.449,40.218,250.65,40.673z"/>
	<path fill="none" d="M274.255,30.163c-2.902-6.519-10.539-9.449-17.059-6.545c-6.063,2.696-9.014,9.494-7.061,15.677   c0.184,0.504,0.359,1.013,0.584,1.513c2.744,5.983,9.498,8.88,15.641,6.925c0.484-0.182,0.973-0.354,1.451-0.562   C274.255,44.232,277.142,36.646,274.255,30.163z"/>
	<g>
		<path fill="#0A46AA" d="M187.908,10.513h9.055l18.883,28.782c1.895,2.879,4.141,7.719,4.141,7.719h0.139    c0,0-0.488-4.771-0.488-7.719V10.513h8.982v49.839h-8.982l-18.881-28.709c-1.896-2.877-4.143-7.721-4.143-7.721h-0.141    c0,0,0.49,4.771,0.49,7.721v28.709h-9.055V10.513z"/>
		<path fill="#0A46AA" d="M296.333,10.513h16.074c5.404,0,7.863,0.422,10.037,1.404c4.982,2.247,8.145,7.018,8.145,13.618    c0,5.966-3.162,11.511-8.424,13.619v0.141c0,0,0.701,0.704,1.684,2.457l10.246,18.6H323.99l-9.896-18.6h-8.705v18.6h-9.055V10.513    z M313.529,33.888c4.846,0,7.865-2.878,7.865-7.861c0-4.774-2.037-7.721-9.127-7.721h-6.879v15.582H313.529z"/>
		<path fill="#0A46AA" d="M343.757,10.513h9.828l10.039,24.64c1.125,2.948,2.812,7.301,2.812,7.301h0.139    c0,0,1.619-4.352,2.742-7.301l10.039-24.64h9.83l1.732,49.839h-9.127l-0.121-27.866c-0.211-3.303-0.072-7.724-0.072-7.724h-0.139    c0,0-1.475,4.844-2.668,7.724l-8.354,19.304h-7.934l-8.285-19.304c-1.193-2.88-2.736-7.793-2.736-7.793h-0.141    c0,0,0.141,4.49-0.07,7.793l-0.125,27.866h-9.195L343.757,10.513z"/>
		<polygon fill="#0A46AA" points="5.931,11.016 35.992,11.016 35.992,15.368 10.773,15.368 10.773,33.338 31.781,33.338     31.781,37.692 10.773,37.692 10.773,56.012 37.255,56.012 37.255,60.361 5.931,60.361   "/>
		<path fill="#0A46AA" d="M44.669,11.016h4.912v32.08c0,8.492,5.475,13.617,13.969,13.617c8.494,0,14.039-5.125,14.039-13.756    V11.016h4.842v32.148c0,10.951-7.652,18.041-18.81,18.041c-11.232,0-18.951-7.09-18.951-18.041V11.016z"/>
		<path fill="#0A46AA" d="M91.302,11.016h14.6c5.055,0,7.299,0.49,9.266,1.333c4.633,2.036,7.439,6.739,7.439,12.706    c0,6.669-3.789,11.795-9.336,13.338v0.139c0,0,0.494,0.633,1.264,1.968l10.742,19.862h-5.549L108.57,39.586H96.146v20.775h-4.844    V11.016z M107.869,35.233c5.965,0,9.754-3.863,9.754-10.038c0-4.073-1.613-7.091-4.49-8.635c-1.473-0.771-3.229-1.192-7.018-1.192    h-9.969v19.865H107.869z"/>
		<path fill="#0A46AA" d="M154.591,10.174c13.969,0,25.131,11.02,25.131,25.198c0,14.46-11.162,25.833-25.131,25.833    c-13.971,0-25.131-11.373-25.131-25.833C129.46,21.193,140.621,10.174,154.591,10.174 M154.591,56.713    c11.092,0,20.076-9.268,20.076-21.341c0-11.792-8.984-20.708-20.076-20.708c-11.162,0-20.08,8.916-20.08,20.708    C134.511,47.445,143.429,56.713,154.591,56.713"/>
	</g>
</g>
</svg>