<svg width="223" height="65" viewBox="0 0 223 65" fill="none" xmlns="http://www.w3.org/2000/svg">
<path d="M31.4513 35.2233C33.6282 40.5172 31.4824 43.3334 25.0496 43.3334H22.9371V42.8378C27.5041 42.4352 29.3789 40.1145 27.9395 36.617L21.7554 21.6667H27.8773C32.8818 21.6667 34.59 22.8126 36.3315 24.4519L56.1277 43.3334H50.9699L30.1785 23.4918C29.0679 22.441 28.6547 22.2551 27.8462 22.2551H26.1069L31.4513 35.2233ZM200.95 36.0374V21.9676H198.044V31.0134L191.787 21.9676H188.821V36.0374H191.747V27.0137L198.024 36.0374H200.95ZM178.71 33.5442C176.266 33.5442 174.29 31.6549 174.29 29.0025C174.29 26.35 176.289 24.4607 178.71 24.4607C181.131 24.4607 183.13 26.35 183.13 29.0025C183.13 31.6549 181.131 33.5442 178.71 33.5442ZM178.71 36.3383C182.93 36.3383 186.218 33.042 186.218 29.0025C186.218 24.9629 182.928 21.6667 178.71 21.6667C174.492 21.6667 171.202 24.9629 171.202 29.0025C171.202 33.042 174.472 36.3383 178.71 36.3383ZM168.492 21.9587H165.451V36.0285H168.499L168.492 21.9587ZM158.967 36.0285V24.7417H163.345V21.9676H151.506V24.7417H155.886V36.0374L158.967 36.0285ZM143.549 30.3409L145.446 25.3147L147.343 30.3409H143.549ZM152.732 36.0285L147.272 21.9676H143.738L138.267 36.0374H141.397L142.525 33.042H148.383L149.513 36.0374L152.732 36.0285ZM136.37 21.9676H133.324V36.0374H136.37V21.9676ZM117.118 21.9676L122.587 36.0374H125.959L131.427 21.9676H128.258L124.324 32.3651L120.394 21.9676H117.118ZM109.37 30.3497L111.267 25.3235L113.164 30.3497H109.37ZM118.551 36.0374L113.082 21.9676H109.55L104.081 36.0374H107.209L108.339 33.042H114.192L115.323 36.0374H118.551ZM97.1195 36.0374V24.7417H101.498V21.9676H89.6515V24.7417H94.0319V36.0374H97.1195ZM87.9566 36.0374V33.2632H80.9151V30.248H87.2503V27.5557H80.9151V24.7417H87.9633V21.9676H77.8475V36.0374H87.9566ZM64.5286 31.0532C64.6286 34.3494 66.6255 36.3383 69.8597 36.3383C73.0073 36.3383 75.2486 34.1481 75.2486 31.093V21.9676H72.1766V31.093C72.1766 32.5597 71.2281 33.5442 69.8553 33.5442C68.4825 33.5442 67.6562 32.6593 67.574 31.0532H64.5286ZM66.8321 39.8314L64.5264 43.3334H65.8592L66.2635 42.6697H68.9934L69.4377 43.3334H70.846L68.5492 39.8314H66.8321ZM66.761 41.8224L67.6185 40.4552H67.6584L68.5247 41.8224H66.761ZM73.3028 41.5901C73.3028 42.652 74.1624 43.3444 75.1909 43.3444H78.374V41.172H75.9528V41.9419H77.2056V42.5038H75.5241C74.9687 42.5038 74.4867 42.1852 74.4867 41.5901C74.4867 40.995 74.9687 40.6831 75.5241 40.6831H78.3762V39.8424H75.1864C74.1513 39.8314 73.3028 40.5194 73.3028 41.5901ZM79.338 43.3444H83.3874V42.5038H80.4998V41.9419H83.3874V41.172H80.4998V40.6809H83.3874V39.8424H79.3336L79.338 43.3444ZM88.0011 42.1188H87.9811L85.8686 39.8424H84.2515V43.3444H85.3622V40.9109H85.3755L87.6679 43.3444H89.074V39.8314H88.0122L88.0011 42.1188ZM90.0269 43.3444H94.0763V42.5038H91.1886V41.9419H94.0763V41.172H91.1886V40.6809H94.0763V39.8424H90.0269V43.3444ZM99.7495 41.057C99.7495 40.1964 99.0254 39.8424 98.2523 39.8424H94.9426V43.3444H96.1066V42.2383H97.5637L98.359 43.3444H99.6917C99.3874 42.9462 99.0809 42.5458 98.7832 42.1432C99.3474 42.0016 99.7495 41.672 99.7495 41.0459V41.057ZM98.0169 41.4596H96.1066V40.6167H98.0169C98.2879 40.6167 98.5389 40.734 98.5389 41.037C98.5389 41.3401 98.2812 41.4485 98.0169 41.4485V41.4596ZM102.344 39.8424L100.038 43.3444H101.371L101.775 42.6807H104.51L104.954 43.3444H106.362L104.065 39.8424H102.344ZM102.273 41.8335L103.13 40.4663H103.168L104.039 41.8335H102.273ZM107.995 39.8424H106.831V43.3444H110.856V42.5038H107.995V39.8424ZM117.14 39.8424H113.797V43.3444H117.14C118.164 43.3444 119.021 42.652 119.021 41.5945C119.021 40.5371 118.173 39.8314 117.14 39.8314V39.8424ZM116.802 42.4971H114.961V40.6765H116.802C117.36 40.6765 117.844 40.9928 117.844 41.5879C117.844 42.183 117.36 42.4927 116.802 42.4927V42.4971ZM122.045 41.2273L120.616 39.8314H119.119L121.394 42.121V43.3334H122.553V42.1144L124.837 39.8314H123.446L122.045 41.2273ZM129.077 42.1122H129.057L126.945 39.8358H125.328V43.3378H126.438V40.9043H126.452L128.744 43.3378H130.135V39.8314H129.073L129.077 42.1122ZM132.927 39.8358L130.612 43.3334H131.945L132.351 42.6697H135.086L135.53 43.3334H136.938L134.642 39.8314L132.927 39.8358ZM132.856 41.8268L133.713 40.4597H133.753L134.622 41.8268H132.856ZM140.63 42.2847H140.599L139.266 39.8247H137.416V43.3267H138.527V40.672H138.562L140.03 43.3267H141.157L142.663 40.672H142.692V43.3267H143.789V39.8314H141.941L140.63 42.2847ZM144.753 43.3267H145.917V39.8314H144.753V43.3267ZM146.688 41.5768C146.688 42.6343 147.547 43.3267 148.576 43.3267H151.463V42.4861H148.905C148.347 42.4861 147.865 42.1675 147.865 41.5768C147.865 40.9862 148.347 40.6654 148.905 40.6654H151.452V39.8247H148.565C147.536 39.8314 146.683 40.5194 146.683 41.5901L146.688 41.5768ZM155.795 41.1101H153.685C153.538 41.1101 153.387 41.0437 153.387 40.8711C153.387 40.6986 153.527 40.63 153.685 40.63H156.846V39.8247H153.314C153.033 39.8374 152.767 39.9574 152.573 40.16C152.379 40.3625 152.27 40.6319 152.27 40.9121C152.27 41.1922 152.379 41.4616 152.573 41.6641C152.767 41.8667 153.033 41.9867 153.314 41.9994H155.422C155.604 41.9994 155.788 42.0436 155.788 42.2582C155.788 42.4728 155.602 42.5192 155.422 42.5192H152.285V43.3267H155.793C156.087 43.3267 156.37 43.2102 156.578 43.0027C156.786 42.7953 156.903 42.514 156.903 42.2206C156.903 41.9272 156.786 41.6459 156.578 41.4384C156.37 41.231 156.087 41.1145 155.793 41.1145L155.795 41.1101ZM159.711 41.5901C159.711 42.6476 160.569 43.34 161.595 43.34H164.482V42.4993H161.932C161.377 42.4993 160.893 42.1808 160.893 41.5901C160.893 40.9994 161.377 40.6787 161.932 40.6787H164.478V39.838H161.59C160.571 39.8314 159.711 40.5194 159.711 41.5901ZM168.616 39.838H166.941C165.909 39.838 165.053 40.526 165.053 41.5901C165.053 42.6542 165.913 43.34 166.941 43.34H168.616C169.647 43.34 170.507 42.6564 170.507 41.5901C170.507 40.5238 169.654 39.8314 168.623 39.8314L168.616 39.838ZM168.312 42.4927H167.299C166.744 42.4927 166.257 42.1808 166.257 41.5835C166.257 40.9862 166.739 40.672 167.299 40.672H168.312C168.867 40.672 169.354 40.9884 169.354 41.5835C169.354 42.1786 168.874 42.4927 168.319 42.4927H168.312ZM174.489 42.2914H174.461L173.128 39.8314H171.28V43.3334H172.39V40.6787H172.424L173.896 43.3334H175.02L176.529 40.6787H176.555V43.3334H177.666V39.8314H175.831L174.489 42.2914ZM181.986 39.8314H178.621V43.3334H179.783V42.2272H181.993C182.797 42.2272 183.426 41.891 183.426 41.0238C183.426 40.1566 182.797 39.8314 181.993 39.8314H181.986ZM181.744 41.4485H179.776V40.6167H181.744C182.02 40.6167 182.228 40.7384 182.228 41.037C182.228 41.3357 182.026 41.4485 181.751 41.4485H181.744ZM185.436 39.8314L183.13 43.3334H184.463L184.867 42.6697H187.604L188.037 43.3334H189.445L187.151 39.8314H185.436ZM185.363 41.8224L186.222 40.4552H186.26L187.129 41.8224H185.363ZM193.673 42.0967H193.653L191.538 39.8203H189.921V43.3223H191.031V40.8888H191.047L193.339 43.3223H194.728V39.8314H193.668L193.673 42.0967ZM199.552 39.8203L198.14 41.2229L196.711 39.8314H195.216L197.493 42.121V43.3334H198.65V42.1144L200.943 39.8314L199.552 39.8203Z" fill="#041E42"/>
</svg>