<?xml version="1.0" encoding="UTF-8"?>
<!-- Generator: Adobe Illustrator 15.0.2, SVG Export Plug-In . SVG Version: 6.00 Build 0)  -->
<!DOCTYPE svg PUBLIC "-//W3C//DTD SVG 1.1//EN" "http://www.w3.org/Graphics/SVG/1.1/DTD/svg11.dtd">
<svg version="1.1" id="Ebene_1" xmlns="http://www.w3.org/2000/svg" xmlns:xlink="http://www.w3.org/1999/xlink" x="0px" y="0px" width="383px" height="137.61px" viewBox="0 0 383 137.61" enable-background="new 0 0 383 137.61" xml:space="preserve">
<g>
	<path fill="#787878" d="M15.154,29.83c0.917,1.68,2.587,3.389,5.01,5.127c2.421,1.739,5.801,3.418,10.137,5.039   c4.336,1.622,8.145,3.281,11.426,4.98s5.83,3.516,7.646,5.449s3.095,3.975,3.838,6.123c0.742,2.149,1.113,4.61,1.113,7.383   c0,6.837-2.364,11.974-7.09,15.41c-4.727,3.438-11.602,5.156-20.625,5.156c-7.071,0-13.184-0.762-18.34-2.285l1.172-5.508   c3.32,1.251,6.435,2.12,9.346,2.607c2.91,0.489,6.006,0.732,9.287,0.732c7.343,0,12.753-1.21,16.23-3.633   c3.476-2.421,5.215-6.405,5.215-11.953c0-4.336-1.348-7.899-4.043-10.693c-2.695-2.792-7.93-5.605-15.703-8.438   c-7.774-2.832-13.184-5.801-16.23-8.906s-4.57-7.041-4.57-11.807c0-5.781,2.158-10.43,6.475-13.945   c4.316-3.516,9.599-5.273,15.85-5.273c6.992,0,12.949,0.684,17.871,2.051l-1.172,4.922c-3.633-0.859-6.709-1.474-9.229-1.846   c-2.52-0.371-5.127-0.557-7.822-0.557c-5.469,0-9.697,1.241-12.686,3.721c-2.988,2.481-4.482,5.596-4.482,9.346   C13.777,25.885,14.235,28.15,15.154,29.83z"/>
	<path fill="#787878" d="M96.57,82.798h-6.094l0.059-1.406c0.429-11.836,0.645-19.413,0.645-22.734c0-6.405-2.344-13.339-7.031-20.8   c-4.688-7.46-9.346-14.385-13.975-20.771S63.23,7.154,63.23,6.451h6.445c0,1.016,3.789,7.012,11.367,17.988   C88.62,35.416,92.956,44.225,94.05,50.865h0.469c0.078-2.734,1.24-6.279,3.486-10.635c2.246-4.355,5-8.925,8.262-13.711   c3.261-4.785,6.279-9.218,9.053-13.301c2.773-4.082,4.16-6.337,4.16-6.768h5.801c0,1.172-2.95,5.713-8.848,13.623   c-5.899,7.91-10.762,15.01-14.59,21.299c-3.829,6.29-5.742,12.09-5.742,17.402C96.101,66.274,96.257,74.283,96.57,82.798z"/>
	<path fill="#787878" d="M151.238,14.302c15.781,22.54,26.191,37.813,31.23,45.82c5.039,8.009,7.676,12.363,7.91,13.066h0.234   c-0.391-8.71-0.586-17.304-0.586-25.781V31.529c0-10.625-0.117-18.984-0.352-25.078h5.156c-0.469,8.946-0.703,21.758-0.703,38.438   c0,7.54,0.039,14.208,0.117,20.009c0.078,5.801,0.273,11.769,0.586,17.9h-3.34c-0.079,0-2.735-4.081-7.969-12.246   c-5.235-8.163-9.902-15.234-14.004-21.21l-13.418-19.57l-4.395-6.445c-1.954-2.813-3.438-4.98-4.453-6.504   c-1.016-1.523-1.719-2.656-2.109-3.398h-0.234c0.312,9.258,0.469,17.695,0.469,25.313c0,3.555-0.04,8.613-0.117,15.176   l-0.059,13.242c0,6.368,0.097,11.583,0.293,15.645h-5.156c0.664-15.077,0.996-28.476,0.996-40.195   c0-11.836-0.333-23.886-0.996-36.152h5.508c0,0.117,0.722,1.192,2.168,3.223L151.238,14.302z"/>
	<path fill="#787878" d="M220.965,82.798c0.664-17.382,0.996-30.78,0.996-40.195c0-10.898-0.332-22.949-0.996-36.152h6.152   c-0.432,9.297-0.645,21.309-0.645,36.035c0,13.086,0.213,26.524,0.645,40.312H220.965z"/>
	<path fill="#787878" d="M257.469,75.005c-6.877-6.797-10.313-16.562-10.313-29.296c0-12.188,3.516-21.992,10.547-29.414   c7.031-7.421,15.271-11.133,24.727-11.133c9.219,0,17.176,3.486,23.877,10.459c6.699,6.973,10.049,16.318,10.049,28.037   c0,12.813-3.508,22.939-10.518,30.38c-7.012,7.441-15.303,11.162-24.873,11.162C272.176,85.2,264.344,81.802,257.469,75.005z    M266.316,14.097c-4.57,3.301-8.066,7.715-10.488,13.242c-2.424,5.528-3.633,11.651-3.633,18.369   c0,11.446,3.037,20.225,9.111,26.337c6.072,6.114,13.232,9.17,21.475,9.17c7.344,0,13.936-3.358,19.775-10.078   c5.838-6.718,8.76-15.507,8.76-26.367c0-11.602-2.969-20.439-8.906-26.514c-5.939-6.074-13.164-9.111-21.68-9.111   C275.691,9.146,270.887,10.797,266.316,14.097z"/>
	<path fill="#787878" d="M337.068,29.83c0.916,1.68,2.586,3.389,5.01,5.127c2.422,1.739,5.801,3.418,10.137,5.039   c4.336,1.622,8.145,3.281,11.426,4.98s5.83,3.516,7.646,5.449s3.096,3.975,3.838,6.123c0.74,2.149,1.113,4.61,1.113,7.383   c0,6.837-2.365,11.974-7.09,15.41c-4.727,3.438-11.602,5.156-20.625,5.156c-7.07,0-13.184-0.762-18.34-2.285l1.172-5.508   c3.318,1.251,6.436,2.12,9.346,2.607c2.908,0.489,6.006,0.732,9.287,0.732c7.344,0,12.752-1.21,16.23-3.633   c3.477-2.421,5.215-6.405,5.215-11.953c0-4.336-1.348-7.899-4.043-10.693c-2.695-2.792-7.932-5.605-15.703-8.438   c-7.773-2.832-13.184-5.801-16.23-8.906s-4.57-7.041-4.57-11.807c0-5.781,2.158-10.43,6.475-13.945   c4.314-3.516,9.6-5.273,15.85-5.273c6.992,0,12.949,0.684,17.871,2.051l-1.172,4.922c-3.633-0.859-6.709-1.474-9.229-1.846   c-2.52-0.371-5.127-0.557-7.822-0.557c-5.471,0-9.697,1.241-12.686,3.721c-2.988,2.481-4.482,5.596-4.482,9.346   C335.691,25.885,336.15,28.15,337.068,29.83z"/>
	<path fill="#787878" d="M8.195,131.038v-13.793h3.626c2.36,0,4.143,0.565,5.348,1.697s1.809,2.805,1.809,5.017   c0,1.064-0.168,2.032-0.505,2.905c-0.337,0.871-0.823,1.617-1.458,2.236s-1.404,1.096-2.309,1.434   c-0.904,0.336-1.924,0.504-3.059,0.504H8.195z M9.475,118.419v11.455h2.116c0.949,0,1.797-0.127,2.544-0.385   c0.747-0.256,1.38-0.633,1.9-1.129c0.519-0.498,0.915-1.111,1.188-1.843c0.272-0.731,0.409-1.571,0.409-2.521   c0-3.719-1.966-5.578-5.896-5.578H9.475z"/>
	<path fill="#787878" d="M25.568,131.27c-0.731,0-1.387-0.122-1.967-0.366c-0.581-0.243-1.076-0.588-1.486-1.033   c-0.411-0.445-0.725-0.98-0.943-1.602c-0.218-0.622-0.327-1.312-0.327-2.068c0-0.82,0.116-1.555,0.346-2.203   c0.231-0.647,0.56-1.197,0.986-1.649c0.426-0.452,0.941-0.797,1.543-1.034c0.603-0.236,1.276-0.355,2.02-0.355   c0.712,0,1.353,0.117,1.924,0.351c0.571,0.234,1.055,0.573,1.453,1.015c0.397,0.443,0.702,0.981,0.914,1.616   c0.211,0.636,0.317,1.356,0.317,2.165c0,0.77-0.111,1.47-0.332,2.102c-0.221,0.631-0.537,1.175-0.947,1.63   c-0.411,0.456-0.911,0.808-1.501,1.059C26.979,131.145,26.312,131.27,25.568,131.27z M25.664,122.025   c-0.539,0-1.026,0.093-1.462,0.278c-0.436,0.187-0.81,0.457-1.121,0.813s-0.55,0.792-0.716,1.308   c-0.167,0.518-0.25,1.102-0.25,1.756c0,0.615,0.083,1.17,0.25,1.664c0.167,0.494,0.402,0.918,0.707,1.27   c0.304,0.354,0.675,0.624,1.111,0.813c0.436,0.188,0.923,0.284,1.462,0.284c0.552,0,1.039-0.092,1.462-0.275   c0.423-0.182,0.782-0.448,1.077-0.798c0.295-0.349,0.518-0.777,0.668-1.284c0.151-0.506,0.226-1.084,0.226-1.731   c0-1.327-0.295-2.343-0.885-3.044C27.604,122.376,26.761,122.025,25.664,122.025z"/>
	<path fill="#787878" d="M39.381,130.597c-0.731,0.441-1.616,0.67-2.655,0.683c-0.706,0.006-1.34-0.116-1.905-0.366   c-0.564-0.25-1.045-0.598-1.443-1.043c-0.397-0.445-0.702-0.972-0.914-1.578c-0.211-0.605-0.317-1.265-0.317-1.977   c0-0.737,0.112-1.432,0.336-2.082c0.225-0.651,0.552-1.219,0.981-1.703c0.429-0.484,0.955-0.867,1.578-1.149   c0.622-0.282,1.333-0.423,2.135-0.423c0.814,0,1.558,0.156,2.231,0.471v1.309c-0.718-0.475-1.494-0.712-2.328-0.712   c-0.583,0-1.103,0.11-1.558,0.332c-0.456,0.222-0.839,0.522-1.15,0.904s-0.548,0.827-0.711,1.337   c-0.164,0.51-0.246,1.051-0.246,1.621c0,0.525,0.069,1.029,0.207,1.51c0.138,0.48,0.349,0.906,0.635,1.274   c0.285,0.369,0.646,0.663,1.082,0.88c0.436,0.219,0.949,0.328,1.539,0.328c0.923,0,1.757-0.276,2.501-0.828V130.597z"/>
	<path fill="#787878" d="M48.192,131.038v-1.674h-0.038c-0.667,1.271-1.703,1.905-3.107,1.905c-2.341,0-3.511-1.431-3.511-4.29   v-5.791h1.231v5.561c0,1.18,0.21,2.052,0.63,2.615c0.42,0.564,1.063,0.848,1.929,0.848c0.423,0,0.81-0.082,1.159-0.246   c0.349-0.163,0.651-0.395,0.904-0.692c0.253-0.298,0.45-0.655,0.591-1.072s0.211-0.879,0.211-1.386v-5.627h1.231v9.85H48.192z"/>
	<path fill="#787878" d="M64.978,131.038v-5.79c0-0.591-0.045-1.089-0.134-1.496c-0.09-0.407-0.229-0.739-0.418-0.995   c-0.189-0.257-0.43-0.443-0.722-0.559s-0.64-0.173-1.043-0.173c-0.359,0-0.699,0.085-1.02,0.255   c-0.321,0.17-0.602,0.404-0.842,0.702c-0.241,0.298-0.43,0.649-0.568,1.054c-0.138,0.404-0.207,0.84-0.207,1.309v5.693h-1.231   v-5.915c0-2.065-0.792-3.098-2.376-3.098c-0.365,0-0.705,0.082-1.02,0.245c-0.314,0.164-0.588,0.393-0.822,0.688   c-0.234,0.295-0.417,0.65-0.548,1.063s-0.197,0.87-0.197,1.37v5.646h-1.231v-9.85h1.231v1.597h0.039   c0.692-1.218,1.703-1.827,3.03-1.827c0.347,0,0.673,0.053,0.981,0.158c0.308,0.105,0.583,0.254,0.827,0.443   c0.244,0.188,0.454,0.414,0.63,0.678c0.176,0.263,0.31,0.551,0.399,0.865c0.346-0.699,0.797-1.23,1.352-1.597   c0.555-0.365,1.181-0.548,1.88-0.548c2.161,0,3.242,1.334,3.242,4.002v6.078H64.978z"/>
	<path fill="#787878" d="M69.758,126.335c0.006,0.603,0.087,1.145,0.241,1.625c0.154,0.481,0.375,0.889,0.664,1.223   c0.289,0.333,0.64,0.588,1.053,0.764c0.414,0.177,0.88,0.266,1.4,0.266c1.109,0,2.158-0.389,3.145-1.164v1.211   c-0.942,0.674-2.084,1.011-3.424,1.011c-0.661,0-1.26-0.116-1.799-0.347c-0.539-0.23-0.997-0.565-1.375-1.005   c-0.378-0.438-0.67-0.979-0.875-1.621c-0.205-0.642-0.308-1.372-0.308-2.192c0-0.738,0.112-1.421,0.337-2.049   c0.224-0.629,0.535-1.172,0.933-1.631c0.398-0.459,0.869-0.818,1.414-1.078c0.545-0.26,1.142-0.389,1.79-0.389   c0.635,0,1.196,0.11,1.683,0.332c0.487,0.221,0.896,0.537,1.227,0.947c0.33,0.41,0.582,0.91,0.755,1.5   c0.173,0.59,0.26,1.251,0.26,1.982v0.615H69.758z M75.607,125.257c-0.02-1.025-0.263-1.82-0.731-2.385   c-0.468-0.564-1.119-0.847-1.953-0.847c-0.417,0-0.803,0.073-1.159,0.222c-0.356,0.146-0.668,0.36-0.938,0.639   c-0.27,0.279-0.492,0.619-0.668,1.02c-0.177,0.401-0.3,0.852-0.371,1.352H75.607z"/>
	<path fill="#787878" d="M85.938,131.038v-5.675c0-2.226-0.808-3.338-2.424-3.338c-0.43,0-0.827,0.085-1.193,0.255   s-0.682,0.406-0.947,0.707c-0.267,0.302-0.475,0.659-0.625,1.072c-0.151,0.414-0.226,0.861-0.226,1.342v5.637h-1.231v-9.85h1.231   v1.713h0.039c0.731-1.296,1.831-1.943,3.299-1.943c1.077,0,1.898,0.35,2.462,1.049c0.564,0.698,0.847,1.709,0.847,3.029v6.002   H85.938z"/>
	<path fill="#787878" d="M94.364,130.923c-0.423,0.212-0.885,0.318-1.385,0.318c-1.591,0-2.386-0.918-2.386-2.752v-6.223h-1.731   v-1.078h1.731v-2.481l1.231-0.404v2.886h2.539v1.078h-2.539v6.03c0,0.667,0.109,1.148,0.327,1.443   c0.218,0.295,0.586,0.442,1.106,0.442c0.385,0,0.753-0.115,1.106-0.347V130.923z"/>
	<path fill="#787878" d="M112.016,131.038l-1.674-1.664c-1.264,1.27-2.783,1.905-4.56,1.905c-0.667,0-1.268-0.092-1.804-0.274   c-0.535-0.183-0.991-0.439-1.366-0.77s-0.662-0.723-0.861-1.178c-0.199-0.456-0.298-0.953-0.298-1.492   c0-1.692,1.055-3.045,3.165-4.059c-1.013-1.244-1.52-2.334-1.52-3.271c0-0.462,0.086-0.888,0.26-1.279   c0.173-0.392,0.417-0.731,0.731-1.02c0.314-0.288,0.685-0.515,1.111-0.679c0.426-0.163,0.896-0.245,1.409-0.245   c0.475,0,0.904,0.071,1.289,0.212s0.712,0.336,0.981,0.586c0.27,0.251,0.478,0.549,0.625,0.896s0.221,0.725,0.221,1.135   c0,0.437-0.058,0.832-0.173,1.188c-0.115,0.355-0.301,0.689-0.558,1c-0.257,0.311-0.588,0.604-0.996,0.88   c-0.407,0.276-0.903,0.552-1.486,0.827c0.577,0.609,1.191,1.238,1.842,1.886s1.345,1.331,2.083,2.049   c0.173-0.257,0.332-0.54,0.476-0.851c0.144-0.312,0.268-0.637,0.37-0.977s0.183-0.688,0.241-1.044   c0.058-0.356,0.093-0.707,0.106-1.054h1.183c-0.032,1.738-0.574,3.315-1.626,4.732c0.347,0.34,0.734,0.721,1.164,1.141   s0.914,0.896,1.453,1.428L112.016,131.038z M109.601,128.604c-0.763-0.75-1.493-1.479-2.188-2.188   c-0.696-0.709-1.374-1.412-2.034-2.111c-0.924,0.436-1.597,0.908-2.02,1.418c-0.423,0.51-0.635,1.102-0.635,1.775   c0,0.404,0.076,0.772,0.226,1.105c0.151,0.334,0.361,0.617,0.63,0.852c0.269,0.234,0.595,0.417,0.976,0.549   c0.381,0.131,0.803,0.197,1.265,0.197C107.27,130.202,108.53,129.669,109.601,128.604z M105.772,122.978   c0.487-0.225,0.903-0.45,1.246-0.678c0.343-0.228,0.624-0.463,0.842-0.707c0.218-0.244,0.378-0.5,0.481-0.77   s0.154-0.555,0.154-0.856c0-0.282-0.049-0.54-0.149-0.774s-0.236-0.436-0.409-0.605c-0.173-0.17-0.375-0.302-0.606-0.395   c-0.231-0.094-0.481-0.14-0.75-0.14c-0.34,0-0.648,0.055-0.923,0.163c-0.276,0.109-0.51,0.262-0.702,0.457   s-0.342,0.428-0.447,0.697c-0.106,0.27-0.159,0.562-0.159,0.876C104.349,121.003,104.823,121.913,105.772,122.978z"/>
	<path fill="#787878" d="M133.091,131.038h-1.337l-2.953-10.225c-0.07-0.244-0.126-0.478-0.168-0.702   c-0.042-0.225-0.065-0.442-0.072-0.654h-0.039c-0.026,0.372-0.119,0.817-0.279,1.337l-3.059,10.244h-1.337l-4.069-13.793h1.423   l3.04,10.821c0.071,0.237,0.127,0.464,0.168,0.679s0.075,0.421,0.101,0.619h0.039c0.039-0.288,0.144-0.721,0.317-1.298   l3.232-10.821h1.01l3.03,10.859c0.058,0.219,0.109,0.432,0.154,0.641c0.045,0.207,0.08,0.412,0.106,0.609h0.039   c0.013-0.127,0.039-0.271,0.077-0.432c0.039-0.16,0.083-0.34,0.135-0.539l3.021-11.139h1.395L133.091,131.038z"/>
	<path fill="#787878" d="M142.576,131.27c-0.731,0-1.387-0.122-1.967-0.366c-0.581-0.243-1.076-0.588-1.486-1.033   c-0.411-0.445-0.725-0.98-0.943-1.602c-0.218-0.622-0.327-1.312-0.327-2.068c0-0.82,0.116-1.555,0.346-2.203   c0.231-0.647,0.56-1.197,0.986-1.649c0.426-0.452,0.941-0.797,1.543-1.034c0.603-0.236,1.276-0.355,2.02-0.355   c0.712,0,1.353,0.117,1.924,0.351c0.571,0.234,1.055,0.573,1.453,1.015c0.397,0.443,0.702,0.981,0.914,1.616   c0.211,0.636,0.317,1.356,0.317,2.165c0,0.77-0.111,1.47-0.332,2.102c-0.221,0.631-0.537,1.175-0.947,1.63   c-0.411,0.456-0.911,0.808-1.501,1.059C143.986,131.145,143.319,131.27,142.576,131.27z M142.672,122.025   c-0.539,0-1.026,0.093-1.462,0.278c-0.436,0.187-0.81,0.457-1.121,0.813s-0.55,0.792-0.716,1.308   c-0.167,0.518-0.25,1.102-0.25,1.756c0,0.615,0.083,1.17,0.25,1.664c0.167,0.494,0.402,0.918,0.707,1.27   c0.304,0.354,0.675,0.624,1.111,0.813c0.436,0.188,0.923,0.284,1.462,0.284c0.552,0,1.039-0.092,1.462-0.275   c0.423-0.182,0.782-0.448,1.077-0.798c0.295-0.349,0.518-0.777,0.668-1.284c0.151-0.506,0.226-1.084,0.226-1.731   c0-1.327-0.295-2.343-0.885-3.044C144.611,122.376,143.769,122.025,142.672,122.025z"/>
	<path fill="#787878" d="M154.725,122.448c-0.289-0.211-0.661-0.316-1.116-0.316c-0.327,0-0.616,0.063-0.866,0.188   s-0.47,0.293-0.659,0.504c-0.189,0.213-0.35,0.457-0.481,0.736s-0.237,0.569-0.317,0.871c-0.08,0.301-0.138,0.605-0.173,0.914   c-0.036,0.307-0.053,0.6-0.053,0.875v4.818h-1.221v-9.85h1.221v2.106h0.039c0.116-0.358,0.261-0.681,0.438-0.966   c0.176-0.286,0.38-0.526,0.611-0.723c0.23-0.195,0.482-0.344,0.755-0.447c0.272-0.102,0.56-0.153,0.861-0.153   c0.199,0,0.376,0.013,0.534,0.038s0.3,0.064,0.428,0.115V122.448z"/>
	<path fill="#787878" d="M162.314,131.038l-4.531-4.799h-0.039v4.799h-1.231v-14.582h1.231v9.32h0.039l4.3-4.588h1.606l-4.617,4.762   l4.982,5.088H162.314z"/>
	<path fill="#787878" d="M170.365,117.62c-0.275-0.18-0.631-0.27-1.067-0.27c-1.154,0-1.731,0.754-1.731,2.26v1.578h2.453v1.078   h-2.453v8.771h-1.231v-8.771h-1.722v-1.078h1.722v-1.654c0-0.494,0.063-0.941,0.188-1.342s0.31-0.744,0.553-1.029   s0.55-0.506,0.918-0.659s0.794-0.231,1.275-0.231c0.461,0,0.827,0.062,1.096,0.184V117.62z"/>
	<path fill="#787878" d="M171.578,131.038v-14.582h1.231v14.582H171.578z"/>
	<path fill="#787878" d="M180.014,131.27c-0.731,0-1.387-0.122-1.967-0.366c-0.581-0.243-1.076-0.588-1.486-1.033   c-0.41-0.445-0.725-0.98-0.942-1.602c-0.218-0.622-0.327-1.312-0.327-2.068c0-0.82,0.115-1.555,0.346-2.203   c0.231-0.647,0.56-1.197,0.986-1.649c0.426-0.452,0.941-0.797,1.543-1.034c0.603-0.236,1.276-0.355,2.02-0.355   c0.712,0,1.353,0.117,1.924,0.351c0.571,0.234,1.055,0.573,1.453,1.015c0.397,0.443,0.702,0.981,0.914,1.616   c0.211,0.636,0.317,1.356,0.317,2.165c0,0.77-0.111,1.47-0.332,2.102c-0.221,0.631-0.537,1.175-0.947,1.63   c-0.411,0.456-0.911,0.808-1.501,1.059C181.424,131.145,180.757,131.27,180.014,131.27z M180.11,122.025   c-0.539,0-1.026,0.093-1.462,0.278c-0.436,0.187-0.81,0.457-1.121,0.813s-0.55,0.792-0.716,1.308   c-0.167,0.518-0.25,1.102-0.25,1.756c0,0.615,0.083,1.17,0.25,1.664c0.167,0.494,0.402,0.918,0.707,1.27   c0.304,0.354,0.675,0.624,1.111,0.813c0.436,0.188,0.923,0.284,1.462,0.284c0.552,0,1.039-0.092,1.462-0.275   c0.423-0.182,0.782-0.448,1.077-0.798c0.295-0.349,0.518-0.777,0.668-1.284c0.151-0.506,0.226-1.084,0.226-1.731   c0-1.327-0.295-2.343-0.885-3.044C182.049,122.376,181.207,122.025,180.11,122.025z"/>
	<path fill="#787878" d="M196.174,131.038h-1.231l-2.087-7.232c-0.064-0.225-0.116-0.517-0.154-0.876h-0.038   c-0.013,0.097-0.034,0.215-0.063,0.356c-0.029,0.141-0.075,0.307-0.139,0.5l-2.299,7.252h-1.202l-2.982-9.85h1.318l2.164,7.638   c0.064,0.225,0.109,0.51,0.135,0.856h0.077c0.013-0.115,0.034-0.247,0.063-0.395s0.069-0.305,0.12-0.472l2.386-7.628h1.02   l2.135,7.647c0.058,0.218,0.106,0.503,0.145,0.856h0.077c-0.006-0.109,0.006-0.236,0.039-0.381s0.074-0.303,0.125-0.476   l2.165-7.647h1.241L196.174,131.038z"/>
	<path fill="#787878" d="M218.865,131.038v-9.522c0-0.487,0.039-1.272,0.115-2.356h-0.037c-0.09,0.288-0.172,0.539-0.246,0.75   c-0.074,0.212-0.143,0.385-0.207,0.52l-4.809,10.609h-0.549l-4.819-10.542c-0.142-0.321-0.286-0.772-0.433-1.356h-0.039   c0.025,0.295,0.043,0.632,0.053,1.01c0.01,0.379,0.015,0.799,0.015,1.26v9.629h-1.25v-13.793h1.51l4.685,10.369   c0.096,0.218,0.191,0.441,0.283,0.668c0.094,0.229,0.178,0.471,0.256,0.727h0.057c0.09-0.256,0.172-0.49,0.246-0.702   s0.164-0.438,0.273-0.683l4.723-10.379h1.434v13.793H218.865z"/>
	<path fill="#787878" d="M229.178,131.038v-1.75h-0.039c-0.32,0.629-0.758,1.115-1.313,1.462s-1.182,0.52-1.881,0.52   c-0.475,0-0.902-0.067-1.285-0.202c-0.381-0.135-0.705-0.325-0.971-0.572c-0.266-0.246-0.471-0.543-0.615-0.89   s-0.217-0.728-0.217-1.146c0-0.891,0.275-1.602,0.826-2.13c0.553-0.529,1.387-0.874,2.502-1.034l2.992-0.433   c0-1.892-0.734-2.838-2.203-2.838c-1.148,0-2.213,0.42-3.193,1.261v-1.348c0.205-0.146,0.438-0.28,0.697-0.398   c0.26-0.119,0.533-0.222,0.822-0.309c0.289-0.086,0.584-0.153,0.889-0.201c0.305-0.049,0.602-0.072,0.891-0.072   c1.096,0,1.926,0.308,2.486,0.924c0.561,0.615,0.842,1.532,0.842,2.75v6.406H229.178z M226.637,126.258   c-0.441,0.064-0.82,0.145-1.135,0.241c-0.314,0.096-0.574,0.226-0.779,0.389c-0.205,0.164-0.355,0.365-0.451,0.606   c-0.096,0.24-0.145,0.537-0.145,0.89c0,0.263,0.047,0.506,0.139,0.73c0.094,0.225,0.229,0.419,0.404,0.582   c0.178,0.164,0.391,0.291,0.645,0.381s0.541,0.135,0.861,0.135c0.436,0,0.838-0.084,1.203-0.25c0.365-0.168,0.68-0.398,0.947-0.693   c0.266-0.295,0.475-0.647,0.625-1.059c0.15-0.41,0.227-0.855,0.227-1.336v-0.973L226.637,126.258z"/>
	<path fill="#787878" d="M240.018,131.038v-5.675c0-2.226-0.809-3.338-2.424-3.338c-0.43,0-0.828,0.085-1.193,0.255   s-0.682,0.406-0.947,0.707c-0.266,0.302-0.475,0.659-0.625,1.072c-0.15,0.414-0.227,0.861-0.227,1.342v5.637h-1.23v-9.85h1.23   v1.713h0.039c0.73-1.296,1.83-1.943,3.299-1.943c1.078,0,1.898,0.35,2.463,1.049c0.564,0.698,0.846,1.709,0.846,3.029v6.002   H240.018z"/>
	<path fill="#787878" d="M249.887,131.038v-1.75h-0.039c-0.32,0.629-0.758,1.115-1.313,1.462s-1.182,0.52-1.881,0.52   c-0.475,0-0.902-0.067-1.283-0.202c-0.383-0.135-0.705-0.325-0.973-0.572c-0.266-0.246-0.471-0.543-0.615-0.89   s-0.217-0.728-0.217-1.146c0-0.891,0.277-1.602,0.828-2.13c0.551-0.529,1.385-0.874,2.5-1.034l2.992-0.433   c0-1.892-0.734-2.838-2.203-2.838c-1.146,0-2.211,0.42-3.193,1.261v-1.348c0.205-0.146,0.438-0.28,0.697-0.398   c0.26-0.119,0.535-0.222,0.822-0.309c0.289-0.086,0.586-0.153,0.891-0.201c0.305-0.049,0.602-0.072,0.889-0.072   c1.098,0,1.926,0.308,2.488,0.924c0.561,0.615,0.842,1.532,0.842,2.75v6.406H249.887z M247.348,126.258   c-0.443,0.064-0.82,0.145-1.135,0.241c-0.314,0.096-0.574,0.226-0.779,0.389c-0.205,0.164-0.355,0.365-0.453,0.606   c-0.096,0.24-0.143,0.537-0.143,0.89c0,0.263,0.045,0.506,0.139,0.73c0.092,0.225,0.227,0.419,0.404,0.582   c0.176,0.164,0.391,0.291,0.645,0.381c0.252,0.09,0.539,0.135,0.861,0.135c0.436,0,0.836-0.084,1.201-0.25   c0.365-0.168,0.682-0.398,0.947-0.693s0.475-0.647,0.625-1.059c0.15-0.41,0.227-0.855,0.227-1.336v-0.973L247.348,126.258z"/>
	<path fill="#787878" d="M262.219,130.278c0,1.828-0.416,3.183-1.246,4.064s-2.111,1.322-3.842,1.322   c-1.078,0-2.098-0.24-3.061-0.721v-1.251c1.072,0.597,2.092,0.895,3.061,0.895c2.57,0,3.857-1.359,3.857-4.078v-1.184h-0.039   c-0.758,1.296-1.912,1.943-3.463,1.943c-0.609,0-1.166-0.112-1.67-0.337c-0.502-0.225-0.934-0.549-1.293-0.971   c-0.359-0.424-0.639-0.938-0.838-1.545c-0.197-0.605-0.297-1.29-0.297-2.053c0-0.809,0.105-1.545,0.316-2.208   c0.213-0.664,0.514-1.233,0.904-1.708s0.865-0.842,1.42-1.102s1.178-0.389,1.871-0.389c1.391,0,2.406,0.564,3.049,1.693h0.039   v-1.463h1.23V130.278z M260.988,125.056c0-0.41-0.074-0.799-0.223-1.164c-0.146-0.365-0.352-0.686-0.615-0.962   s-0.576-0.495-0.938-0.659c-0.363-0.163-0.762-0.245-1.197-0.245c-0.514,0-0.977,0.1-1.391,0.298   c-0.414,0.199-0.766,0.481-1.059,0.847c-0.291,0.366-0.516,0.81-0.672,1.333c-0.158,0.521-0.236,1.11-0.236,1.765   c0,0.603,0.074,1.147,0.221,1.636c0.148,0.486,0.355,0.9,0.625,1.24s0.596,0.604,0.977,0.789s0.807,0.279,1.275,0.279   c0.486,0,0.93-0.089,1.326-0.266c0.398-0.176,0.738-0.42,1.02-0.73c0.283-0.311,0.502-0.677,0.654-1.097   c0.154-0.42,0.232-0.874,0.232-1.361V125.056z"/>
	<path fill="#787878" d="M265.98,126.335c0.006,0.603,0.086,1.145,0.24,1.625c0.154,0.481,0.375,0.889,0.664,1.223   c0.289,0.333,0.639,0.588,1.053,0.764c0.414,0.177,0.881,0.266,1.4,0.266c1.109,0,2.156-0.389,3.145-1.164v1.211   c-0.943,0.674-2.084,1.011-3.424,1.011c-0.66,0-1.26-0.116-1.799-0.347s-0.998-0.565-1.375-1.005   c-0.379-0.438-0.672-0.979-0.877-1.621s-0.307-1.372-0.307-2.192c0-0.738,0.111-1.421,0.336-2.049   c0.225-0.629,0.535-1.172,0.934-1.631c0.396-0.459,0.869-0.818,1.414-1.078s1.141-0.389,1.789-0.389   c0.635,0,1.195,0.11,1.684,0.332c0.486,0.221,0.896,0.537,1.227,0.947s0.582,0.91,0.754,1.5c0.174,0.59,0.26,1.251,0.26,1.982   v0.615H265.98z M271.828,125.257c-0.02-1.025-0.262-1.82-0.73-2.385s-1.119-0.847-1.953-0.847c-0.416,0-0.803,0.073-1.158,0.222   c-0.357,0.146-0.67,0.36-0.939,0.639c-0.268,0.279-0.492,0.619-0.668,1.02c-0.176,0.401-0.299,0.852-0.369,1.352H271.828z"/>
	<path fill="#787878" d="M287.893,131.038v-5.79c0-0.591-0.045-1.089-0.135-1.496s-0.23-0.739-0.418-0.995   c-0.189-0.257-0.43-0.443-0.723-0.559c-0.291-0.115-0.639-0.173-1.043-0.173c-0.359,0-0.699,0.085-1.02,0.255   s-0.602,0.404-0.842,0.702s-0.43,0.649-0.568,1.054c-0.137,0.404-0.207,0.84-0.207,1.309v5.693h-1.23v-5.915   c0-2.065-0.791-3.098-2.375-3.098c-0.367,0-0.707,0.082-1.02,0.245c-0.314,0.164-0.59,0.393-0.824,0.688   c-0.232,0.295-0.416,0.65-0.547,1.063c-0.133,0.413-0.197,0.87-0.197,1.37v5.646h-1.232v-9.85h1.232v1.597h0.037   c0.693-1.218,1.703-1.827,3.031-1.827c0.346,0,0.674,0.053,0.98,0.158c0.309,0.105,0.584,0.254,0.828,0.443   c0.242,0.188,0.453,0.414,0.629,0.678c0.178,0.263,0.311,0.551,0.4,0.865c0.346-0.699,0.797-1.23,1.352-1.597   c0.555-0.365,1.182-0.548,1.881-0.548c2.16,0,3.24,1.334,3.24,4.002v6.078H287.893z"/>
	<path fill="#787878" d="M292.674,126.335c0.006,0.603,0.086,1.145,0.24,1.625c0.154,0.481,0.375,0.889,0.664,1.223   c0.289,0.333,0.639,0.588,1.053,0.764c0.414,0.177,0.881,0.266,1.4,0.266c1.109,0,2.156-0.389,3.145-1.164v1.211   c-0.943,0.674-2.084,1.011-3.424,1.011c-0.66,0-1.26-0.116-1.799-0.347s-0.998-0.565-1.375-1.005   c-0.379-0.438-0.672-0.979-0.877-1.621s-0.307-1.372-0.307-2.192c0-0.738,0.111-1.421,0.336-2.049   c0.225-0.629,0.535-1.172,0.934-1.631c0.396-0.459,0.869-0.818,1.414-1.078s1.141-0.389,1.789-0.389   c0.635,0,1.195,0.11,1.684,0.332c0.486,0.221,0.896,0.537,1.227,0.947s0.582,0.91,0.754,1.5c0.174,0.59,0.26,1.251,0.26,1.982   v0.615H292.674z M298.521,125.257c-0.02-1.025-0.262-1.82-0.73-2.385s-1.119-0.847-1.953-0.847c-0.416,0-0.803,0.073-1.158,0.222   c-0.357,0.146-0.67,0.36-0.939,0.639c-0.268,0.279-0.492,0.619-0.668,1.02c-0.176,0.401-0.299,0.852-0.369,1.352H298.521z"/>
	<path fill="#787878" d="M308.854,131.038v-5.675c0-2.226-0.809-3.338-2.426-3.338c-0.43,0-0.826,0.085-1.191,0.255   s-0.682,0.406-0.947,0.707c-0.268,0.302-0.475,0.659-0.625,1.072c-0.152,0.414-0.227,0.861-0.227,1.342v5.637h-1.232v-9.85h1.232   v1.713h0.037c0.732-1.296,1.832-1.943,3.301-1.943c1.076,0,1.898,0.35,2.463,1.049c0.563,0.698,0.846,1.709,0.846,3.029v6.002   H308.854z"/>
	<path fill="#787878" d="M317.279,130.923c-0.424,0.212-0.885,0.318-1.385,0.318c-1.592,0-2.387-0.918-2.387-2.752v-6.223h-1.73   v-1.078h1.73v-2.481l1.232-0.404v2.886h2.539v1.078h-2.539v6.03c0,0.667,0.107,1.148,0.326,1.443s0.588,0.442,1.107,0.442   c0.385,0,0.752-0.115,1.105-0.347V130.923z"/>
	<path fill="#787878" d="M335.045,130.087c-1.416,0.795-2.918,1.192-4.502,1.192c-1,0-1.898-0.172-2.693-0.515   c-0.795-0.344-1.471-0.82-2.029-1.434c-0.557-0.612-0.986-1.344-1.283-2.193c-0.299-0.85-0.447-1.784-0.447-2.804   c0-0.673,0.072-1.321,0.215-1.942c0.145-0.623,0.357-1.206,0.637-1.752c0.277-0.545,0.619-1.038,1.023-1.48   c0.404-0.443,0.867-0.824,1.391-1.145c0.521-0.32,1.098-0.568,1.727-0.741c0.627-0.173,1.305-0.26,2.029-0.26   c1.365,0,2.584,0.244,3.654,0.731v1.414c-1.18-0.654-2.449-0.981-3.809-0.981c-0.84,0-1.6,0.153-2.279,0.462   c-0.68,0.308-1.26,0.73-1.736,1.27c-0.479,0.539-0.848,1.176-1.111,1.91s-0.398,1.53-0.404,2.39   c-0.006,0.853,0.105,1.64,0.332,2.361c0.229,0.722,0.566,1.345,1.016,1.871s1.004,0.937,1.664,1.231s1.424,0.442,2.289,0.442   c1.166,0,2.18-0.243,3.039-0.731v-4.203h-3.135v-1.164h4.414V130.087z"/>
	<path fill="#787878" d="M350.416,131.038v-5.79c0-0.591-0.045-1.089-0.135-1.496s-0.229-0.739-0.418-0.995   c-0.189-0.257-0.43-0.443-0.721-0.559c-0.293-0.115-0.641-0.173-1.045-0.173c-0.357,0-0.697,0.085-1.02,0.255   c-0.32,0.17-0.6,0.404-0.842,0.702c-0.24,0.298-0.43,0.649-0.566,1.054c-0.139,0.404-0.207,0.84-0.207,1.309v5.693h-1.23v-5.915   c0-2.065-0.793-3.098-2.377-3.098c-0.365,0-0.705,0.082-1.02,0.245c-0.314,0.164-0.588,0.393-0.822,0.688s-0.418,0.65-0.549,1.063   s-0.197,0.87-0.197,1.37v5.646h-1.23v-9.85h1.23v1.597h0.039c0.693-1.218,1.703-1.827,3.029-1.827c0.348,0,0.674,0.053,0.982,0.158   c0.307,0.105,0.582,0.254,0.826,0.443c0.244,0.188,0.453,0.414,0.631,0.678c0.176,0.263,0.309,0.551,0.398,0.865   c0.348-0.699,0.797-1.23,1.352-1.597c0.555-0.365,1.182-0.548,1.881-0.548c2.16,0,3.242,1.334,3.242,4.002v6.078H350.416z"/>
	<path fill="#787878" d="M355.842,129.451v1.587h-1.23v-14.582h1.23v6.617h0.039c0.365-0.686,0.854-1.209,1.467-1.572   c0.613-0.361,1.303-0.543,2.072-0.543c0.629,0,1.191,0.113,1.689,0.342c0.496,0.227,0.916,0.553,1.26,0.976   c0.342,0.423,0.605,0.933,0.789,1.53c0.182,0.596,0.273,1.26,0.273,1.99c0,0.814-0.104,1.557-0.313,2.227   c-0.209,0.671-0.506,1.246-0.891,1.727c-0.385,0.481-0.85,0.855-1.398,1.121s-1.162,0.399-1.842,0.399   c-1.393,0-2.428-0.606-3.107-1.818H355.842z M355.842,126.94c0,0.449,0.076,0.871,0.227,1.266s0.361,0.74,0.631,1.039   c0.27,0.298,0.594,0.533,0.975,0.707c0.383,0.172,0.805,0.26,1.266,0.26c0.494,0,0.939-0.105,1.338-0.313   c0.396-0.209,0.734-0.506,1.014-0.891s0.494-0.85,0.645-1.395s0.227-1.154,0.227-1.828c0-0.576-0.07-1.098-0.211-1.563   c-0.143-0.465-0.342-0.861-0.602-1.188c-0.26-0.328-0.574-0.578-0.943-0.751s-0.781-0.26-1.236-0.26   c-0.512,0-0.975,0.095-1.385,0.284s-0.76,0.447-1.049,0.773c-0.287,0.328-0.51,0.711-0.664,1.15   c-0.152,0.439-0.23,0.905-0.23,1.399V126.94z"/>
	<path fill="#787878" d="M374.918,131.038v-6.454h-7.523v6.454h-1.279v-13.793h1.279v6.185h7.523v-6.185h1.279v13.793H374.918z"/>
</g>
<line id="Line_5_" fill="none" stroke="#787878" stroke-miterlimit="10" x1="8.333" y1="101.61" x2="376.542" y2="101.61"/>
</svg>