<?xml version="1.0" encoding="UTF-8" standalone="no"?>
<svg
   id="Markenzeichen"
   viewBox="0 0 391.99999 99.000001"
   version="1.1"
   sodipodi:docname="tuev.svg"
   width="392"
   height="99"
   inkscape:version="1.2.1 (9c6d41e410, 2022-07-14)"
   xmlns:inkscape="http://www.inkscape.org/namespaces/inkscape"
   xmlns:sodipodi="http://sodipodi.sourceforge.net/DTD/sodipodi-0.dtd"
   xmlns="http://www.w3.org/2000/svg"
   xmlns:svg="http://www.w3.org/2000/svg"
   xmlns:rdf="http://www.w3.org/1999/02/22-rdf-syntax-ns#"
   xmlns:cc="http://creativecommons.org/ns#"
   xmlns:dc="http://purl.org/dc/elements/1.1/">
  <sodipodi:namedview
     id="namedview65"
     pagecolor="#505050"
     bordercolor="#eeeeee"
     borderopacity="1"
     inkscape:showpageshadow="0"
     inkscape:pageopacity="0"
     inkscape:pagecheckerboard="0"
     inkscape:deskcolor="#505050"
     showgrid="false"
     inkscape:zoom="4.5130401"
     inkscape:cx="280.18807"
     inkscape:cy="-55.838192"
     inkscape:window-width="3840"
     inkscape:window-height="2050"
     inkscape:window-x="-12"
     inkscape:window-y="-12"
     inkscape:window-maximized="1"
     inkscape:current-layer="Markenzeichen" />
  <defs
     id="defs4">
    <style
       id="style2">.cls-1{fill:#0071b9;}</style>
  </defs>
  <title
     id="title6">TUV_R_Markenzeichen_1_Claim_sRGB_blue</title>
  <g
     id="g378"
     transform="scale(0.9865968)">
    <path
       d="m 105.22,31.78 h -8.84 v -4.85 h 24 v 4.85 h -8.83 V 56.6 h -6.37 z"
       id="path8" />
    <path
       d="M 131.4,26.93 V 45 a 21.81,21.81 0 0 0 0.14,2.53 6.17,6.17 0 0 0 0.76,2.37 4.58,4.58 0 0 0 1.91,1.74 8,8 0 0 0 3.64,0.68 c 0.25,0 0.61,0 1.09,0 a 6.83,6.83 0 0 0 1.56,-0.32 6.14,6.14 0 0 0 1.67,-0.78 5.07,5.07 0 0 0 1.43,-1.48 3.15,3.15 0 0 0 0.4,-0.74 6.74,6.74 0 0 0 0.28,-1 11.15,11.15 0 0 0 0.19,-1.39 c 0,-0.54 0.06,-1.17 0.06,-1.92 V 26.93 h 6.21 v 18.54 a 11.71,11.71 0 0 1 -1.2,5.57 10.27,10.27 0 0 1 -3.08,3.61 12.27,12.27 0 0 1 -4.19,2 18.51,18.51 0 0 1 -4.56,0.58 24.15,24.15 0 0 1 -2.61,-0.16 13.71,13.71 0 0 1 -3,-0.73 13.32,13.32 0 0 1 -3,-1.58 9.62,9.62 0 0 1 -3.8,-6.18 30.41,30.41 0 0 1 -0.22,-3.85 v -17.8 z m 0.94,-8.5 h 4.19 v 4.84 h -4.19 z m 7.07,0 h 4.19 v 4.84 h -4.19 z"
       id="path10" />
    <path
       d="m 162.31,26.93 7.76,23.39 7.81,-23.39 h 6.29 L 173.24,56.6 h -7 L 155.36,26.93 Z"
       id="path12" />
    <path
       d="m 189.72,26.93 h 10.6 1.4 a 16.55,16.55 0 0 1 1.77,0.14 11.66,11.66 0 0 1 1.89,0.42 7.31,7.31 0 0 1 4.25,3.51 7.38,7.38 0 0 1 0.81,3.4 7.67,7.67 0 0 1 -0.56,2.92 7,7 0 0 1 -1.54,2.35 6,6 0 0 1 -1.87,1.33 q -0.93,0.39 -1.62,0.6 a 9.41,9.41 0 0 1 1.85,0.7 4.34,4.34 0 0 1 1.31,1 4.77,4.77 0 0 1 0.86,1.6 11.52,11.52 0 0 1 0.5,2.36 c 0.11,0.87 0.21,1.69 0.31,2.46 0.1,0.77 0.21,1.52 0.35,2.26 0.14,0.74 0.29,1.48 0.47,2.23 a 19,19 0 0 0 0.72,2.36 h -4.4 a 12.8,12.8 0 0 1 -0.45,-1.74 c -0.14,-0.67 -0.26,-1.36 -0.37,-2.08 -0.11,-0.72 -0.21,-1.42 -0.29,-2.11 -0.08,-0.69 -0.17,-1.34 -0.25,-1.92 a 17,17 0 0 0 -0.53,-2.67 3.68,3.68 0 0 0 -1,-1.7 4,4 0 0 0 -1.88,-0.91 14.1,14.1 0 0 0 -3,-0.26 h -5.16 V 56.6 h -4.11 z m 4,12.82 h 7.11 a 10.58,10.58 0 0 0 1.06,-0.06 8.25,8.25 0 0 0 1.19,-0.21 3.26,3.26 0 0 0 1,-0.39 6.09,6.09 0 0 0 0.56,-0.39 3.51,3.51 0 0 0 0.67,-0.74 4.65,4.65 0 0 0 0.55,-1.14 5,5 0 0 0 0.23,-1.61 4.66,4.66 0 0 0 -0.7,-2.78 4.31,4.31 0 0 0 -1.6,-1.43 5.68,5.68 0 0 0 -1.95,-0.54 c -0.67,-0.05 -1.21,-0.08 -1.62,-0.08 h -6.47 z"
       id="path14" />
    <path
       d="m 216.6,26.93 h 3.9 V 39 a 6.26,6.26 0 0 1 2.74,-2.52 8.81,8.81 0 0 1 4,-0.89 10.34,10.34 0 0 1 1.76,0.17 8.67,8.67 0 0 1 1.85,0.53 6.37,6.37 0 0 1 1.67,1 4.66,4.66 0 0 1 1.21,1.58 c 0.11,0.22 0.2,0.45 0.29,0.68 a 4.71,4.71 0 0 1 0.2,0.9 c 0.06,0.37 0.1,0.82 0.15,1.34 0.05,0.52 0.06,1.15 0.06,1.89 V 56.6 h -4 V 44.4 c 0,-0.47 0,-1 -0.06,-1.69 a 5.45,5.45 0 0 0 -0.49,-1.91 4.12,4.12 0 0 0 -1.34,-1.58 4.25,4.25 0 0 0 -2.55,-0.66 5.77,5.77 0 0 0 -1.89,0.29 5.4,5.4 0 0 0 -1.42,0.72 4.93,4.93 0 0 0 -1,0.9 7.65,7.65 0 0 0 -0.58,0.84 4.85,4.85 0 0 0 -0.57,2.14 q -0.09,1.27 -0.09,2.22 V 56.6 h -3.9 z"
       id="path16" />
    <path
       d="m 243.44,47 a 11,11 0 0 0 0.29,2.94 6.72,6.72 0 0 0 1.05,2.35 4.7,4.7 0 0 0 1.84,1.55 6.2,6.2 0 0 0 2.74,0.56 5.27,5.27 0 0 0 3.25,-1 4.45,4.45 0 0 0 1.6,-3.22 h 3.86 a 14.59,14.59 0 0 1 -0.37,2 5.45,5.45 0 0 1 -1.4,2.37 11.24,11.24 0 0 1 -0.9,0.86 6.13,6.13 0 0 1 -1.44,0.9 10,10 0 0 1 -2,0.7 11.18,11.18 0 0 1 -2.74,0.29 q -4.89,0 -7.23,-2.83 a 11.81,11.81 0 0 1 -2.34,-7.73 17.5,17.5 0 0 1 0.82,-5.53 8.14,8.14 0 0 1 3.22,-4.21 5.88,5.88 0 0 1 1.54,-0.82 10.94,10.94 0 0 1 1.56,-0.46 9.86,9.86 0 0 1 1.42,-0.2 c 0.44,0 0.8,0 1.11,0 a 10.75,10.75 0 0 1 3.88,0.61 7.18,7.18 0 0 1 2.57,1.63 7.26,7.26 0 0 1 1.52,2.26 11.14,11.14 0 0 1 0.76,2.55 14.49,14.49 0 0 1 0.23,2.48 v 2 z m 10.89,-2.72 a 15.88,15.88 0 0 0 -0.12,-1.78 5.52,5.52 0 0 0 -0.64,-2 4.56,4.56 0 0 0 -1.57,-1.63 5.06,5.06 0 0 0 -2.8,-0.68 6.32,6.32 0 0 0 -1.93,0.31 4.83,4.83 0 0 0 -1.79,1 5.77,5.77 0 0 0 -1.33,1.87 7.16,7.16 0 0 0 -0.58,2.87 z"
       id="path18" />
    <path
       d="m 263.13,26.93 h 4.64 v 4.23 h -4.64 z m 0.41,9 h 3.86 V 56.6 h -3.86 z"
       id="path20" />
    <path
       d="m 274.27,38.36 v -2.39 h 3.86 v 3.33 a 9.65,9.65 0 0 1 0.56,-0.94 5,5 0 0 1 1.15,-1.24 7.4,7.4 0 0 1 2,-1.09 8.16,8.16 0 0 1 3,-0.47 12.74,12.74 0 0 1 1.95,0.21 7.06,7.06 0 0 1 2.49,0.92 6.43,6.43 0 0 1 2.13,2.12 6.82,6.82 0 0 1 0.91,3.78 v 14 h -4 v -13.1 a 9.14,9.14 0 0 0 -0.2,-1.93 3.24,3.24 0 0 0 -0.91,-1.6 4.76,4.76 0 0 0 -1.7,-1.05 5.83,5.83 0 0 0 -2,-0.35 5.54,5.54 0 0 0 -2,0.37 4.74,4.74 0 0 0 -1.71,1.15 6,6 0 0 0 -1.22,1.92 7.45,7.45 0 0 0 -0.45,2.72 V 56.6 h -3.86 z"
       id="path22" />
    <path
       d="m 298.72,26.93 h 3.86 v 29.63 h -3.86 z"
       id="path24" />
    <path
       d="m 322,56.6 a 9.44,9.44 0 0 1 -0.29,-1.52 12.91,12.91 0 0 1 -0.08,-1.56 7.6,7.6 0 0 1 -1.54,2 7.12,7.12 0 0 1 -1.71,1.13 6,6 0 0 1 -1.66,0.49 11.43,11.43 0 0 1 -1.46,0.1 9.67,9.67 0 0 1 -3.13,-0.47 6.82,6.82 0 0 1 -2.28,-1.29 5.45,5.45 0 0 1 -1.4,-1.94 6.09,6.09 0 0 1 -0.47,-2.38 7.52,7.52 0 0 1 0.15,-1.4 5.88,5.88 0 0 1 0.53,-1.58 7.22,7.22 0 0 1 1.09,-1.6 6.87,6.87 0 0 1 1.85,-1.46 8.34,8.34 0 0 1 1.81,-0.72 15,15 0 0 1 2,-0.41 c 0.66,-0.1 1.28,-0.16 1.87,-0.19 0.59,-0.03 1.09,0 1.5,0 h 1.32 l 1.48,0.1 c 0,-0.63 0,-1.18 0,-1.66 0,-0.48 0,-0.89 -0.08,-1.23 a 4.74,4.74 0 0 0 -0.2,-0.93 2.24,2.24 0 0 0 -0.44,-0.74 2.92,2.92 0 0 0 -1.66,-1.07 7.66,7.66 0 0 0 -1.91,-0.28 5,5 0 0 0 -2.3,0.43 3.45,3.45 0 0 0 -1.24,1 3,3 0 0 0 -0.51,1.18 5.41,5.41 0 0 0 -0.1,0.88 h -3.87 a 16.68,16.68 0 0 1 0.31,-1.83 5.06,5.06 0 0 1 1.13,-2.08 4.85,4.85 0 0 1 1.4,-1.08 8.35,8.35 0 0 1 1.71,-0.68 10.81,10.81 0 0 1 1.8,-0.35 15.65,15.65 0 0 1 1.75,-0.11 14.21,14.21 0 0 1 2.24,0.19 10.8,10.8 0 0 1 2.12,0.56 7.1,7.1 0 0 1 1.77,0.94 4,4 0 0 1 1.19,1.36 5.08,5.08 0 0 1 0.59,1.7 10.82,10.82 0 0 1 0.11,1.46 l -0.17,9.87 c 0,0.08 0,0.3 0,0.65 0,0.35 0,0.78 0,1.28 0,0.5 0,1 0.09,1.6 0.09,0.6 0.1,1.12 0.18,1.64 z m -0.45,-10 a 9.78,9.78 0 0 0 -1,-0.11 h -1.19 c -0.39,0 -1,0 -1.81,0.06 a 10.57,10.57 0 0 0 -2.49,0.46 5.66,5.66 0 0 0 -2.2,1.25 3.11,3.11 0 0 0 -0.94,2.42 4.12,4.12 0 0 0 0.18,1.12 3.14,3.14 0 0 0 0.66,1.17 3.56,3.56 0 0 0 1.29,0.92 5.2,5.2 0 0 0 2.14,0.37 4.89,4.89 0 0 0 4.4,-2.22 5.46,5.46 0 0 0 0.51,-1 5,5 0 0 0 0.27,-1.11 c 0.05,-0.41 0.1,-0.88 0.12,-1.41 0.02,-0.53 0.06,-1.23 0.09,-1.94 z"
       id="path26" />
    <path
       d="m 331.81,38.36 v -2.39 h 3.86 v 3.33 c 0.11,-0.22 0.3,-0.53 0.56,-0.94 a 5,5 0 0 1 1.15,-1.24 7.74,7.74 0 0 1 1.95,-1.12 8.2,8.2 0 0 1 3,-0.47 12.5,12.5 0 0 1 1.95,0.21 7.06,7.06 0 0 1 2.49,0.92 6.55,6.55 0 0 1 2.14,2.12 6.91,6.91 0 0 1 0.9,3.78 v 14 h -3.94 V 43.49 a 8.52,8.52 0 0 0 -0.21,-1.93 3.3,3.3 0 0 0 -0.9,-1.6 4.88,4.88 0 0 0 -1.76,-1.05 5.78,5.78 0 0 0 -1.95,-0.35 5.59,5.59 0 0 0 -2,0.37 4.62,4.62 0 0 0 -1.7,1.15 6,6 0 0 0 -1.2,1.93 7.45,7.45 0 0 0 -0.45,2.72 V 56.6 h -3.86 z"
       id="path28" />
    <path
       d="m 370.49,26.93 h 3.86 v 26.35 c 0,0.11 0,0.29 0,0.55 0,0.26 0,0.55 0,0.86 0,0.31 0,0.64 0,1 0,0.36 0,0.63 0.06,0.9 h -3.86 l -0.08,-3.28 c -0.17,0.3 -0.38,0.64 -0.64,1 a 4.66,4.66 0 0 1 -1.21,1.16 8.15,8.15 0 0 1 -2.65,1.19 10.7,10.7 0 0 1 -2.45,0.33 11.63,11.63 0 0 1 -2.55,-0.37 7.59,7.59 0 0 1 -2.91,-1.48 8.94,8.94 0 0 1 -2.31,-3.14 12.54,12.54 0 0 1 -1,-5.47 14.68,14.68 0 0 1 0.78,-5.07 10.12,10.12 0 0 1 2.08,-3.49 8.11,8.11 0 0 1 3,-2 9.49,9.49 0 0 1 3.49,-0.66 8.2,8.2 0 0 1 2.8,0.43 7.25,7.25 0 0 1 1.89,1 5.51,5.51 0 0 1 1.13,1.15 l 0.6,0.91 z m 0.12,19 a 11.73,11.73 0 0 0 -0.45,-3.61 7,7 0 0 0 -1.11,-2.16 5.52,5.52 0 0 0 -4.52,-2.1 5.15,5.15 0 0 0 -2.41,0.51 5,5 0 0 0 -1.58,1.32 6.93,6.93 0 0 0 -1,1.77 12,12 0 0 0 -0.51,1.9 12.48,12.48 0 0 0 -0.19,1.69 c 0,0.51 0,0.87 0,1.09 a 17.67,17.67 0 0 0 0.23,2.78 8,8 0 0 0 0.84,2.56 5.11,5.11 0 0 0 1.73,1.85 6.21,6.21 0 0 0 6.39,-0.35 6.15,6.15 0 0 0 1.81,-2.49 9.75,9.75 0 0 0 0.66,-2.78 c 0.07,-0.86 0.11,-1.52 0.11,-1.91 z"
       id="path30" />
    <path
       d="m 388.81,24.09 a 7.85,7.85 0 0 1 3.13,0.63 8,8 0 0 1 2.55,1.71 8.31,8.31 0 0 1 1.72,2.57 8.12,8.12 0 0 1 0,6.32 8.07,8.07 0 0 1 -4.29,4.28 7.79,7.79 0 0 1 -3.11,0.63 7.69,7.69 0 0 1 -3.09,-0.63 8.13,8.13 0 0 1 -2.55,-1.72 8.29,8.29 0 0 1 -1.74,-2.56 8,8 0 0 1 0,-6.32 8.22,8.22 0 0 1 1.75,-2.55 8.45,8.45 0 0 1 2.56,-1.71 7.67,7.67 0 0 1 3.07,-0.65 z m 0,1 a 6.68,6.68 0 0 0 -2.73,0.57 7.29,7.29 0 0 0 -2.25,1.51 7,7 0 0 0 -1.53,2.25 6.71,6.71 0 0 0 -0.57,2.75 6.92,6.92 0 0 0 0.57,2.81 7.06,7.06 0 0 0 1.53,2.26 7,7 0 0 0 2.25,1.52 6.83,6.83 0 0 0 2.73,0.55 6.74,6.74 0 0 0 2.76,-0.56 7.12,7.12 0 0 0 2.25,-1.53 7.05,7.05 0 0 0 2.07,-5 7,7 0 0 0 -2,-5 7.2,7.2 0 0 0 -2.25,-1.54 6.71,6.71 0 0 0 -2.83,-0.63 z m -2.93,2.7 h 3.06 0.72 a 2.87,2.87 0 0 1 1,0.24 2.14,2.14 0 0 1 0.86,0.65 1.87,1.87 0 0 1 0.37,1.25 3,3 0 0 1 0,0.37 1.52,1.52 0 0 1 -0.18,0.59 2.25,2.25 0 0 1 -0.49,0.63 2,2 0 0 1 -0.92,0.49 1.81,1.81 0 0 1 0.95,0.51 2.53,2.53 0 0 1 0.37,1.15 c 0.07,0.54 0.13,1 0.19,1.45 a 5.91,5.91 0 0 0 0.32,1.27 h -1.24 c 0,-0.14 -0.08,-0.27 -0.11,-0.39 a 3.07,3.07 0 0 1 -0.1,-0.43 c 0,-0.16 -0.06,-0.35 -0.09,-0.58 -0.03,-0.23 -0.08,-0.51 -0.12,-0.85 a 3.67,3.67 0 0 0 -0.15,-0.81 1.19,1.19 0 0 0 -0.31,-0.51 1.05,1.05 0 0 0 -0.54,-0.26 4.16,4.16 0 0 0 -0.87,-0.08 h -1.49 v 3.91 h -1.19 z m 1.19,3.7 h 1.87 0.51 a 1.42,1.42 0 0 0 0.57,-0.15 1.09,1.09 0 0 0 0.44,-0.39 1.36,1.36 0 0 0 0.18,-0.76 1.41,1.41 0 0 0 -0.18,-0.78 1.12,1.12 0 0 0 -0.43,-0.41 1.72,1.72 0 0 0 -0.56,-0.15 h -0.53 -1.87 z"
       id="path32" />
    <path
       d="m 110.78,78.15 a 3.48,3.48 0 0 0 -1.38,-2.32 5.18,5.18 0 0 0 -3.24,-0.88 8,8 0 0 0 -2.62,0.41 4.62,4.62 0 0 0 -2,1.32 6.52,6.52 0 0 0 -1.11,1.59 9.42,9.42 0 0 0 -0.66,1.73 9.65,9.65 0 0 0 -0.33,1.72 14.68,14.68 0 0 0 -0.09,1.55 14.42,14.42 0 0 0 0.39,3.21 11.39,11.39 0 0 0 0.56,1.71 6,6 0 0 0 0.93,1.52 4.92,4.92 0 0 0 1.13,1 5.72,5.72 0 0 0 1.32,0.63 7.57,7.57 0 0 0 1.46,0.32 11.23,11.23 0 0 0 1.53,0.1 13.17,13.17 0 0 0 2.86,-0.25 c 0.74,-0.17 1.27,-0.31 1.59,-0.4 V 85 h -4.68 V 82.6 H 114 v 10.12 l -1.15,0.35 c -0.46,0.15 -1,0.28 -1.63,0.42 -0.63,0.14 -1.31,0.24 -2.07,0.34 a 20.4,20.4 0 0 1 -2.43,0.14 12.27,12.27 0 0 1 -4.59,-0.72 8.34,8.34 0 0 1 -2.84,-1.83 9,9 0 0 1 -2.29,-3.57 13.66,13.66 0 0 1 -0.66,-4.23 16.36,16.36 0 0 1 0.14,-2 12.56,12.56 0 0 1 0.59,-2.55 11.2,11.2 0 0 1 1.34,-2.65 8.58,8.58 0 0 1 2.32,-2.29 6.65,6.65 0 0 1 1.6,-0.8 14.08,14.08 0 0 1 1.62,-0.44 10.15,10.15 0 0 1 1.43,-0.18 h 1 c 0.4,0 0.84,0 1.35,0.06 a 7.26,7.26 0 0 1 1.54,0.28 7.48,7.48 0 0 1 1.6,0.67 6.65,6.65 0 0 1 1.55,1.17 5.62,5.62 0 0 1 0.72,0.94 4,4 0 0 1 0.4,0.88 5.11,5.11 0 0 1 0.17,0.79 c 0,0.25 0,0.46 0.07,0.65 z"
       id="path34" />
    <path
       d="m 120.39,86.88 a 7.29,7.29 0 0 0 0.2,2 4.6,4.6 0 0 0 0.72,1.62 3.3,3.3 0 0 0 1.27,1.07 4.19,4.19 0 0 0 1.89,0.39 3.61,3.61 0 0 0 2.24,-0.71 3,3 0 0 0 1.1,-2.21 h 2.67 a 9.9,9.9 0 0 1 -0.26,1.34 3.74,3.74 0 0 1 -1,1.63 7.36,7.36 0 0 1 -0.62,0.6 4.91,4.91 0 0 1 -1,0.62 6.92,6.92 0 0 1 -1.4,0.48 8.09,8.09 0 0 1 -1.88,0.2 6.1,6.1 0 0 1 -5,-2 8.12,8.12 0 0 1 -1.62,-5.33 12.11,12.11 0 0 1 0.57,-3.82 5.59,5.59 0 0 1 2.29,-2.76 4,4 0 0 1 1.06,-0.57 8.07,8.07 0 0 1 1.08,-0.31 5.14,5.14 0 0 1 1,-0.14 h 0.76 a 7.5,7.5 0 0 1 2.68,0.42 5,5 0 0 1 1.77,1.12 5.17,5.17 0 0 1 1.03,1.48 7.54,7.54 0 0 1 0.52,1.76 9.39,9.39 0 0 1 0.16,1.71 v 1.39 z M 127.9,85 a 10.15,10.15 0 0 0 -0.09,-1.23 3.66,3.66 0 0 0 -0.44,-1.38 3.21,3.21 0 0 0 -1.06,-1.12 3.47,3.47 0 0 0 -1.93,-0.46 4.54,4.54 0 0 0 -1.33,0.21 3.32,3.32 0 0 0 -1.23,0.71 3.81,3.81 0 0 0 -0.92,1.27 4.93,4.93 0 0 0 -0.4,2 z"
       id="path36" />
    <path
       d="m 134.42,80.93 v -1.64 h 2.67 v 2.29 c 0.08,-0.15 0.21,-0.37 0.39,-0.65 a 3.61,3.61 0 0 1 0.79,-0.85 5.32,5.32 0 0 1 1.35,-0.75 5.44,5.44 0 0 1 2,-0.33 9.34,9.34 0 0 1 1.34,0.14 5.16,5.16 0 0 1 1.72,0.64 4.36,4.36 0 0 1 1.47,1.46 4.71,4.71 0 0 1 0.63,2.61 v 9.67 h -2.73 v -9 a 5.71,5.71 0 0 0 -0.14,-1.33 2.22,2.22 0 0 0 -0.62,-1.1 3.21,3.21 0 0 0 -1.18,-0.73 3.91,3.91 0 0 0 -1.34,-0.24 4,4 0 0 0 -1.41,0.26 3.15,3.15 0 0 0 -1.17,0.79 4.12,4.12 0 0 0 -0.83,1.33 5.31,5.31 0 0 0 -0.31,1.87 v 8.2 h -2.66 z"
       id="path38" />
    <path
       d="m 160.13,93.52 a 6.91,6.91 0 0 1 -0.2,-1 9.25,9.25 0 0 1 -0.06,-1.08 4.93,4.93 0 0 1 -1.06,1.39 4.82,4.82 0 0 1 -1.18,0.78 4.08,4.08 0 0 1 -1.14,0.34 7.57,7.57 0 0 1 -1,0.07 6.43,6.43 0 0 1 -2.15,-0.33 4.49,4.49 0 0 1 -1.58,-0.89 3.81,3.81 0 0 1 -1,-1.33 4.12,4.12 0 0 1 -0.33,-1.65 6,6 0 0 1 0.1,-1 4.39,4.39 0 0 1 0.37,-1.09 5.17,5.17 0 0 1 0.75,-1.11 5,5 0 0 1 1.28,-1 5.27,5.27 0 0 1 1.24,-0.5 11.33,11.33 0 0 1 1.36,-0.28 12.8,12.8 0 0 1 1.29,-0.13 h 1 0.91 c 0.26,0 0.6,0 1,0.07 0,-0.44 0,-0.82 0,-1.15 0,-0.33 0,-0.61 -0.05,-0.85 a 2.86,2.86 0 0 0 -0.15,-0.64 1.44,1.44 0 0 0 -0.29,-0.51 2.07,2.07 0 0 0 -1.15,-0.74 5.36,5.36 0 0 0 -1.32,-0.2 3.46,3.46 0 0 0 -1.59,0.3 2.33,2.33 0 0 0 -0.85,0.7 1.94,1.94 0 0 0 -0.35,0.8 3.73,3.73 0 0 0 -0.07,0.61 h -2.67 a 10.5,10.5 0 0 1 0.22,-1.26 3.35,3.35 0 0 1 0.78,-1.43 3.27,3.27 0 0 1 1,-0.75 6.31,6.31 0 0 1 1.18,-0.47 8.49,8.49 0 0 1 1.24,-0.24 10.41,10.41 0 0 1 1.21,-0.07 9,9 0 0 1 1.54,0.13 7.26,7.26 0 0 1 1.46,0.38 5.06,5.06 0 0 1 1.22,0.65 2.8,2.8 0 0 1 0.82,0.94 3.43,3.43 0 0 1 0.41,1.17 7.15,7.15 0 0 1 0.07,1 l -0.11,6.8 c 0,0.06 0,0.21 0,0.46 0,0.25 0,0.54 0,0.88 0,0.34 0,0.71 0.06,1.1 0.06,0.39 0.07,0.78 0.13,1.14 z m -0.31,-6.92 a 6.08,6.08 0 0 0 -0.71,-0.07 h -0.82 c -0.27,0 -0.68,0 -1.25,0 a 6.57,6.57 0 0 0 -1.72,0.31 4,4 0 0 0 -1.51,0.86 2.15,2.15 0 0 0 -0.65,1.68 2.83,2.83 0 0 0 0.12,0.76 2.37,2.37 0 0 0 0.46,0.81 2.46,2.46 0 0 0 0.89,0.64 3.63,3.63 0 0 0 1.47,0.25 3.38,3.38 0 0 0 3,-1.53 3.58,3.58 0 0 0 0.35,-0.71 3.25,3.25 0 0 0 0.19,-0.76 c 0,-0.29 0.06,-0.61 0.08,-1 0.02,-0.39 0.08,-0.75 0.1,-1.24 z"
       id="path40" />
    <path
       d="m 169.45,79.29 v 9.15 a 6.94,6.94 0 0 0 0.09,1.08 2.29,2.29 0 0 0 0.41,1 2.57,2.57 0 0 0 0.92,0.75 3.66,3.66 0 0 0 1.62,0.3 4.78,4.78 0 0 0 1.88,-0.37 3.19,3.19 0 0 0 1.46,-1.2 2.94,2.94 0 0 0 0.53,-1.39 c 0,-0.49 0.07,-0.91 0.07,-1.27 v -8 h 2.75 v 11.51 c 0,0.08 0,0.22 0,0.43 0,0.21 0,0.44 0,0.71 0,0.27 0,0.53 0,0.82 0,0.29 0,0.52 0,0.71 h -2.78 v -2.44 c -0.13,0.24 -0.3,0.52 -0.5,0.82 a 3.55,3.55 0 0 1 -0.81,0.84 4.77,4.77 0 0 1 -1.3,0.65 6,6 0 0 1 -1.93,0.27 6.51,6.51 0 0 1 -2.29,-0.36 4.1,4.1 0 0 1 -1.6,-1 3.85,3.85 0 0 1 -0.95,-1.53 5.8,5.8 0 0 1 -0.32,-1.94 v -9.54 z"
       id="path42" />
    <path
       d="m 183.94,90.11 h 3.15 v 3.41 h -3.15 z"
       id="path44" />
    <path
       d="m 199.56,73.05 h 8.28 c 0.38,0 0.78,0 1.22,0.1 a 7.59,7.59 0 0 1 1.3,0.29 4.83,4.83 0 0 1 1.22,0.56 4.71,4.71 0 0 1 1.72,1.84 5.17,5.17 0 0 1 0.55,2.34 5.33,5.33 0 0 1 -0.38,2 4.77,4.77 0 0 1 -1.07,1.62 4,4 0 0 1 -1.29,0.92 9.41,9.41 0 0 1 -1.12,0.41 6.72,6.72 0 0 1 1.28,0.49 2.93,2.93 0 0 1 0.91,0.72 3.48,3.48 0 0 1 0.59,1.1 7.87,7.87 0 0 1 0.34,1.63 c 0.08,0.6 0.15,1.17 0.21,1.7 0.06,0.53 0.15,1 0.24,1.55 0.09,0.55 0.21,1 0.33,1.55 a 13.57,13.57 0 0 0 0.5,1.63 h -3 c -0.11,-0.34 -0.21,-0.75 -0.31,-1.21 -0.1,-0.46 -0.18,-0.94 -0.25,-1.43 -0.07,-0.49 -0.14,-1 -0.2,-1.46 -0.06,-0.46 -0.11,-0.92 -0.17,-1.32 a 11.86,11.86 0 0 0 -0.37,-1.84 2.64,2.64 0 0 0 -0.71,-1.18 2.77,2.77 0 0 0 -1.3,-0.62 9.83,9.83 0 0 0 -2.08,-0.19 h -3.6 v 9.25 h -2.84 z m 2.78,8.84 h 4.9 a 6.83,6.83 0 0 0 0.74,0 8.27,8.27 0 0 0 0.82,-0.14 2.76,2.76 0 0 0 0.69,-0.27 l 0.38,-0.27 a 2.58,2.58 0 0 0 0.46,-0.51 3.06,3.06 0 0 0 0.39,-0.79 3.55,3.55 0 0 0 0.15,-1.11 3.28,3.28 0 0 0 -0.48,-1.92 3,3 0 0 0 -1.13,-1 3.78,3.78 0 0 0 -1.34,-0.37 c -0.46,0 -0.83,-0.06 -1.12,-0.06 h -4.46 z"
       id="path46" />
    <path
       d="m 218.19,73.11 h 3.2 V 76 h -3.2 z m 0.28,6.18 h 2.66 v 14.23 h -2.66 z"
       id="path48" />
    <path
       d="m 234.14,83.85 c 0,-0.17 0,-0.42 -0.11,-0.75 a 3.08,3.08 0 0 0 -0.37,-1 2.73,2.73 0 0 0 -0.83,-0.87 2.78,2.78 0 0 0 -1.52,-0.37 3.09,3.09 0 0 0 -2.14,0.68 4.05,4.05 0 0 0 -1.09,1.59 6.29,6.29 0 0 0 -0.4,1.8 q -0.06,0.9 -0.06,1.29 a 14.23,14.23 0 0 0 0.16,2.11 6.12,6.12 0 0 0 0.55,1.8 3.33,3.33 0 0 0 1.08,1.26 3,3 0 0 0 1.76,0.47 3.26,3.26 0 0 0 1.43,-0.28 2.57,2.57 0 0 0 0.93,-0.74 3.15,3.15 0 0 0 0.53,-1 4.59,4.59 0 0 0 0.2,-1.06 H 237 a 5.42,5.42 0 0 1 -0.47,2 4.85,4.85 0 0 1 -1.15,1.62 5.41,5.41 0 0 1 -1.78,1.1 6.32,6.32 0 0 1 -2.36,0.41 8.81,8.81 0 0 1 -0.93,0 7.08,7.08 0 0 1 -1.2,-0.24 6.37,6.37 0 0 1 -1.31,-0.56 4.58,4.58 0 0 1 -1.24,-1 7.83,7.83 0 0 1 -0.63,-0.85 5.67,5.67 0 0 1 -0.56,-1.13 8.94,8.94 0 0 1 -0.39,-1.51 12.38,12.38 0 0 1 -0.14,-2 9.5,9.5 0 0 1 0.62,-3.7 6.46,6.46 0 0 1 1.54,-2.39 5.63,5.63 0 0 1 2.09,-1.24 7,7 0 0 1 2.21,-0.37 c 0.23,0 0.52,0 0.89,0 a 6.77,6.77 0 0 1 1.17,0.24 6.36,6.36 0 0 1 1.21,0.53 4.71,4.71 0 0 1 2.06,2.68 c 0.11,0.56 0.19,1 0.23,1.43 z"
       id="path50" />
    <path
       d="m 240,73.08 h 2.7 v 8.3 a 4.35,4.35 0 0 1 1.88,-1.74 6,6 0 0 1 2.72,-0.64 7.65,7.65 0 0 1 1.21,0.11 6.45,6.45 0 0 1 1.28,0.37 4.13,4.13 0 0 1 1.15,0.7 3,3 0 0 1 0.83,1.09 2.76,2.76 0 0 1 0.2,0.47 3.13,3.13 0 0 1 0.15,0.62 c 0,0.25 0.07,0.56 0.09,0.92 0.02,0.36 0,0.79 0,1.31 v 8.9 h -2.72 V 85.1 c 0,-0.32 0,-0.71 0,-1.17 a 3.58,3.58 0 0 0 -0.34,-1.31 2.74,2.74 0 0 0 -0.92,-1.09 2.9,2.9 0 0 0 -1.76,-0.46 4,4 0 0 0 -1.3,0.2 3.76,3.76 0 0 0 -1,0.5 3,3 0 0 0 -0.66,0.62 4.39,4.39 0 0 0 -0.4,0.58 3.39,3.39 0 0 0 -0.4,1.47 c 0,0.59 0,1.1 0,1.54 v 7.54 H 240 Z"
       id="path52" />
    <path
       d="m 254.92,79.23 h 2.52 v -3 l 2.61,-0.85 v 3.83 h 3.18 v 2 h -3.18 v 8.54 c 0,0.17 0,0.37 0,0.59 a 1.39,1.39 0 0 0 0.21,0.63 1.46,1.46 0 0 0 0.57,0.48 2.46,2.46 0 0 0 1.09,0.2 5.78,5.78 0 0 0 0.75,-0.05 2.26,2.26 0 0 0 0.53,-0.1 v 2.07 l -0.92,0.12 a 12.49,12.49 0 0 1 -1.3,0 4.64,4.64 0 0 1 -2.7,-0.63 2.82,2.82 0 0 1 -0.87,-2.4 v -9.5 h -2.52 z"
       id="path54" />
    <path
       d="m 266.2,73.11 h 3.21 V 76 h -3.21 z m 0.29,6.18 h 2.66 v 14.23 h -2.66 z"
       id="path56" />
    <path
       d="m 276.58,94.62 a 3.91,3.91 0 0 0 0.2,1.11 2.09,2.09 0 0 0 0.55,0.88 2.84,2.84 0 0 0 1,0.58 5,5 0 0 0 1.56,0.21 4.07,4.07 0 0 0 2.16,-0.48 2.81,2.81 0 0 0 1.12,-1.35 6.48,6.48 0 0 0 0.42,-2.07 c 0.05,-0.8 0.07,-1.69 0.07,-2.65 a 3.41,3.41 0 0 1 -1.09,1.36 5.1,5.1 0 0 1 -1.36,0.72 4.8,4.8 0 0 1 -1.3,0.29 c -0.41,0 -0.72,0 -0.92,0 a 8.33,8.33 0 0 1 -1.07,-0.07 6.22,6.22 0 0 1 -1.16,-0.26 4.78,4.78 0 0 1 -1.13,-0.52 3.92,3.92 0 0 1 -1,-0.91 6.21,6.21 0 0 1 -1.26,-2.43 11,11 0 0 1 -0.35,-2.81 9.16,9.16 0 0 1 0.49,-3.16 6.31,6.31 0 0 1 1.36,-2.24 5.43,5.43 0 0 1 2,-1.33 6.62,6.62 0 0 1 2.45,-0.44 6.45,6.45 0 0 1 1.83,0.22 5.16,5.16 0 0 1 1.27,0.57 3.82,3.82 0 0 1 0.84,0.71 l 0.54,0.65 v -1.95 h 2.61 l -0.05,2.58 v 8.9 c 0,0.85 0,1.58 0,2.21 0,0.63 -0.05,1.16 -0.1,1.61 a 7.67,7.67 0 0 1 -0.21,1.18 5.71,5.71 0 0 1 -0.34,0.89 4,4 0 0 1 -1.2,1.38 5.31,5.31 0 0 1 -1.52,0.77 8.43,8.43 0 0 1 -1.66,0.34 c -0.57,0.05 -1.1,0.08 -1.59,0.08 a 12,12 0 0 1 -2.42,-0.21 6.92,6.92 0 0 1 -1.65,-0.55 3.26,3.26 0 0 1 -1,-0.81 4.24,4.24 0 0 1 -0.57,-1 4.19,4.19 0 0 1 -0.25,-1 c 0,-0.35 -0.07,-0.69 -0.09,-1 z m 3.09,-3.32 a 4,4 0 0 0 1.91,-0.38 3.67,3.67 0 0 0 1.21,-1 c 0.13,-0.19 0.25,-0.38 0.38,-0.59 a 3.25,3.25 0 0 0 0.31,-0.77 7.75,7.75 0 0 0 0.2,-1.11 14.85,14.85 0 0 0 0.07,-1.62 7,7 0 0 0 -0.28,-2.17 3.76,3.76 0 0 0 -2.17,-2.29 4.33,4.33 0 0 0 -1.72,-0.34 3.25,3.25 0 0 0 -2,0.57 3.6,3.6 0 0 0 -1.15,1.37 5.67,5.67 0 0 0 -0.53,1.71 12.06,12.06 0 0 0 -0.12,1.58 10.44,10.44 0 0 0 0.15,1.72 5.09,5.09 0 0 0 0.58,1.64 3.45,3.45 0 0 0 1.19,1.24 3.69,3.69 0 0 0 1.97,0.44 z"
       id="path58" />
    <path
       d="m 291,90.11 h 3.14 v 3.41 H 291 Z"
       id="path60" />
    <path
       class="cls-1"
       d="M 74,59.42 A 84,84 0 0 0 59.55,58.16 79.15,79.15 0 0 0 39.7,60.64 78.43,78.43 0 0 1 19.87,63.17 70,70 0 0 1 12.72,62.83 L 39.72,16.12 56,44.29 A 78.76,78.76 0 0 0 39.69,46.7 77.34,77.34 0 0 1 27.91,48.77 L 23,57.28 a 82.43,82.43 0 0 0 16.69,-2.43 79.07,79.07 0 0 1 19.84,-2.49 82.09,82.09 0 0 1 10.8,0.71 L 65.16,44.13 51.81,21 39.69,0 0,68.73 a 75.14,75.14 0 0 0 19.85,2.57 75.06,75.06 0 0 0 19.84,-2.57 80.92,80.92 0 0 1 39.68,0 z"
       id="path62" />
  </g>
  <metadata
     id="metadata190">
    <rdf:RDF>
      <cc:Work
         rdf:about="">
        <dc:title>TUV_R_Markenzeichen_1_Claim_sRGB_blue</dc:title>
      </cc:Work>
    </rdf:RDF>
  </metadata>
</svg>
