<?xml version="1.0" encoding="UTF-8" standalone="no"?>
<!-- Created with Inkscape (http://www.inkscape.org/) -->

<svg
   width="187mm"
   height="42mm"
   viewBox="0 0 187 42"
   version="1.1"
   id="svg12"
   inkscape:version="1.2.1 (9c6d41e410, 2022-07-14)"
   sodipodi:docname="logo-sectorcon.svg"
   xmlns:inkscape="http://www.inkscape.org/namespaces/inkscape"
   xmlns:sodipodi="http://sodipodi.sourceforge.net/DTD/sodipodi-0.dtd"
   xmlns="http://www.w3.org/2000/svg"
   xmlns:svg="http://www.w3.org/2000/svg">
  <sodipodi:namedview
     id="namedview14"
     pagecolor="#ffffff"
     bordercolor="#eeeeee"
     borderopacity="1"
     inkscape:showpageshadow="0"
     inkscape:pageopacity="0"
     inkscape:pagecheckerboard="0"
     inkscape:deskcolor="#666666"
     inkscape:document-units="mm"
     showgrid="false"
     showguides="true"
     inkscape:zoom="3.0056696"
     inkscape:cx="198.12557"
     inkscape:cy="259.17686"
     inkscape:window-width="3840"
     inkscape:window-height="2050"
     inkscape:window-x="-12"
     inkscape:window-y="-12"
     inkscape:window-maximized="1"
     inkscape:current-layer="layer1">
    <sodipodi:guide
       position="268.96328,-72.651331"
       orientation="1,0"
       id="guide2508"
       inkscape:locked="false" />
    <sodipodi:guide
       position="100.08793,-4.9359416"
       orientation="1,0"
       id="guide705"
       inkscape:locked="false" />
  </sodipodi:namedview>
  <defs
     id="defs9">
    <linearGradient
       gradientTransform="matrix(2.4786246,0,0,2.4786246,72.216757,-44.112957)"
       gradientUnits="userSpaceOnUse"
       y2="9.0250902"
       x2="145"
       y1="9.0250902"
       id="linear-gradient">
      <stop
         id="stop4"
         stop-color="#01c3c6"
         offset="0.126" />
      <stop
         id="stop6"
         stop-color="#1493d3"
         offset="0.60576" />
      <stop
         id="stop8"
         stop-color="#2270dd"
         offset="1" />
    </linearGradient>
  </defs>
  <g
     inkscape:label="Ebene 1"
     inkscape:groupmode="layer"
     id="layer1"
     transform="translate(-0.08802781,51.953541)">
    <g
       aria-label="SectorCon"
       id="text4654"
       style="font-size:69.7337px;line-height:1.25;fill:#ffffff;stroke-width:0.351311"
       transform="matrix(0.64718953,0,0,0.64718953,-4.8249483,-98.513365)">
      <path
         d="m 9.3498538,123.08755 v -6.46944 H 26.000137 q 3.983811,0 6.02679,-1.56628 2.07703,-1.56629 2.07703,-4.59671 0,-2.34942 -1.600334,-4.08596 -1.566285,-1.77058 -5.924641,-3.98381 l -8.171919,-4.188104 q -4.494555,-2.281327 -6.673733,-5.243648 -2.1791783,-2.99637 -2.1791783,-6.809932 0,-5.481995 3.9838103,-8.648613 3.98381,-3.166619 10.929941,-3.166619 H 38.564462 V 80.76382 H 22.322774 q -2.792072,0 -4.460505,1.430086 -1.634384,1.396036 -1.634384,3.711413 0,2.111079 1.430086,3.677363 1.464135,1.532235 6.94613,4.358356 l 7.116379,3.609264 q 4.664804,2.383477 6.878032,5.447948 2.247277,3.06447 2.247277,7.11638 0,6.16299 -4.222158,9.56795 -4.188108,3.40497 -11.883331,3.40497 z"
         style="font-family:'Bauhaus Md BT';-inkscape-font-specification:'Bauhaus Md BT';fill:#ffffff"
         id="path26878" />
      <path
         d="m 79.287857,108.30999 q -1.259838,7.15043 -5.788442,11.30449 -4.528605,4.15406 -11.03209,4.15406 -2.213228,0 -4.392406,-0.61289 -2.145129,-0.57885 -4.05191,-1.73654 -4.01786,-2.45157 -6.231088,-6.40133 -2.213228,-3.94976 -2.213228,-8.68267 0,-3.47306 1.259838,-6.605629 1.293887,-3.132569 3.711413,-5.652244 2.417526,-2.485625 5.481995,-3.779512 3.098519,-1.293887 6.503485,-1.293887 5.073399,0 9.05721,2.689923 4.01786,2.655873 6.503485,7.763322 L 56.202187,111.57876 53.682512,107.05016 69.9242,97.992948 q -1.498185,-1.668433 -3.370916,-2.519675 -1.872731,-0.851241 -4.085959,-0.851241 -4.494555,0 -7.593074,3.370916 -3.06447,3.336862 -3.06447,8.274072 0,4.90315 3.098519,8.27406 3.098519,3.37092 7.559025,3.37092 4.256207,0 7.116379,-2.79207 2.894221,-2.82612 3.609264,-7.72928 z"
         style="font-family:'Bauhaus Md BT';-inkscape-font-specification:'Bauhaus Md BT';fill:#ffffff"
         id="path26880" />
      <path
         d="m 105.9828,95.405174 h -2.58778 q -6.299186,0 -10.044648,3.030419 -3.745463,2.996367 -3.745463,8.001667 0,4.97125 3.745463,8.00167 3.779512,2.99637 10.044648,2.99637 h 2.58778 v 5.65225 h -2.99637 q -8.955065,0 -14.300862,-4.56266 -5.311747,-4.5967 -5.311747,-12.18978 0,-4.08595 1.906781,-7.627119 1.906781,-3.541165 5.413896,-5.958691 2.451576,-1.634383 5.209598,-2.349426 2.758023,-0.715043 7.082334,-0.715043 h 2.99637 z"
         style="font-family:'Bauhaus Md BT';-inkscape-font-specification:'Bauhaus Md BT';fill:#ffffff"
         id="path26882" />
      <path
         d="m 111.77124,80.831919 h 5.99274 v 8.852912 h 10.11275 v 5.652243 h -10.11275 v 14.300856 q 0,4.01786 1.94083,5.89059 1.97488,1.83868 6.26513,1.83868 h 1.90679 v 5.72035 h -1.97489 q -7.08232,0 -10.62349,-3.09852 -3.50711,-3.09852 -3.50711,-9.32961 z"
         style="font-family:'Bauhaus Md BT';-inkscape-font-specification:'Bauhaus Md BT';fill:#ffffff"
         id="path26884" />
      <path
         d="m 138.32997,106.26702 q 0,4.8691 3.09852,8.27406 3.13257,3.37092 7.55902,3.37092 4.42646,0 7.52498,-3.37092 3.13257,-3.40496 3.13257,-8.27406 0,-4.83506 -3.09852,-8.205973 -3.09852,-3.370916 -7.55903,-3.370916 -4.42645,0 -7.55902,3.370916 -3.09852,3.370913 -3.09852,8.205973 z m -6.23109,0.0681 q 0,-3.47306 1.29389,-6.605629 1.29388,-3.132569 3.74546,-5.652244 2.41753,-2.451576 5.4139,-3.711413 3.03042,-1.293887 6.43538,-1.293887 3.40497,0 6.46944,1.293887 3.06447,1.259837 5.44794,3.711413 2.41753,2.451576 3.67737,5.618194 1.29388,3.166619 1.29388,6.639679 0,3.54117 -1.29388,6.74184 -1.25984,3.16662 -3.67737,5.61819 -2.38347,2.45158 -5.44794,3.74546 -3.06447,1.25984 -6.46944,1.25984 -3.40496,0 -6.43538,-1.25984 -2.99637,-1.29388 -5.4139,-3.74546 -2.45158,-2.48562 -3.74546,-5.65224 -1.29389,-3.16662 -1.29389,-6.70779 z"
         style="font-family:'Bauhaus Md BT';-inkscape-font-specification:'Bauhaus Md BT';fill:#ffffff"
         id="path26886" />
      <path
         d="M 172.00509,123.08755 V 89.684831 h 5.51604 v 4.937201 q 1.53224,-2.928271 4.22216,-4.222158 2.68992,-1.327937 7.25258,-1.327937 h 1.56628 v 5.788442 h -0.91934 q -6.16299,0 -8.92101,2.928271 -2.72397,2.92827 -2.72397,9.5339 v 15.765 z"
         style="font-family:'Bauhaus Md BT';-inkscape-font-specification:'Bauhaus Md BT';fill:#ffffff"
         id="path26888" />
      <path
         d="m 223.18172,80.116876 q -0.44265,-0.03405 -0.91934,-0.03405 -0.4767,-0.03405 -1.43009,-0.03405 -9.90845,0 -15.62879,5.03935 -5.72035,5.0053 -5.72035,13.585814 0,8.58052 5.72035,13.61987 5.72034,5.0053 15.62879,5.0053 0.95339,0 1.43009,0 0.51074,-0.034 0.91934,-0.0681 v 5.85654 h -1.87273 q -5.4139,0 -9.53391,-0.85124 -4.12001,-0.85125 -6.91208,-2.55373 -5.85654,-3.57521 -8.92101,-8.92101 -3.06447,-5.37985 -3.06447,-12.08763 0,-6.673733 3.06447,-12.01953 3.06447,-5.345796 8.92101,-8.886961 2.79207,-1.702483 6.91208,-2.553725 4.12001,-0.885291 9.53391,-0.885291 h 1.87273 z"
         style="font-family:'Bauhaus Md BT';-inkscape-font-specification:'Bauhaus Md BT';fill:#ffffff"
         id="path26890" />
      <path
         d="m 233.60091,106.26702 q 0,4.8691 3.09852,8.27406 3.13257,3.37092 7.55902,3.37092 4.42646,0 7.52498,-3.37092 3.13257,-3.40496 3.13257,-8.27406 0,-4.83506 -3.09852,-8.205973 -3.09852,-3.370916 -7.55903,-3.370916 -4.42645,0 -7.55902,3.370916 -3.09852,3.370913 -3.09852,8.205973 z m -6.23109,0.0681 q 0,-3.47306 1.29389,-6.605629 1.29389,-3.132569 3.74546,-5.652244 2.41753,-2.451576 5.4139,-3.711413 3.03042,-1.293887 6.43538,-1.293887 3.40497,0 6.46944,1.293887 3.06447,1.259837 5.44795,3.711413 2.41752,2.451576 3.67736,5.618194 1.29389,3.166619 1.29389,6.639679 0,3.54117 -1.29389,6.74184 -1.25984,3.16662 -3.67736,5.61819 -2.38348,2.45158 -5.44795,3.74546 -3.06447,1.25984 -6.46944,1.25984 -3.40496,0 -6.43538,-1.25984 -2.99637,-1.29388 -5.4139,-3.74546 -2.45157,-2.48562 -3.74546,-5.65224 -1.29389,-3.16662 -1.29389,-6.70779 z"
         style="font-family:'Bauhaus Md BT';-inkscape-font-specification:'Bauhaus Md BT';fill:#ffffff"
         id="path26892" />
      <path
         d="m 266.83338,123.08755 v -18.21657 q 0,-7.286628 3.88166,-11.542836 3.88166,-4.256207 10.3511,-4.256207 6.46943,0 10.31704,4.256207 3.84761,4.256208 3.84761,11.542836 v 18.21657 h -5.92464 v -19.30616 q 0,-3.94976 -2.31537,-6.435386 -2.28133,-2.485625 -5.92464,-2.485625 -3.60927,0 -5.95869,2.485625 -2.31538,2.485626 -2.31538,6.435386 v 19.30616 z"
         style="font-family:'Bauhaus Md BT';-inkscape-font-specification:'Bauhaus Md BT';fill:#ffffff"
         id="path26894" />
    </g>
    <rect
       style="fill:#d43127;fill-opacity:1;stroke-width:5.94411;stroke-linecap:square;paint-order:stroke markers fill"
       id="rect20389"
       width="185.05289"
       height="3.7911332"
       x="1.2104869"
       y="-14.992994"
       ry="0" />
  </g>
</svg>
